<svg xmlns="http://www.w3.org/2000/svg" viewBox="0 0 143.01 143.01"><defs><style>.cls-1,.cls-3{fill:#fff;}.cls-2{fill:#006db2;}.cls-2,.cls-3{fill-rule:evenodd;}</style></defs><title>Recurso-10</title><g id="Capa_2" data-name="Capa 2"><g id="Capa_1-2" data-name="Capa 1"><path class="cls-1" d="M143,71.5A71.51,71.51,0,1,1,71.5,0,71.51,71.51,0,0,1,143,71.5Z"/><path class="cls-2" d="M135.56,71.54A64.06,64.06,0,1,1,71.47,7.45a64.1,64.1,0,0,1,64.09,64.09"/><polygon class="cls-3" points="55.15 87.55 70.36 87.55 70.28 58.62 56.86 28.33 55.15 28.77 55.15 87.55"/><path class="cls-3" d="M48.47,87.55V30.46l-2.66.67c0,23.91-7.46,30.08-7.46,30.08V87.55Z"/><path class="cls-3" d="M82.42,32.06,71.5,55.31,60.59,32.06a16.3,16.3,0,0,0,5.53,1.87,31,31,0,0,0,5.38.5,30.15,30.15,0,0,0,5.39-.5,15.69,15.69,0,0,0,5.53-1.87"/><path class="cls-3" d="M94.19,87.55h10.34V61.2c-.15-.15-7.46-6.38-7.46-30.07l-2.88-.75Z"/><polygon class="cls-3" points="87.51 87.55 87.51 28.63 86.08 28.25 72.51 58.61 72.51 87.55 87.51 87.55"/><polygon class="cls-3" points="70.4 99.68 70.39 94.44 38.34 94.44 38.34 99.68 70.4 99.68"/><polygon class="cls-3" points="38.34 106.35 38.34 110.44 70.28 110.52 70.43 110.52 70.42 106.35 38.34 106.35"/><rect class="cls-1" x="72.51" y="94.44" width="32.01" height="5.24"/><polygon class="cls-3" points="72.51 106.35 72.51 110.52 72.59 110.52 104.53 110.44 104.53 106.35 72.51 106.35"/></g></g></svg>