<svg xmlns="http://www.w3.org/2000/svg" viewBox="0 0 143.01 143.01"><defs><style>.cls-1{fill:#fff;}.cls-2{fill:#006db2;}</style></defs><title>Recurso-11</title><g id="Capa_2" data-name="Capa 2"><g id="Capa_1-2" data-name="Capa 1"><path class="cls-1" d="M143,71.51A71.51,71.51,0,1,1,71.5,0,71.51,71.51,0,0,1,143,71.51Z"/><path class="cls-2" d="M66,135.51a10.9,10.9,0,0,0-2-.32,65.73,65.73,0,0,1-33.09-14,88.23,88.23,0,0,1-10.16-10.43,65.29,65.29,0,0,1-13-31.6,116.68,116.68,0,0,1,0-15C8.83,52.86,14.28,40,21.74,30.87A89.73,89.73,0,0,1,32.16,20.71c9.25-7,21.23-11.93,32-13a116.75,116.75,0,0,1,14.73,0,66.43,66.43,0,0,1,33,14,85.94,85.94,0,0,1,10.32,10.52,67.86,67.86,0,0,1,10.2,19.29,78.32,78.32,0,0,1,2.77,12,114.36,114.36,0,0,1,.13,15.09,66.33,66.33,0,0,1-13.1,32.24A85.25,85.25,0,0,1,112,121.28a65.21,65.21,0,0,1-12.36,7.82c-6,3-11.37,4.59-19.75,6.07C78.61,135.39,66.2,135.69,66,135.51Zm27.09-15.43a7.87,7.87,0,0,0,3.85-3.5c.63-1.2.72-2,.92-8.7.35-11.66,1.83-17.13,7.28-27a35.18,35.18,0,0,0,4.26-13.74c.58-5.2.07-6.4-2.42-5.71l-1,.27-.19,4c-.28,6-1.1,8.46-5.89,17.63-3.85,7.37-5.31,13.66-5.6,24.06-.22,8-.37,8.6-2.36,9.29-.65.22-6.27.34-16.52.34-16.76,0-16.87,0-17.83-1.69-.27-.47-.47-2.66-.57-6.49l-.16-5.78-3-.16c-3.6-.2-5.54-1-7.3-3-2.09-2.4-2.34-3.41-2.34-9.58A41.14,41.14,0,0,0,44,84.4c-.14-.22-1.48-.41-3.34-.48-2.76-.1-3.2-.2-3.94-.89a2.39,2.39,0,0,1-.82-2c0-.66.94-5,2.08-9.76S40,62.45,40,62.12c0-.74-1.37-1.14-2.51-.73a1.75,1.75,0,0,0-1.08,1.24c-.56,2.07-3.85,15.81-4.13,17.23-.78,4.1,2.38,7.63,6.84,7.64h1.2v3c0,3.93.43,6.33,1.54,8.71a13.16,13.16,0,0,0,9.7,7.17l1.77.25.17,4.49c.18,4.93.4,5.63,2.33,7.48s2,2,19.85,2C89.27,120.55,92.15,120.47,93.09,120.08ZM53.18,70a3.93,3.93,0,0,0-1.46-7.61A4.2,4.2,0,0,0,48,64.62a4.26,4.26,0,0,0,2.28,5.46C51.77,70.57,51.69,70.58,53.18,70Zm58.76-12.46c.44-.54.23-3.43-.51-7.05a38.6,38.6,0,0,0-45-30.19A37.72,37.72,0,0,0,46.41,31a35.36,35.36,0,0,0-9.27,15c-1.71,5.24-1.56,5-3.4,5.83a23.82,23.82,0,0,1-4,1.26c-2.69.56-3.7,1.1-4.13,2.25s-.39,2.29.09,2.48c.22.09,19.64.17,43.15.19C105.83,58,111.6,57.92,111.94,57.52Z"/></g></g></svg>