<svg xmlns="http://www.w3.org/2000/svg" viewBox="0 0 143.01 143.01"><defs><style>.cls-1{fill:#fff;}.cls-2{fill:#006db2;}</style></defs><title>Recurso-5</title><g id="Capa_2" data-name="Capa 2"><g id="Capa_1-2" data-name="Capa 1"><circle class="cls-1" cx="71.5" cy="71.5" r="71.5"/><path class="cls-2" d="M66.35,135.5a14.53,14.53,0,0,0-2.39-.35c-10.45-1-22.53-5.94-31.79-13a83,83,0,0,1-10.91-10.8A65,65,0,0,1,7.7,79.17,118.1,118.1,0,0,1,7.69,64a66,66,0,0,1,14-33.1A87.43,87.43,0,0,1,32,20.9,67,67,0,0,1,60.58,8.26a81.08,81.08,0,0,1,18.15-.52A69.81,69.81,0,0,1,95.55,12a64.51,64.51,0,0,1,39,47.67,59.34,59.34,0,0,1,1,11.95,54.59,54.59,0,0,1-1.28,13.08,64.46,64.46,0,0,1-27.62,40.41c-7,4.6-17.81,8.77-25.21,9.71-1,.12-2,.29-2.4.37C78.2,135.4,66.54,135.68,66.35,135.5Zm11.13-15.13a18.92,18.92,0,0,0,11-5.84A39.36,39.36,0,0,0,98,99.86l1-2.57s12.48-1.3,15.11-4.05c1.65-1.73,2.18-3.41,4.28-13.58,2.18-10.55,2.23-11.4.85-14.4A14.22,14.22,0,0,0,111,58.17l-2-.74-.09-4.86c-.09-4.82-.09-4.86-.87-5.15a1.65,1.65,0,0,1-1-1.19A45,45,0,0,0,103.91,37,26.22,26.22,0,0,0,87.56,23.57c-4.91-1.47-6.67-1.65-16.22-1.65s-11.58.22-16.54,1.82c-9.61,3.1-15.79,10-18.31,20.58-.66,2.76-.78,3-1.76,3.15-.6.11-.65.43-.8,5.05l-.16,4.94-2.17.88c-4.87,2-8.2,5.76-8.79,10-.26,1.93,3.43,20.19,4.57,22.58a11.53,11.53,0,0,0,7.68,5.76,26.76,26.76,0,0,0,5.18.43c2.47,0,3.66.13,3.87.41a15.48,15.48,0,0,1,1,2.49,39.65,39.65,0,0,0,9,14.14A20.37,20.37,0,0,0,66,120.5,43.92,43.92,0,0,0,77.48,120.37Zm-10-3.24c-3.46-.68-4.42-1-6-1.76-2.19-1.1-5.74-4.36-8-7.31a38.4,38.4,0,0,1-6.58-14.72,16.79,16.79,0,0,0-1-3.24,51.55,51.55,0,0,1-2.1-8.26,2.51,2.51,0,0,1,.71-1.29l.7-.75-.57-3c-.66-3.51-.8-3.78-2.18-4.25-.9-.3-1.13-.58-1.5-1.92-.63-2.28-.84-9.65-.37-12.6A31.45,31.45,0,0,1,49.86,40.7a32.85,32.85,0,0,1,13.93-7.78c2.33-.63,3.49-.74,7.87-.73s5.52.12,7.67.73C90.84,36.22,99,44.4,101.87,55.6A30.48,30.48,0,0,1,102,69.87c-.75,2.72-.75,2.72-1.82,2.72a1.9,1.9,0,0,0-1.46.54,17,17,0,0,0-1,3.67l-.59,3.14,1,.85,1,.86L98,86.1c-.64,2.45-1.44,5.68-1.78,7.18A35.1,35.1,0,0,1,87,111c-3.69,3.87-6.3,5.34-10.69,6A44.76,44.76,0,0,1,67.49,117.13ZM40.05,46.89c0-1.27,1.61-6.33,2.8-8.6a20.6,20.6,0,0,1,3.91-5A17.48,17.48,0,0,1,52.56,29c5.25-2.57,6.79-2.84,17.34-3,11.92-.19,15.4.35,21,3.22a24.77,24.77,0,0,1,9.21,9.05c1.59,3.08,3.28,8.82,2.6,8.81a10.23,10.23,0,0,1-1.67-2.3C90.63,27.9,67.73,23.34,51.34,34.9a36.91,36.91,0,0,0-8.72,8.94c-.87,1.35-1.8,2.74-2.07,3.1C40.07,47.58,40.06,47.58,40.05,46.89Z"/></g></g></svg>