<svg xmlns="http://www.w3.org/2000/svg" viewBox="0 0 143.01 143.01"><defs><style>.cls-1{fill:#fff;}.cls-2{fill:#006db2;}</style></defs><title>Recurso-3</title><g id="Capa_2" data-name="Capa 2"><g id="Capa_1-2" data-name="Capa 1"><circle class="cls-1" cx="71.5" cy="71.5" r="71.5"/><path class="cls-2" d="M89.64,30.45a31.21,31.21,0,0,0-15.32-3.59A32.69,32.69,0,0,0,44.46,45.68c-1.28,2.68-1.94,4.8-3.65,11.69-1.15,4.63-2,8.6-1.94,8.81s2,.45,6.52.61a63.33,63.33,0,0,1,8.24.68A9.51,9.51,0,0,1,59,71c.74,1.18,1.23,1.27,3.25.6.75-.25,3.17-1,5.38-1.63,3.79-1.11,6.77-2,17-5l8.67-2.56,8.51-2.51c6.41-1.89,6-1.63,5.75-3.62A33.6,33.6,0,0,0,89.64,30.45ZM55.74,60.67A5.29,5.29,0,0,1,54,62a3.38,3.38,0,0,1-3.53-.17,3.72,3.72,0,0,1-2-3.66,2.85,2.85,0,0,1,1.06-2.63c2.68-2.68,6.58-1.27,6.89,2.49C56.44,59.46,56.35,59.9,55.74,60.67Z"/><path class="cls-2" d="M61.21,106.29c2.09,0,3.3-1.75,3.78-3.78a29.23,29.23,0,0,0,.69-7.21A26.07,26.07,0,0,0,65,89c-.47-2-1.69-3.78-3.78-3.78a3.84,3.84,0,0,0-.91.12L43.17,88.68c-2,.35-3.79,1.69-3.79,3.78v6.62c0,2.09,2.16,3.41,3.79,3.78l17.24,3.35A4.26,4.26,0,0,0,61.21,106.29Z"/><path class="cls-2" d="M135.24,63.43c-1.59-9.1-3-13.82-6.08-20a62.44,62.44,0,0,0-16.73-21.29A64.75,64.75,0,0,0,78.88,7.68a116.1,116.1,0,0,0-14.69,0c-10.8,1.1-22.77,6-32,13a84.32,84.32,0,0,0-10.91,10.8C13.8,41,8.82,53,7.68,64.18a116.83,116.83,0,0,0,0,15,65.48,65.48,0,0,0,13,31.6,89,89,0,0,0,10.16,10.43c9,7.36,21.9,12.84,33,14a13.28,13.28,0,0,1,2.16.32c.21.18,12.61-.11,13.84-.33,8.38-1.48,13.74-3.12,19.75-6.07A65.21,65.21,0,0,0,112,121.28a85.25,85.25,0,0,0,10.32-10.52,66.37,66.37,0,0,0,13.1-32.24A114.36,114.36,0,0,0,135.24,63.43ZM42.41,106.21C39.3,105.51,36,103,36,99.08V92.46c0-3.59,2.65-6.46,6.59-7.16l17-3.3a7.12,7.12,0,0,1,1.64-.19c3.48,0,6.21,2.47,7.13,6.44a29.56,29.56,0,0,1,.77,7,32.78,32.78,0,0,1-.78,8c-.93,4-3.66,6.43-7.12,6.43a6.86,6.86,0,0,1-1.49-.16l-17.26-3.35ZM107,77.31c-3.61,6.56-5.31,10.91-6.56,16.77-.54,2.52-.73,4.72-.85,10.27-.11,4.87-.3,7.51-.62,8.52a8,8,0,0,1-4.79,4.65c-1.26.38-4.43.46-17.47.44-17.95,0-17.92,0-20.18-2.26a6.77,6.77,0,0,1-2.07-4.06l4,.77a2.6,2.6,0,0,0,1.38,1.35c.44.25,5.74.36,17.08.36H93.31l1.08-.95,1.08-1,.22-6.45c.12-3.55.36-7.48.54-8.73a6.91,6.91,0,0,0,.08-2.52c-.22-.2-14.71,0-24.16.16a36.18,36.18,0,0,0-.31-4.23c6.88,0,16.1-.11,20.8-.32l4.92-.23,1.08-3.21A104.07,104.07,0,0,1,103,77.07c2.39-4.76,3.39-7.12,3.86-9.14.86-3.65.85-4.5,0-4.5-.6,0-9.82,2.62-15.84,4.5-1.06.33-5,1.48-8.67,2.56s-7.61,2.24-8.67,2.57-4.24,1.27-7.06,2.1-5.24,1.6-5.36,1.71a8.61,8.61,0,0,0,.15,1.9h-.1a10.33,10.33,0,0,0-2.27.26L42,82.31c-5.34,1-9.07,5.13-9.07,10.15v6.62c0,.3,0,.6,0,.89l-3.47.91-4.6-17.52,5.65-1.48a56.16,56.16,0,0,1,.33-9.78c.64-4.36,1-5.18,2.27-5.57A10.56,10.56,0,0,0,34.57,66c.32-.16,1.11-2.84,2.31-7.86,2.11-8.76,3-11.71,4.64-14.8A36.58,36.58,0,0,1,74.39,23.21a35.47,35.47,0,0,1,20.38,6,36.58,36.58,0,0,1,16.54,31A34.31,34.31,0,0,1,107,77.31Z"/></g></g></svg>