<svg xmlns="http://www.w3.org/2000/svg" viewBox="0 0 143.01 143.01"><defs><style>.cls-1{fill:#fff;}.cls-2{fill:#006db2;}</style></defs><title>Recurso-4</title><g id="Capa_2" data-name="Capa 2"><g id="Capa_1-2" data-name="Capa 1"><path class="cls-1" d="M143,71.5A71.51,71.51,0,1,1,71.5,0,71.5,71.5,0,0,1,143,71.5Z"/><path class="cls-2" d="M135.24,63.43a84.87,84.87,0,0,0-2-9.46,63.91,63.91,0,0,0-20.82-31.88A65.46,65.46,0,0,0,78.92,7.68a116.75,116.75,0,0,0-14.73,0C52.92,8.83,40.8,13.9,31.36,21.4A83,83,0,0,0,20.72,32.15c-7,9.19-11.94,21.27-13,32a116.83,116.83,0,0,0,0,15A63.46,63.46,0,0,0,25.4,116a57.39,57.39,0,0,0,10.94,9.11A64.44,64.44,0,0,0,64,135.19a11.09,11.09,0,0,1,2,.32c.19.18,12.58-.13,13.83-.34,13.13-2.26,23-6.53,32.11-13.89a85.25,85.25,0,0,0,10.32-10.52,66.36,66.36,0,0,0,13.1-32.25A114.19,114.19,0,0,0,135.24,63.43ZM108.66,88.85a7.74,7.74,0,0,1-5,3.14,2.57,2.57,0,0,0-1.66.64c-.14.27-.69,1.93-1.23,3.69-2.74,9-8.54,17.24-15.16,21.54A18.18,18.18,0,0,1,76.85,121a32,32,0,0,1-9.69.16c-6.07-.58-9.57-2.32-14.47-7.19a39.44,39.44,0,0,1-10.4-17.55L41.1,92.49l-1.74-.35c-2.34-.48-2.83-.78-4.87-3-4.21-4.64-7.5-14.53-6.63-19.92.49-3.05,1.8-4.54,4.62-5.28l1.27-.33.06-4.48a35.49,35.49,0,0,1,2.09-12.6,38.23,38.23,0,0,1,27.19-24.3,37,37,0,0,1,24.62,2.87A37.41,37.41,0,0,1,109,59.74L109,63.6l1.26.17a4.93,4.93,0,0,1,3.58,2C117.17,69.64,114.46,81.8,108.66,88.85Z"/><path class="cls-2" d="M110.79,68c-.88-1.18-1.74-1.27-2.68-.27a2.29,2.29,0,0,1-1.67.8v6.6c0,9.94-7.23,10.71-9.44,10.71H79.78L74.5,79.25a3.55,3.55,0,0,0-2.64-1.15,4.13,4.13,0,0,0-2.93,1.25l-5.72,6.51H46c-2.21,0-9.44-.77-9.44-10.71v-6.5c-.47,0-1-.28-1.78-.94A4.27,4.27,0,0,0,33.66,67c-.69,0-1.68,1.16-2,2.32-1.16,4.31,2.75,15,6.73,18.46a2,2,0,0,0,2.75.23,1.84,1.84,0,0,1,2.51.09,12,12,0,0,1,1.18,3.24c2.41,9.43,5,14.39,10.6,20,3.33,3.34,6.38,5.19,9.5,5.75a66,66,0,0,0,7.37.19c4.9-.07,6.06-.19,7.62-.76C87.85,113.58,95.37,103.3,98,91.72A18,18,0,0,1,99.13,88c.49-.6,1.53-.58,3,0s1.89.39,3.72-1.69c1.65-1.87,3.9-6.45,4.85-9.89S111.71,69.26,110.79,68Z"/><path class="cls-2" d="M46,53H95.73a10.38,10.38,0,0,1,9.42,5.38,32.89,32.89,0,0,0-3.81-15.11,34.88,34.88,0,0,0-21.5-17.09c-2.41-.66-3.41-.74-8.67-.72-5.49,0-6.15.09-8.75.89a34.9,34.9,0,0,0-19.11,14,29.48,29.48,0,0,0-5.36,17v.11C40.16,53.39,44.4,53,46,53Z"/><path class="cls-2" d="M97,83H81.18l-4.51-5.64a6.45,6.45,0,0,0-4.81-2.12,7,7,0,0,0-5.09,2.21L61.89,83H46c-3,0-6.54-1.36-6.54-7.81V63.68c0-6.46,3.56-7.81,6.54-7.81H95.73a7.47,7.47,0,0,1,7.8,7.81V75.15C103.53,81.6,100,83,97,83ZM82.56,80.09H97c1.9,0,3.67-.6,3.67-4.94V63.68a4.58,4.58,0,0,0-4.94-4.94H46c-1.91,0-3.67.59-3.67,4.94V75.15c0,4.34,1.76,4.94,3.67,4.94H60.6l4.05-4.61a9.9,9.9,0,0,1,7.21-3.15,9.28,9.28,0,0,1,7,3.14Z"/></g></g></svg>