<svg xmlns="http://www.w3.org/2000/svg" viewBox="0 0 143.01 143.01"><defs><style>.cls-1,.cls-3{fill:#fff;}.cls-2{fill:#006db2;}.cls-2,.cls-3{fill-rule:evenodd;}</style></defs><title>Recurso-8</title><g id="Capa_2" data-name="Capa 2"><g id="Capa_1-2" data-name="Capa 1"><path class="cls-1" d="M143,71.51A71.51,71.51,0,1,1,71.5,0,71.5,71.5,0,0,1,143,71.51Z"/><path class="cls-2" d="M135.56,71.5a64.06,64.06,0,1,1-64-64A64.06,64.06,0,0,1,135.56,71.5"/><path class="cls-3" d="M50.49,121,31.76,68.25a2.8,2.8,0,0,1-.43-1.34,3.7,3.7,0,0,1,7-1.58l5,13.06a1,1,0,0,0,.89.51c.46,0,.65-.51.65-1v-.18l-6.7-17.85c0-.42-.23-.66-.23-1.13a2.94,2.94,0,0,1,2.93-2.87,2.42,2.42,0,0,1,2.46,1.76L49.6,72.76c.24.24.43.24.89.24s.88-.24.88-.65a.84.84,0,0,0-.18-.47l-6.56-16a10,10,0,0,1-.23-1.17A3.43,3.43,0,0,1,51,53.38l6.56,15.76c.18.23.42.51.65.51a.81.81,0,0,0,.89-.74c0-.2,0-.2-.19-.2L54.07,56.54v-.88a3,3,0,0,1,2.74-2.93,2.89,2.89,0,0,1,2.7,1.81l23.47,55A154.52,154.52,0,0,0,50.49,121"/><path class="cls-3" d="M78.43,92.29c2.28-.65,14.36-4.51,18.92-5.2-1.12-5.59-2.28-11-3.21-16.69-.88-6.28-2-12.6-2.46-18.92-.42-5.62-.42-11.25-.42-17.11v-5a2.81,2.81,0,0,0-2.69-2.93,3,3,0,0,0-3,2.93V37.3A1.74,1.74,0,0,1,84,38.88a2,2,0,0,1-1.58-1.58l.23-13.11a3,3,0,0,0-2.93-2.93,2.87,2.87,0,0,0-2.93,2.93v14a1.58,1.58,0,1,1-3.16,0V26.46a2.73,2.73,0,0,0-2.7-2.74,2.64,2.64,0,0,0-2.74,2.74L68,43.62a1.56,1.56,0,0,1-1.58,1.58,1.53,1.53,0,0,1-1.58-1.58V30.05a2,2,0,0,0-2.23-2,2.25,2.25,0,0,0-2.29,2l-.18,21.8a4.81,4.81,0,0,0-3-1.35l.24-20.45a5.49,5.49,0,0,1,5.21-5.21,6.64,6.64,0,0,1,2.23.51,6.29,6.29,0,0,1,6.08-5,5.75,5.75,0,0,1,3.4,1.13,5.8,5.8,0,0,1,5.39-3.17,5.69,5.69,0,0,1,5.86,5.86,6.8,6.8,0,0,1,3-.65,5.68,5.68,0,0,1,5.81,5.85v3.17c0,15.76.23,16.69.46,18.68a229.69,229.69,0,0,0,6.32,38.35c-4.69.7-18.18,4.52-21.39,5.67"/><path class="cls-3" d="M73.59,82.34l-2.37-5.67,2.33-12.23a4.22,4.22,0,0,0,.28-1.58c0-3.57-2.61-5.67-4.6-5.67-1.17,0-2.1.14-3,2.18l-.79,2.56-1.54-3.86L63.79,58c1.39-2.93,3.44-4,5.67-3.95,3.62,0,7.39,3.49,7.29,8.88a8.86,8.86,0,0,1-.27,2.74"/></g></g></svg>