<svg xmlns="http://www.w3.org/2000/svg" viewBox="0 0 143.01 143.01"><defs><style>.cls-1{fill:#fff;}.cls-2{fill:#006db2;}</style></defs><title>Recurso-7</title><g id="Capa_2" data-name="Capa 2"><g id="Capa_1-2" data-name="Capa 1"><path class="cls-1" d="M143,71.51A71.51,71.51,0,1,1,71.5,0,71.5,71.5,0,0,1,143,71.51Z"/><path class="cls-2" d="M66,135.51a12.73,12.73,0,0,0-2.16-.33c-11.06-1.14-24-6.63-33-14a88.93,88.93,0,0,1-10.16-10.42,66.08,66.08,0,0,1-13-31.61,118.47,118.47,0,0,1,0-15C8.83,52.86,14.28,40,21.74,30.87A89.73,89.73,0,0,1,32.16,20.71c9.25-7,21.23-11.93,32-13a116.75,116.75,0,0,1,14.73,0,66.43,66.43,0,0,1,33,14,85.94,85.94,0,0,1,10.32,10.52,67.86,67.86,0,0,1,10.2,19.29,78.21,78.21,0,0,1,2.77,12,114.19,114.19,0,0,1,.13,15.08,66.4,66.4,0,0,1-13.1,32.25A86.67,86.67,0,0,1,112,121.29a65.71,65.71,0,0,1-12.36,7.82c-6,2.94-11.37,4.59-19.75,6.06C78.61,135.39,66.21,135.69,66,135.51ZM55.71,106.66a10.6,10.6,0,0,0,.44-3.29c.1-2.84.11-2.87.94-3,1-.12,4,1.17,8,3.55,5.7,3.36,4.2,3.15,21.92,3l15.47-.08,0-1.89a4.22,4.22,0,0,0-.41-2.11c-.22-.13-.4-1.42-.45-3.24-.1-3.69-.68-5.06-2.77-6.58-1.44-1-4.62-2.1-7.73-2.55a30.24,30.24,0,0,1-6.58-1.69,21.23,21.23,0,0,1-3.21-2.61c-2.18-2-4.45-3.91-10.73-8.76a33.94,33.94,0,0,1-4-3.57l-1-1.24V68.14c0-2.5.15-8.08.31-12.4s.31-10.1.31-12.84l0-5-16.47-.09c-15-.07-16.48,0-16.66.44s.21,7.16,1.26,21.47c.68,9.17.55,11.38-1,17.48-1.77,7.09-2.08,9.11-1.95,12.44a9.84,9.84,0,0,0,.84,4.27c.61,1.24.77,2.33,1,7a55.64,55.64,0,0,0,.5,5.83c.1.17,4.74.3,10.88.3C53.06,107.08,55.44,107,55.71,106.66ZM74.87,104l-2-.62c-.92-.29-3.52-1.4-5.77-2.46-7.28-3.47-5.54-3.18-19.18-3.18-11.84,0-12,0-12.38-.66-.87-1.63-1-1.62,12.93-1.52l12.93.1,5.15,2.47c8.19,3.94,6.3,3.59,20.18,3.78,10.74.15,12.21.22,12.5.68a1.32,1.32,0,0,1,.12,1c-.18.48-1.37.53-12.17.5C80.58,104.15,75.05,104.09,74.87,104Zm21.52-5.79A13,13,0,0,0,92.54,96c-2.76-1.06-3.06-1.27-3.06-2.19,0-2.65,6.12-2,9.34,1,1.93,1.81,2.4,3.41,1.26,4.33S98.14,99.8,96.39,98.24Zm16.69,3.8c.33-1.11.32-1.46,0-2s-.36-.88.07-2.33a12.2,12.2,0,0,0,.39-4A5.53,5.53,0,0,0,112.43,90c-1.23-1.74-3.69-3.36-7.7-5.09-4.84-2.07-5.39-2.54-8.78-7.39-1.66-2.38-4.58-6.36-6.49-8.85-3.91-5.1-4.8-6.59-4.8-8,0-.54,1.89-8,4.19-16.52s4.14-15.75,4.09-16c-.09-.47-.61-.62-7.48-2.23l-6.9-1.62c-15.13-3.55-17.07-4-17.33-3.7-.49.49-2.66,13-2.32,13.35a1.48,1.48,0,0,0,1.07.2c.7-.09.82-.41,1.49-3.79.4-2,.88-4.47,1.07-5.42l.35-1.72,1.17.19c.65.1,2.4.48,3.91.84l5.45,1.29c11.21,2.62,16.19,3.86,16.45,4.12s-1.2,5.88-3.63,14.86C82.48,58.49,82,60.84,82.52,62.87a71.5,71.5,0,0,0,5.25,7.54c2.77,3.67,5.88,8,6.93,9.55,2.93,4.47,3.76,5.18,8.12,6.91,3.9,1.55,5.38,2.41,6.82,4,1.29,1.4,1.35,1.55,1.34,3.48a10.29,10.29,0,0,1-.73,3.77l-.72,1.77h-1.92c-1.77,0-1.93,0-2,.76a1.45,1.45,0,0,0,.25,1.12,26.36,26.36,0,0,0,6.4,1.7C112.49,103.41,112.86,102.78,113.08,102Z"/></g></g></svg>