<svg xmlns="http://www.w3.org/2000/svg" viewBox="0 0 143.01 143.01"><defs><style>.cls-1,.cls-3{fill:#fff;}.cls-2{fill:#006db2;}.cls-2,.cls-3{fill-rule:evenodd;}</style></defs><title>Recurso-9</title><g id="Capa_2" data-name="Capa 2"><g id="Capa_1-2" data-name="Capa 1"><path class="cls-1" d="M143,71.51A71.51,71.51,0,1,1,71.5,0,71.51,71.51,0,0,1,143,71.51Z"/><path class="cls-2" d="M135.56,71.53A64.06,64.06,0,1,1,71.5,7.45a64.06,64.06,0,0,1,64.06,64.08"/><path class="cls-3" d="M92.1,119.15,83,61.19A11,11,0,0,0,83,60l1-22.53h0L93.68,65.1l8.09-2.2c0-.12-.14-.27-.19-.41h0L90.24,29.34A7.22,7.22,0,0,0,83,23.86H77.87a3.64,3.64,0,0,0-3.53-3.76H72.67V61.7H70.44V20.1H68.72a3.64,3.64,0,0,0-3.53,3.76H60a7.21,7.21,0,0,0-7.16,5.45l-11.35,33a1.58,1.58,0,0,0-.23.47L49.38,65l9.39-27.14,1.77,22.77s-7.95,49-9.49,58.44l10.37,1.81.79,0,9.53-48.38,9.11,48.57M75.73,35.25h5.82v2.51H75.73Z"/></g></g></svg>