<svg xmlns="http://www.w3.org/2000/svg" viewBox="0 0 143.01 143.01"><defs><style>.cls-1{fill:#fff;}.cls-2{fill:#006db2;}</style></defs><title>Recurso-6</title><g id="Capa_2" data-name="Capa 2"><g id="Capa_1-2" data-name="Capa 1"><path class="cls-1" d="M143,71.51A71.51,71.51,0,1,1,71.51,0,71.5,71.5,0,0,1,143,71.51Z"/><path class="cls-2" d="M66,135.5a12.71,12.71,0,0,0-2-.31,64.62,64.62,0,0,1-27.63-10.07A58,58,0,0,1,25.4,116,63.52,63.52,0,0,1,7.7,79.16a118.68,118.68,0,0,1,0-15c1.1-10.76,6-22.84,13.05-32A81.71,81.71,0,0,1,31.37,21.4,65.43,65.43,0,0,1,64.19,7.68a116.74,116.74,0,0,1,14.73,0,65.5,65.5,0,0,1,33.52,14.41A64.08,64.08,0,0,1,133.26,54a85.5,85.5,0,0,1,2,9.46,114.19,114.19,0,0,1,.13,15.08,66.27,66.27,0,0,1-13.1,32.25A84.54,84.54,0,0,1,112,121.28c-9.11,7.36-19,11.63-32.1,13.89C78.59,135.38,66.21,135.68,66,135.5ZM76.85,121a18.38,18.38,0,0,0,8.74-3.14c6.62-4.31,12.42-12.55,15.17-21.54.53-1.76,1.08-3.42,1.22-3.69a2.62,2.62,0,0,1,1.66-.65,7.73,7.73,0,0,0,5-3.13c5.8-7,8.5-19.21,5.13-23a5,5,0,0,0-3.59-2L109,63.59l.07-3.85A37.4,37.4,0,0,0,87.71,25.06,36.93,36.93,0,0,0,63.1,22.19a38.21,38.21,0,0,0-27.19,24.3,35.67,35.67,0,0,0-2.1,12.6l-.05,4.48-1.28.33c-2.82.74-4.13,2.23-4.62,5.28C27,74.57,30.29,84.46,34.49,89.1c2,2.26,2.54,2.56,4.88,3l1.74.36,1.18,3.93A39.37,39.37,0,0,0,52.7,114c4.9,4.87,8.4,6.6,14.46,7.18A32,32,0,0,0,76.85,121Zm-11.92-4c-3.11-.56-6.17-2.41-9.5-5.75-5.56-5.59-8.19-10.54-10.59-20a11.91,11.91,0,0,0-1.19-3.24A1.84,1.84,0,0,0,41.14,88a2,2,0,0,1-2.74-.23c-4-3.45-7.89-14.15-6.73-18.46C32,68.12,33,67,33.66,67a4.27,4.27,0,0,1,1.13.75c1.37,1.13,1.9,1.22,2.85.47.74-.58.84-.86.69-1.91-.09-.68,0-1.32.14-1.41A7.68,7.68,0,0,1,41.14,66,8.17,8.17,0,0,0,43.7,67c.42-.42.16-2.25-.39-2.75a22.57,22.57,0,0,0-3-1.75L38,61.32v-4a29.48,29.48,0,0,1,5.36-17,34.84,34.84,0,0,1,19.1-14c2.61-.8,3.26-.87,8.76-.89,5.25,0,6.25.07,8.67.72a34.93,34.93,0,0,1,21.5,17.09,32.63,32.63,0,0,1,3.8,15.7l-.1,2.4-2.32,1.15c-3.1,1.54-3.62,2-3.62,3.56a2.77,2.77,0,0,0,.14,1.23c.07,0,1.21-.57,2.51-1.28a7.26,7.26,0,0,1,2.6-1.07,3.35,3.35,0,0,1,.21,1.4c0,2.16,2.07,3,3.55,1.42.94-1,1.79-.91,2.68.27s.87,4.9-.09,8.39-3.21,8-4.86,9.89c-1.83,2.08-2.29,2.29-3.72,1.68s-2.51-.62-3,0A18.9,18.9,0,0,0,98,91.72c-2.63,11.58-10.15,21.86-18.07,24.73-1.57.57-2.73.68-7.63.76A66.14,66.14,0,0,1,64.93,117Zm-3-31.35a9.94,9.94,0,0,0,5.17-6c.42-1.43.34-14.94-.1-15.47-.28-.33-2.06-.42-8.26-.4-9.29,0-12.78.28-13.25,1-.21.3-.26,3-.13,7.5.16,5.82.29,7.26.78,8.36a10.29,10.29,0,0,0,6.24,5.5C54.37,86.76,60,86.51,61.89,85.67Zm-8.84-1.94a10.7,10.7,0,0,1-3.61-2.37c-1.4-1.52-1.64-2.7-1.75-8.77l-.11-5.75,1.13-.29c1.21-.31,15.6-.46,15.89-.17s.56,10.7.2,12a7.7,7.7,0,0,1-4,4.8,8.27,8.27,0,0,1-4.4.74A25.58,25.58,0,0,1,53.05,83.73Zm7.09-1.66a6.19,6.19,0,0,0,3.35-4.31c.48-1.9.24-9.39-.32-9.94s-12.35-.44-13.62.07l-.91.37L48.86,73a44.1,44.1,0,0,0,.51,5.72,7,7,0,0,0,3.51,3.47A12.31,12.31,0,0,0,60.14,82.07Zm32,3.4a11.54,11.54,0,0,0,3.11-2.35c2.07-2.35,2.3-3.5,2.31-11.5,0-3.84-.07-7.05-.16-7.15-.62-.6-21.14-1.06-21.5-.47-.08.14-.2,3.5-.26,7.46-.12,7.88,0,8.62,1.73,11.16,2,2.85,4.75,3.95,9.72,3.83C89.85,86.37,90.55,86.24,92.12,85.47Zm-8.9-1.78A7.51,7.51,0,0,1,78.4,79c-.47-1.21-.53-2.3-.43-6.89a38.36,38.36,0,0,1,.37-5.7c.34-.33,14.54-.22,16,.13l1.12.28-.11,5.75c-.07,3.67-.25,6.11-.51,6.72a8.07,8.07,0,0,1-3.75,3.87c-1.32.67-2,.79-4.37.75A19.47,19.47,0,0,1,83.22,83.69ZM90.44,82A8.77,8.77,0,0,0,92.82,80c1-1.19,1-1.29,1.23-6.38.18-3.35.16-5.28,0-5.49-.51-.51-6.63-.93-10.47-.73-2.77.15-3.62.31-3.93.73-.62.83-.55,9.08.09,10.61,1.14,2.72,3.23,3.9,6.9,3.92A7.15,7.15,0,0,0,90.44,82ZM44.1,75.41c-.12-1.88-.21-4-.21-4.78,0-1.27-.11-1.43-1.51-2.36-.93-.62-1.61-.88-1.81-.69s.85,7.75,1.45,9.33c.41,1.06,1.21,1.92,1.81,1.92C44.24,78.83,44.28,78.33,44.1,75.41Zm56.11,2.81a7.24,7.24,0,0,0,1-2.33c.74-2.86,1.48-8,1.19-8.34-.16-.15-.92.15-1.73.69l-1.47,1L99,71.66c-.12,1.35-.21,3.52-.21,4.82C98.79,79,99.13,79.42,100.21,78.22Zm-25.9-7.64c.07-.21-.24-.75-.69-1.2a3.19,3.19,0,0,0-4.24-.06c-.59.5-.81.93-.67,1.29s.61.54,2.84.46C73.26,71,74.22,70.83,74.31,70.58Zm-.06-3.33c.12-.19-.07-.73-.42-1.2-1-1.37-4.19-1.38-4.91,0s-.2,1.57,2.55,1.57A6,6,0,0,0,74.25,67.25ZM49.43,62.62a5.47,5.47,0,0,0,2.16-.43c0-.27-10.24-1.46-10.49-1.22-.09.1.54.62,1.39,1.16a3.89,3.89,0,0,0,3.16.83Zm50.83-.34c1.87-1.1,1.83-1.55-.11-1.31-.83.11-3.07.36-5,.57a12.68,12.68,0,0,0-3.45.63,5.11,5.11,0,0,0,2.16.45c1.2.11,2.46.25,2.81.31A4.35,4.35,0,0,0,100.26,62.28Z"/></g></g></svg>