<svg xmlns="http://www.w3.org/2000/svg" xmlns:xlink="http://www.w3.org/1999/xlink" viewBox="0 0 747.59 708.27"><defs><style>.cls-1{isolation:isolate;}.cls-2{fill:url(#radial-gradient);}.cls-3{fill:url(#radial-gradient-2);}.cls-4{fill:#fff;}.cls-5{fill:url(#radial-gradient-3);}.cls-6{fill:#edeef0;}.cls-7{font-size:42.54px;}.cls-11,.cls-34,.cls-54,.cls-7,.cls-8{fill:#5b5b5f;}.cls-34,.cls-7{font-family:Antonio-Regular, Antonio Regular;}.cls-8{font-size:26.26px;letter-spacing:0.1em;}.cls-11,.cls-12,.cls-35,.cls-54,.cls-59,.cls-66,.cls-72,.cls-77,.cls-8,.cls-82,.cls-87{font-family:Antonio-Light, Antonio Light;font-weight:300;}.cls-9{letter-spacing:0.1em;}.cls-10{letter-spacing:0.1em;}.cls-11{font-size:16.65px;}.cls-12{font-size:7.13px;}.cls-12,.cls-35{fill:#87868a;}.cls-13{letter-spacing:0em;}.cls-14{letter-spacing:-0.01em;}.cls-15{letter-spacing:0em;}.cls-16{letter-spacing:0em;}.cls-17{letter-spacing:0.03em;}.cls-18{letter-spacing:-0.01em;}.cls-19{letter-spacing:0em;}.cls-20{letter-spacing:-0.01em;}.cls-21{letter-spacing:0em;}.cls-22{letter-spacing:-0.01em;}.cls-23{letter-spacing:0em;}.cls-24{fill:#828282;}.cls-25,.cls-30,.cls-31,.cls-88{opacity:0.6;}.cls-25,.cls-28,.cls-30,.cls-31,.cls-48,.cls-88{mix-blend-mode:multiply;}.cls-25{fill:url(#radial-gradient-4);}.cls-26,.cls-71,.cls-72{fill:#07a9f0;}.cls-27{fill:url(#linear-gradient);}.cls-28{fill:url(#radial-gradient-5);}.cls-29{fill:url(#linear-gradient-2);}.cls-30{fill:url(#radial-gradient-6);}.cls-31{fill:url(#radial-gradient-7);}.cls-32{fill:#ffb655;}.cls-33{fill:#7af4ab;}.cls-34{font-size:27.56px;}.cls-35{font-size:8.06px;}.cls-36{letter-spacing:0em;}.cls-37{letter-spacing:-0.01em;}.cls-38{letter-spacing:0em;}.cls-39{letter-spacing:0.03em;}.cls-40{letter-spacing:-0.01em;}.cls-41{letter-spacing:0em;}.cls-42{letter-spacing:-0.01em;}.cls-43{letter-spacing:0em;}.cls-44{letter-spacing:-0.01em;}.cls-45{letter-spacing:-0.01em;}.cls-46{letter-spacing:0em;}.cls-47,.cls-76,.cls-77{fill:#8078bf;}.cls-48{fill:url(#radial-gradient-8);}.cls-49{fill:#ff3c7d;}.cls-50{fill:url(#radial-gradient-9);}.cls-51{fill:url(#radial-gradient-10);}.cls-52{fill:url(#radial-gradient-11);}.cls-53{fill:#d8d9dd;}.cls-54{font-size:11.69px;}.cls-55{letter-spacing:-0.04em;}.cls-56{letter-spacing:-0.04em;}.cls-57{letter-spacing:0.01em;}.cls-58,.cls-65,.cls-71,.cls-76,.cls-81,.cls-86{font-size:36.51px;font-family:Antonio-Bold, Antonio Bold;font-weight:700;}.cls-58,.cls-59{fill:#ff9100;}.cls-59,.cls-66,.cls-72,.cls-77,.cls-82,.cls-87{font-size:15.51px;}.cls-60{fill:url(#radial-gradient-12);}.cls-61{fill:url(#radial-gradient-13);}.cls-62{fill:url(#radial-gradient-14);}.cls-63{letter-spacing:0.01em;}.cls-64{letter-spacing:0em;}.cls-65,.cls-66{fill:#20b7a1;}.cls-67{fill:url(#radial-gradient-15);}.cls-68{fill:url(#radial-gradient-16);}.cls-69{fill:url(#radial-gradient-17);}.cls-70{letter-spacing:-0.04em;}.cls-73{fill:url(#radial-gradient-18);}.cls-74{fill:url(#radial-gradient-19);}.cls-75{fill:url(#radial-gradient-20);}.cls-78{fill:url(#radial-gradient-21);}.cls-79{fill:url(#radial-gradient-22);}.cls-80{fill:url(#radial-gradient-23);}.cls-81,.cls-82{fill:#636363;}.cls-83{fill:url(#radial-gradient-24);}.cls-84{fill:url(#radial-gradient-25);}.cls-85{fill:url(#radial-gradient-26);}.cls-86,.cls-87{fill:#c50048;}.cls-88{fill:url(#radial-gradient-27);}</style><radialGradient id="radial-gradient" cx="245.98" cy="202.74" r="441.31" gradientUnits="userSpaceOnUse"><stop offset="0.04" stop-color="#d8d9dd"/><stop offset="0.55" stop-color="#edeef0"/><stop offset="1" stop-color="#f7f7f8"/></radialGradient><radialGradient id="radial-gradient-2" cx="371.47" cy="334.85" r="182.9" gradientUnits="userSpaceOnUse"><stop offset="0" stop-color="#828282"/><stop offset="0.3" stop-color="#848484" stop-opacity="0.98"/><stop offset="0.47" stop-color="#8b8b8b" stop-opacity="0.92"/><stop offset="0.6" stop-color="#969697" stop-opacity="0.81"/><stop offset="0.72" stop-color="#a6a6a7" stop-opacity="0.66"/><stop offset="0.83" stop-color="#bbbcbd" stop-opacity="0.47"/><stop offset="0.92" stop-color="#d4d5d7" stop-opacity="0.23"/><stop offset="1" stop-color="#edeef0" stop-opacity="0"/></radialGradient><radialGradient id="radial-gradient-3" cx="276.19" cy="237.01" r="336.99" gradientUnits="userSpaceOnUse"><stop offset="0" stop-color="#f7f7f8"/><stop offset="0.51" stop-color="#fbfbfb"/><stop offset="0.72" stop-color="#fff"/></radialGradient><radialGradient id="radial-gradient-4" cx="508.05" cy="480.53" r="26.51" gradientUnits="userSpaceOnUse"><stop offset="0" stop-color="#464646"/><stop offset="0.32" stop-color="#787878" stop-opacity="0.73"/><stop offset="0.98" stop-color="#fafafa" stop-opacity="0.02"/><stop offset="1" stop-color="#fff" stop-opacity="0"/></radialGradient><linearGradient id="linear-gradient" x1="567.87" y1="447.85" x2="450.79" y2="245.07" gradientUnits="userSpaceOnUse"><stop offset="0" stop-color="#828282"/><stop offset="0.5" stop-color="#07a9f0"/><stop offset="1" stop-color="#8078bf"/></linearGradient><radialGradient id="radial-gradient-5" cx="563.09" cy="352.1" r="26.51" xlink:href="#radial-gradient-4"/><linearGradient id="linear-gradient-2" x1="295.62" y1="449.61" x2="179.33" y2="248.19" gradientUnits="userSpaceOnUse"><stop offset="0" stop-color="#a1ffbc"/><stop offset="0.5" stop-color="#ff3c7d"/><stop offset="1" stop-color="#ffb655"/></linearGradient><radialGradient id="radial-gradient-6" cx="507.84" cy="216.2" r="26.51" xlink:href="#radial-gradient-4"/><radialGradient id="radial-gradient-7" cx="244.82" cy="217.49" r="26.51" xlink:href="#radial-gradient-4"/><radialGradient id="radial-gradient-8" cx="189.92" cy="352.1" r="26.51" xlink:href="#radial-gradient-4"/><radialGradient id="radial-gradient-9" cx="99.82" cy="65.53" r="213.24" gradientUnits="userSpaceOnUse"><stop offset="0.04" stop-color="#ff9100"/><stop offset="0.57" stop-color="#ffb655"/><stop offset="1" stop-color="#fff04a"/></radialGradient><radialGradient id="radial-gradient-10" cx="160.45" cy="129.36" r="88.38" gradientUnits="userSpaceOnUse"><stop offset="0" stop-color="#ff9100"/><stop offset="0.25" stop-color="#ff9101" stop-opacity="0.99"/><stop offset="0.38" stop-color="#ff9303" stop-opacity="0.96"/><stop offset="0.49" stop-color="#ff9508" stop-opacity="0.9"/><stop offset="0.59" stop-color="#ff970f" stop-opacity="0.83"/><stop offset="0.68" stop-color="#ff9b17" stop-opacity="0.73"/><stop offset="0.76" stop-color="#ffa022" stop-opacity="0.6"/><stop offset="0.83" stop-color="#ffa52e" stop-opacity="0.46"/><stop offset="0.9" stop-color="#ffab3c" stop-opacity="0.29"/><stop offset="0.97" stop-color="#ffb24c" stop-opacity="0.1"/><stop offset="1" stop-color="#ffb655" stop-opacity="0"/></radialGradient><radialGradient id="radial-gradient-11" cx="114.41" cy="82.09" r="162.83" xlink:href="#radial-gradient-3"/><radialGradient id="radial-gradient-12" cx="99.1" cy="490.28" r="213.24" gradientUnits="userSpaceOnUse"><stop offset="0.04" stop-color="#199a8e"/><stop offset="0.55" stop-color="#7af4ab"/><stop offset="1" stop-color="#f1ff8d"/></radialGradient><radialGradient id="radial-gradient-13" cx="159.73" cy="554.11" r="88.38" gradientUnits="userSpaceOnUse"><stop offset="0" stop-color="#199a8e"/><stop offset="0.29" stop-color="#1b9c8f" stop-opacity="0.98"/><stop offset="0.45" stop-color="#22a191" stop-opacity="0.93"/><stop offset="0.57" stop-color="#2eaa95" stop-opacity="0.84"/><stop offset="0.69" stop-color="#40b79b" stop-opacity="0.71"/><stop offset="0.79" stop-color="#56c7a3" stop-opacity="0.55"/><stop offset="0.88" stop-color="#72dcac" stop-opacity="0.35"/><stop offset="0.97" stop-color="#92f4b7" stop-opacity="0.11"/><stop offset="1" stop-color="#a1ffbc" stop-opacity="0"/></radialGradient><radialGradient id="radial-gradient-14" cx="113.7" cy="506.84" r="162.83" xlink:href="#radial-gradient-3"/><radialGradient id="radial-gradient-15" cx="612.98" cy="277.67" r="213.24" gradientUnits="userSpaceOnUse"><stop offset="0.04" stop-color="#0956c6"/><stop offset="0.55" stop-color="#07a9f0"/><stop offset="1" stop-color="#93dcfc"/></radialGradient><radialGradient id="radial-gradient-16" cx="673.61" cy="341.5" r="88.38" gradientUnits="userSpaceOnUse"><stop offset="0" stop-color="#0956c6"/><stop offset="0.27" stop-color="#0b58c7" stop-opacity="0.99"/><stop offset="0.41" stop-color="#105dc9" stop-opacity="0.95"/><stop offset="0.53" stop-color="#1a66cd" stop-opacity="0.88"/><stop offset="0.64" stop-color="#2874d2" stop-opacity="0.78"/><stop offset="0.73" stop-color="#3985d9" stop-opacity="0.65"/><stop offset="0.82" stop-color="#4f9ae1" stop-opacity="0.49"/><stop offset="0.9" stop-color="#69b3ec" stop-opacity="0.3"/><stop offset="0.97" stop-color="#86d0f7" stop-opacity="0.09"/><stop offset="1" stop-color="#93dcfc" stop-opacity="0"/></radialGradient><radialGradient id="radial-gradient-17" cx="627.58" cy="294.23" r="162.83" xlink:href="#radial-gradient-3"/><radialGradient id="radial-gradient-18" cx="524.43" cy="64.74" r="213.24" gradientUnits="userSpaceOnUse"><stop offset="0.04" stop-color="#2b3894"/><stop offset="0.05" stop-color="#363d96"/><stop offset="0.08" stop-color="#51489a"/><stop offset="0.55" stop-color="#8078bf"/><stop offset="1" stop-color="#d2a8d1"/></radialGradient><radialGradient id="radial-gradient-19" cx="585.06" cy="128.57" r="88.38" gradientUnits="userSpaceOnUse"><stop offset="0" stop-color="#2b3894"/><stop offset="0.29" stop-color="#2e3a95" stop-opacity="0.98"/><stop offset="0.45" stop-color="#374098" stop-opacity="0.93"/><stop offset="0.58" stop-color="#464a9e" stop-opacity="0.84"/><stop offset="0.69" stop-color="#5d59a6" stop-opacity="0.7"/><stop offset="0.8" stop-color="#796cb1" stop-opacity="0.53"/><stop offset="0.89" stop-color="#9d84bd" stop-opacity="0.32"/><stop offset="0.98" stop-color="#c6a0cc" stop-opacity="0.07"/><stop offset="1" stop-color="#d2a8d1" stop-opacity="0"/></radialGradient><radialGradient id="radial-gradient-20" cx="539.02" cy="81.3" r="162.83" xlink:href="#radial-gradient-3"/><radialGradient id="radial-gradient-21" cx="525.93" cy="491.06" r="213.24" gradientUnits="userSpaceOnUse"><stop offset="0.04" stop-color="#282828"/><stop offset="0.14" stop-color="#333"/><stop offset="0.31" stop-color="#505050"/><stop offset="0.54" stop-color="#7f7f7f"/><stop offset="0.55" stop-color="#828282"/><stop offset="1" stop-color="#b9b9be"/></radialGradient><radialGradient id="radial-gradient-22" cx="586.56" cy="554.89" r="88.38" gradientUnits="userSpaceOnUse"><stop offset="0" stop-color="#282828"/><stop offset="0.43" stop-color="#313131" stop-opacity="0.94"/><stop offset="0.67" stop-color="#4e4e4f" stop-opacity="0.74"/><stop offset="0.86" stop-color="#808083" stop-opacity="0.39"/><stop offset="1" stop-color="#b9b9be" stop-opacity="0"/></radialGradient><radialGradient id="radial-gradient-23" cx="540.53" cy="507.62" r="162.83" xlink:href="#radial-gradient-3"/><radialGradient id="radial-gradient-24" cx="11.09" cy="277.67" r="213.24" gradientUnits="userSpaceOnUse"><stop offset="0.04" stop-color="#b40042"/><stop offset="0.49" stop-color="#c50048"/><stop offset="1" stop-color="#ff5e93"/></radialGradient><radialGradient id="radial-gradient-25" cx="71.72" cy="341.5" r="88.38" gradientUnits="userSpaceOnUse"><stop offset="0" stop-color="#920035"/><stop offset="0.29" stop-color="#940237" stop-opacity="0.98"/><stop offset="0.45" stop-color="#9a073c" stop-opacity="0.93"/><stop offset="0.58" stop-color="#a41045" stop-opacity="0.83"/><stop offset="0.7" stop-color="#b31c51" stop-opacity="0.7"/><stop offset="0.8" stop-color="#c62d62" stop-opacity="0.53"/><stop offset="0.89" stop-color="#dd4176" stop-opacity="0.31"/><stop offset="0.98" stop-color="#f8588d" stop-opacity="0.06"/><stop offset="1" stop-color="#ff5e93" stop-opacity="0"/></radialGradient><radialGradient id="radial-gradient-26" cx="25.69" cy="294.23" r="162.83" xlink:href="#radial-gradient-3"/><radialGradient id="radial-gradient-27" cx="244.49" cy="480.82" r="26.51" xlink:href="#radial-gradient-4"/></defs><title>infograma3</title><g class="cls-1"><g id="Capa_2" data-name="Capa 2"><g id="OBJECTS"><path class="cls-2" d="M524.56,345.6a152.13,152.13,0,0,0-38.35-101.2A152.71,152.71,0,0,0,261.39,451,152.71,152.71,0,0,0,524.56,345.6Z"/><path class="cls-3" d="M288,426.62l71.16,71.16q6.28.53,12.73.53A152.72,152.72,0,0,0,524.56,345.6q0-3.63-.17-7.23l-51.81-51.8Z"/><path class="cls-4" d="M488.91,346.1a116.61,116.61,0,1,1-116.6-116.61A116.6,116.6,0,0,1,488.91,346.1Z"/><path class="cls-5" d="M488.91,346.1a115.13,115.13,0,0,0-230.24,3.25,115.13,115.13,0,0,0,230.24-3.25Z"/><path class="cls-6" d="M477.12,295A116.62,116.62,0,0,1,276.35,411.08,116.25,116.25,0,0,0,477.12,295Z"/><text class="cls-7" transform="translate(287.5 348.17)">BUSINESS</text><text class="cls-8" transform="translate(282.17 378.98)">INFOG<tspan class="cls-9" x="84.54" y="0">R</tspan><tspan class="cls-10" x="101.43" y="0">APHIC</tspan></text><text class="cls-11" transform="translate(341.76 285.14)">MODERN</text><text class="cls-12" transform="translate(334.62 406.55)">w<tspan class="cls-13" x="5.24" y="0">r</tspan><tspan x="7.6" y="0">i</tspan><tspan class="cls-14" x="9.27" y="0">t</tspan><tspan x="11.59" y="0">e wh</tspan><tspan class="cls-15" x="25.87" y="0">a</tspan><tspan class="cls-14" x="29.27" y="0">t</tspan><tspan class="cls-16" x="31.59" y="0">e</tspan><tspan class="cls-17" x="35.16" y="0">r</tspan><tspan class="cls-18" x="37.67" y="0">v</tspan><tspan class="cls-19" x="41.02" y="0">er </tspan><tspan class="cls-20" x="48.44" y="0">y</tspan><tspan class="cls-21" x="51.72" y="0">our </tspan><tspan class="cls-15" x="63.4" y="0">w</tspan><tspan x="68.62" y="0">a</tspan><tspan class="cls-15" x="72.05" y="0">n</tspan><tspan x="75.98" y="0">t</tspan><tspan x="-3.7" y="8.55">in this </tspan><tspan class="cls-22" x="15.75" y="8.55">a</tspan><tspan class="cls-20" x="19.12" y="8.55">w</tspan><tspan x="24.3" y="8.55">esome inf</tspan><tspan class="cls-20" x="53.33" y="8.55">r</tspan><tspan class="cls-21" x="55.59" y="8.55">o</tspan><tspan class="cls-14" x="59.5" y="8.55">g</tspan><tspan class="cls-23" x="63.44" y="8.55">r</tspan><tspan x="65.73" y="8.55">aphic</tspan></text><path class="cls-6" d="M373.79,165.26a182.47,182.47,0,1,1-129,53.45,181.24,181.24,0,0,1,129-53.45m0-8c-105.18,0-190.45,85.28-190.45,190.46s85.27,190.46,190.45,190.46,190.46-85.27,190.46-190.46S479,157.26,373.79,157.26Z"/><rect class="cls-24" x="529.63" y="468.27" width="6.23" height="76.91" transform="translate(-202.27 525.12) rotate(-45)"/><path class="cls-25" d="M527.7,483.31h0l-12.56-12.54h0A13,13,0,1,0,497,489.33L508.72,501h0a13,13,0,1,0,19-17.7Z"/><rect class="cls-26" x="560.59" y="347.98" width="76.91" height="6.23"/><path class="cls-27" d="M507.14,212.53l-4.94,4.95a182.68,182.68,0,0,1,0,260.48l4.94,5a189.66,189.66,0,0,0,0-270.38Z"/><path class="cls-28" d="M582.74,354.88h0l-12.57-12.55h0a13,13,0,1,0-18.09,18.56l11.68,11.68h0a13,13,0,1,0,19-17.7Z"/><path class="cls-29" d="M239.51,482l5-4.94a182.7,182.7,0,0,1,0-258.67l-5-4.95a189.69,189.69,0,0,0,0,268.56Z"/><path class="cls-30" d="M527.5,219h0l-12.57-12.54h0A13,13,0,1,0,496.84,225l11.68,11.68h0a13,13,0,1,0,19-17.7Z"/><path class="cls-31" d="M264.47,220.27h0l-12.56-12.54h0a13,13,0,1,0-18.09,18.55L245.5,238h0a13,13,0,1,0,19-17.7Z"/><rect class="cls-32" x="212.02" y="150.85" width="6.23" height="76.91" transform="translate(-70.85 207.57) rotate(-45)"/><path class="cls-32" d="M233.14,225.68a13,13,0,1,1,18.37,0A13,13,0,0,1,233.14,225.68Z"/><rect class="cls-33" x="176.35" y="503.84" width="76.91" height="6.23" transform="translate(-295.56 300.37) rotate(-45)"/><circle class="cls-26" cx="560.59" cy="351.1" r="12.99" transform="translate(-92.05 243.41) rotate(-22.69)"/><text class="cls-34" transform="translate(122.76 23.06)">TITLE 1</text><text class="cls-35" transform="translate(115.83 37.12)">w<tspan class="cls-36" x="5.93" y="0">r</tspan><tspan x="8.6" y="0">i</tspan><tspan class="cls-37" x="10.49" y="0">t</tspan><tspan x="13.1" y="0">e wh</tspan><tspan class="cls-38" x="29.26" y="0">a</tspan><tspan class="cls-37" x="33.11" y="0">t</tspan><tspan x="35.73" y="0">e</tspan><tspan class="cls-39" x="39.77" y="0">r</tspan><tspan class="cls-40" x="42.6" y="0">v</tspan><tspan class="cls-41" x="46.4" y="0">er </tspan><tspan class="cls-42" x="54.78" y="0">y</tspan><tspan class="cls-43" x="58.5" y="0">our </tspan><tspan class="cls-38" x="71.71" y="0">w</tspan><tspan x="77.6" y="0">a</tspan><tspan class="cls-38" x="81.49" y="0">n</tspan><tspan x="85.93" y="0">t</tspan><tspan x="-4.19" y="9.67">in this </tspan><tspan class="cls-44" x="17.81" y="9.67">a</tspan><tspan class="cls-42" x="21.63" y="9.67">w</tspan><tspan x="27.48" y="9.67">esome inf</tspan><tspan class="cls-40" x="60.31" y="9.67">r</tspan><tspan x="62.87" y="9.67">o</tspan><tspan class="cls-45" x="67.29" y="9.67">g</tspan><tspan class="cls-46" x="71.75" y="9.67">r</tspan><tspan x="74.35" y="9.67">aphic</tspan></text><text class="cls-34" transform="translate(547.37 23.06)">TITLE 4</text><text class="cls-35" transform="translate(540.44 37.12)">w<tspan class="cls-36" x="5.93" y="0">r</tspan><tspan x="8.6" y="0">i</tspan><tspan class="cls-37" x="10.49" y="0">t</tspan><tspan x="13.1" y="0">e wh</tspan><tspan class="cls-38" x="29.26" y="0">a</tspan><tspan class="cls-37" x="33.11" y="0">t</tspan><tspan x="35.73" y="0">e</tspan><tspan class="cls-39" x="39.77" y="0">r</tspan><tspan class="cls-40" x="42.6" y="0">v</tspan><tspan class="cls-41" x="46.4" y="0">er </tspan><tspan class="cls-42" x="54.78" y="0">y</tspan><tspan class="cls-43" x="58.5" y="0">our </tspan><tspan class="cls-38" x="71.71" y="0">w</tspan><tspan x="77.6" y="0">a</tspan><tspan class="cls-38" x="81.49" y="0">n</tspan><tspan x="85.93" y="0">t</tspan><tspan x="-4.19" y="9.67">in this </tspan><tspan class="cls-44" x="17.81" y="9.67">a</tspan><tspan class="cls-42" x="21.63" y="9.67">w</tspan><tspan x="27.48" y="9.67">esome inf</tspan><tspan class="cls-40" x="60.31" y="9.67">r</tspan><tspan x="62.87" y="9.67">o</tspan><tspan class="cls-45" x="67.29" y="9.67">g</tspan><tspan class="cls-46" x="71.75" y="9.67">r</tspan><tspan x="74.35" y="9.67">aphic</tspan></text><rect class="cls-47" x="494.09" y="184.9" width="76.91" height="6.24" transform="translate(23.03 431.64) rotate(-45)"/><path class="cls-47" d="M496.16,206a13,13,0,1,1,0,18.37A13,13,0,0,1,496.16,206Z"/><path class="cls-24" d="M514.74,470.35a13,13,0,1,1-18.37,0A13,13,0,0,1,514.74,470.35Z"/><path class="cls-48" d="M209.57,354.88h0L197,342.33h0a13,13,0,1,0-18.08,18.56l11.68,11.68h0a13,13,0,1,0,19-17.7Z"/><rect class="cls-49" x="110.52" y="347.98" width="76.91" height="6.24"/><path class="cls-49" d="M187.43,364.09a13,13,0,1,1,13-13A13,13,0,0,1,187.43,364.09Z"/><path class="cls-50" d="M234.42,134.55a73.48,73.48,0,0,0-18.53-48.89A73.78,73.78,0,0,0,107.26,185.5a73.79,73.79,0,0,0,127.16-50.95Z"/><path class="cls-51" d="M120.1,173.7l34.38,34.38q3,.25,6.15.26a73.79,73.79,0,0,0,73.79-73.79c0-1.17,0-2.33-.08-3.49l-25-25Z"/><path class="cls-4" d="M217.2,134.79a56.35,56.35,0,1,1-56.34-56.34A56.35,56.35,0,0,1,217.2,134.79Z"/><path class="cls-52" d="M217.2,134.79a56.13,56.13,0,0,0-14.15-37.33,56.34,56.34,0,1,0-42.19,93.68A56.35,56.35,0,0,0,217.2,134.79Z"/><path class="cls-53" d="M211.5,110.08a56.35,56.35,0,0,1-97,56.11,52.54,52.54,0,0,0,46.37,24.95,56.36,56.36,0,0,0,50.64-81.06Z"/><text class="cls-54" transform="translate(119.92 166.14)"><tspan class="cls-55">Y</tspan><tspan x="5.91" y="0">OUR</tspan><tspan class="cls-56" x="27.82" y="0"> </tspan><tspan x="29.82" y="0">TE</tspan><tspan class="cls-57" x="41.39" y="0">X</tspan><tspan x="48.16" y="0">T HERE</tspan></text><text class="cls-58" transform="translate(142.13 149.84)">01</text><text class="cls-59" transform="translate(145.23 112.37)">STEP</text><path class="cls-60" d="M233.7,559.3a73.48,73.48,0,0,0-18.53-48.89,73.78,73.78,0,0,0-108.63,99.84,73.79,73.79,0,0,0,127.16-51Z"/><path class="cls-61" d="M119.38,598.45l34.38,34.38q3,.25,6.15.26A73.78,73.78,0,0,0,233.7,559.3c0-1.17,0-2.33-.08-3.49l-25-25Z"/><path class="cls-4" d="M216.48,559.55a56.35,56.35,0,1,1-56.34-56.35A56.35,56.35,0,0,1,216.48,559.55Z"/><path class="cls-62" d="M216.48,559.55a56.34,56.34,0,1,0-56.34,56.34A56.14,56.14,0,0,0,216.48,559.55Z"/><path class="cls-53" d="M210.78,534.83a56.35,56.35,0,0,1-97,56.12,57.88,57.88,0,0,0,5.61,7.5,56.35,56.35,0,0,0,91.4-63.62Z"/><text class="cls-54" transform="translate(119.2 590.89)"><tspan class="cls-55">Y</tspan><tspan x="5.91" y="0">OUR</tspan><tspan class="cls-56" x="27.82" y="0"> </tspan><tspan x="29.82" y="0">TE</tspan><tspan class="cls-63" x="41.39" y="0">X</tspan><tspan class="cls-64" x="48.16" y="0">T HERE</tspan></text><text class="cls-65" transform="translate(141.41 574.59)">03</text><text class="cls-66" transform="translate(144.52 537.12)">STEP</text><path class="cls-67" d="M747.59,346.69a73.79,73.79,0,1,0-73.79,73.79A73.55,73.55,0,0,0,747.59,346.69Z"/><path class="cls-68" d="M633.26,385.84l34.39,34.39c2,.16,4.07.25,6.15.25a73.79,73.79,0,0,0,73.79-73.79c0-1.17,0-2.33-.09-3.49l-25-25Z"/><path class="cls-4" d="M730.36,346.94A56.35,56.35,0,1,1,674,290.59,56.33,56.33,0,0,1,730.36,346.94Z"/><path class="cls-69" d="M730.36,346.94A56.34,56.34,0,1,0,674,403.28,56.09,56.09,0,0,0,730.36,346.94Z"/><path class="cls-53" d="M724.67,322.23a56.35,56.35,0,0,1-97,56.11,56.17,56.17,0,0,0,97-56.11Z"/><text class="cls-54" transform="translate(633.08 378.28)"><tspan class="cls-55">Y</tspan><tspan x="5.91" y="0">OUR</tspan><tspan class="cls-70" x="27.82" y="0"> </tspan><tspan x="29.82" y="0">TE</tspan><tspan class="cls-57" x="41.39" y="0">X</tspan><tspan class="cls-64" x="48.16" y="0">T HERE</tspan></text><text class="cls-71" transform="translate(655.29 361.98)">05</text><text class="cls-72" transform="translate(658.4 324.51)">STEP</text><path class="cls-73" d="M659,133.77a73.51,73.51,0,0,0-18.53-48.9,73.79,73.79,0,0,0-108.63,99.85A73.79,73.79,0,0,0,659,133.77Z"/><path class="cls-74" d="M544.71,172.92l34.38,34.38q3,.25,6.15.25A73.78,73.78,0,0,0,659,133.77c0-1.17,0-2.34-.08-3.49l-25-25Z"/><path class="cls-4" d="M641.81,134a56.35,56.35,0,1,1-56.35-56.35A56.34,56.34,0,0,1,641.81,134Z"/><path class="cls-75" d="M641.81,134a56.14,56.14,0,0,0-14.15-37.34,56.35,56.35,0,1,0-42.2,93.68A56.34,56.34,0,0,0,641.81,134Z"/><path class="cls-53" d="M636.11,109.3a56.35,56.35,0,0,1-97,56.11,52.51,52.51,0,0,0,46.36,24.94,56.35,56.35,0,0,0,50.65-81Z"/><text class="cls-54" transform="translate(544.53 165.36)"><tspan class="cls-55">Y</tspan><tspan x="5.91" y="0">OUR</tspan><tspan class="cls-56" x="27.82" y="0"> </tspan><tspan x="29.82" y="0">TE</tspan><tspan class="cls-63" x="41.39" y="0">X</tspan><tspan class="cls-64" x="48.16" y="0">T HERE</tspan></text><text class="cls-76" transform="translate(566.74 149.06)">04</text><text class="cls-77" transform="translate(569.84 111.58)">STEP</text><path class="cls-78" d="M660.53,560.09a73.79,73.79,0,1,0-73.79,73.79A73.51,73.51,0,0,0,660.53,560.09Z"/><path class="cls-79" d="M546.21,599.24l34.38,34.38q3,.25,6.15.26a73.79,73.79,0,0,0,73.79-73.79c0-1.17,0-2.34-.08-3.49l-25-25Z"/><path class="cls-4" d="M643.31,560.33A56.35,56.35,0,1,1,587,504,56.35,56.35,0,0,1,643.31,560.33Z"/><path class="cls-80" d="M643.31,560.33A56.34,56.34,0,1,0,587,616.68,56.18,56.18,0,0,0,643.31,560.33Z"/><path class="cls-53" d="M637.61,535.62a56.35,56.35,0,0,1-97,56.11,56.17,56.17,0,0,0,97-56.11Z"/><text class="cls-54" transform="translate(546.03 591.68)"><tspan class="cls-55">Y</tspan><tspan x="5.91" y="0">OUR</tspan><tspan class="cls-70" x="27.82" y="0"> </tspan><tspan x="29.82" y="0">TE</tspan><tspan class="cls-57" x="41.39" y="0">X</tspan><tspan class="cls-64" x="48.16" y="0">T HERE</tspan></text><text class="cls-81" transform="translate(568.24 575.38)">06</text><text class="cls-82" transform="translate(571.35 537.91)">STEP</text><path class="cls-83" d="M145.69,346.69a73.5,73.5,0,0,0-18.53-48.89A73.79,73.79,0,0,0,18.53,397.65a73.79,73.79,0,0,0,127.16-51Z"/><path class="cls-84" d="M31.37,385.84l34.38,34.39q3,.25,6.15.25a73.78,73.78,0,0,0,73.79-73.79c0-1.17,0-2.33-.08-3.48l-25-25Z"/><path class="cls-4" d="M128.47,346.94a56.35,56.35,0,1,1-56.34-56.35A56.33,56.33,0,0,1,128.47,346.94Z"/><path class="cls-85" d="M128.47,346.94a56.09,56.09,0,0,0-14.15-37.34,56.34,56.34,0,0,0-82.95,76.24,56.34,56.34,0,0,0,97.1-38.9Z"/><path class="cls-53" d="M122.77,322.23a56.35,56.35,0,0,1-97,56.11,56.55,56.55,0,0,0,5.61,7.5,56.35,56.35,0,0,0,91.4-63.61Z"/><text class="cls-54" transform="translate(31.19 378.28)"><tspan class="cls-55">Y</tspan><tspan x="5.91" y="0">OUR</tspan><tspan class="cls-56" x="27.82" y="0"> </tspan><tspan x="29.82" y="0">TE</tspan><tspan class="cls-57" x="41.39" y="0">X</tspan><tspan x="48.16" y="0">T HERE</tspan></text><text class="cls-86" transform="translate(53.4 361.98)">02</text><text class="cls-87" transform="translate(56.51 324.51)">STEP</text><path class="cls-88" d="M264.14,483.6h0l-12.56-12.54h0a13,13,0,1,0-18.09,18.55l11.68,11.68h0a13,13,0,1,0,19-17.7Z"/><path class="cls-33" d="M251.18,489a13,13,0,1,1,0-18.37A13,13,0,0,1,251.18,489Z"/><text class="cls-34" transform="translate(34.03 235.22)">TITLE 2</text><text class="cls-35" transform="translate(27.11 249.27)">w<tspan class="cls-36" x="5.93" y="0">r</tspan><tspan x="8.6" y="0">i</tspan><tspan class="cls-37" x="10.49" y="0">t</tspan><tspan x="13.1" y="0">e wh</tspan><tspan class="cls-38" x="29.26" y="0">a</tspan><tspan class="cls-37" x="33.11" y="0">t</tspan><tspan x="35.73" y="0">e</tspan><tspan class="cls-39" x="39.77" y="0">r</tspan><tspan class="cls-40" x="42.6" y="0">v</tspan><tspan class="cls-41" x="46.4" y="0">er </tspan><tspan class="cls-42" x="54.78" y="0">y</tspan><tspan class="cls-43" x="58.5" y="0">our </tspan><tspan class="cls-38" x="71.71" y="0">w</tspan><tspan x="77.6" y="0">a</tspan><tspan class="cls-38" x="81.49" y="0">n</tspan><tspan x="85.93" y="0">t</tspan><tspan x="-4.19" y="9.67">in this </tspan><tspan class="cls-44" x="17.81" y="9.67">a</tspan><tspan class="cls-42" x="21.63" y="9.67">w</tspan><tspan x="27.48" y="9.67">esome inf</tspan><tspan class="cls-40" x="60.31" y="9.67">r</tspan><tspan x="62.87" y="9.67">o</tspan><tspan class="cls-45" x="67.29" y="9.67">g</tspan><tspan class="cls-46" x="71.75" y="9.67">r</tspan><tspan x="74.35" y="9.67">aphic</tspan></text><text class="cls-34" transform="translate(635.92 235.22)">TITLE 5</text><text class="cls-35" transform="translate(629 249.27)">w<tspan class="cls-36" x="5.93" y="0">r</tspan><tspan x="8.6" y="0">i</tspan><tspan class="cls-37" x="10.49" y="0">t</tspan><tspan x="13.1" y="0">e wh</tspan><tspan class="cls-38" x="29.26" y="0">a</tspan><tspan class="cls-37" x="33.11" y="0">t</tspan><tspan x="35.73" y="0">e</tspan><tspan class="cls-39" x="39.77" y="0">r</tspan><tspan class="cls-40" x="42.6" y="0">v</tspan><tspan class="cls-41" x="46.4" y="0">er </tspan><tspan class="cls-42" x="54.78" y="0">y</tspan><tspan class="cls-43" x="58.5" y="0">our </tspan><tspan class="cls-38" x="71.71" y="0">w</tspan><tspan x="77.6" y="0">a</tspan><tspan class="cls-38" x="81.49" y="0">n</tspan><tspan x="85.93" y="0">t</tspan><tspan x="-4.19" y="9.67">in this </tspan><tspan class="cls-44" x="17.81" y="9.67">a</tspan><tspan class="cls-42" x="21.63" y="9.67">w</tspan><tspan x="27.48" y="9.67">esome inf</tspan><tspan class="cls-40" x="60.31" y="9.67">r</tspan><tspan x="62.87" y="9.67">o</tspan><tspan class="cls-45" x="67.29" y="9.67">g</tspan><tspan class="cls-46" x="71.75" y="9.67">r</tspan><tspan x="74.35" y="9.67">aphic</tspan></text><text class="cls-34" transform="translate(121.32 672.85)">TITLE 3</text><text class="cls-35" transform="translate(114.39 686.91)">w<tspan class="cls-36" x="5.93" y="0">r</tspan><tspan x="8.6" y="0">i</tspan><tspan class="cls-37" x="10.49" y="0">t</tspan><tspan x="13.1" y="0">e wh</tspan><tspan class="cls-38" x="29.26" y="0">a</tspan><tspan class="cls-37" x="33.11" y="0">t</tspan><tspan x="35.73" y="0">e</tspan><tspan class="cls-39" x="39.77" y="0">r</tspan><tspan class="cls-40" x="42.6" y="0">v</tspan><tspan class="cls-41" x="46.4" y="0">er </tspan><tspan class="cls-42" x="54.78" y="0">y</tspan><tspan class="cls-43" x="58.5" y="0">our </tspan><tspan class="cls-38" x="71.71" y="0">w</tspan><tspan x="77.6" y="0">a</tspan><tspan class="cls-38" x="81.49" y="0">n</tspan><tspan x="85.93" y="0">t</tspan><tspan x="-4.19" y="9.67">in this </tspan><tspan class="cls-44" x="17.81" y="9.67">a</tspan><tspan class="cls-42" x="21.63" y="9.67">w</tspan><tspan x="27.48" y="9.67">esome inf</tspan><tspan class="cls-40" x="60.31" y="9.67">r</tspan><tspan x="62.87" y="9.67">o</tspan><tspan class="cls-45" x="67.29" y="9.67">g</tspan><tspan class="cls-46" x="71.75" y="9.67">r</tspan><tspan x="74.35" y="9.67">aphic</tspan></text><text class="cls-34" transform="translate(546.65 672.85)">TITLE 6</text><text class="cls-35" transform="translate(539.73 686.91)">w<tspan class="cls-36" x="5.93" y="0">r</tspan><tspan x="8.6" y="0">i</tspan><tspan class="cls-37" x="10.49" y="0">t</tspan><tspan x="13.1" y="0">e wh</tspan><tspan class="cls-38" x="29.26" y="0">a</tspan><tspan class="cls-37" x="33.11" y="0">t</tspan><tspan x="35.73" y="0">e</tspan><tspan class="cls-39" x="39.77" y="0">r</tspan><tspan class="cls-40" x="42.6" y="0">v</tspan><tspan class="cls-41" x="46.4" y="0">er </tspan><tspan class="cls-42" x="54.78" y="0">y</tspan><tspan class="cls-43" x="58.5" y="0">our </tspan><tspan class="cls-38" x="71.71" y="0">w</tspan><tspan x="77.6" y="0">a</tspan><tspan class="cls-38" x="81.49" y="0">n</tspan><tspan x="85.93" y="0">t</tspan><tspan x="-4.19" y="9.67">in this </tspan><tspan class="cls-44" x="17.81" y="9.67">a</tspan><tspan class="cls-42" x="21.63" y="9.67">w</tspan><tspan x="27.48" y="9.67">esome inf</tspan><tspan class="cls-40" x="60.31" y="9.67">r</tspan><tspan x="62.87" y="9.67">o</tspan><tspan class="cls-45" x="67.29" y="9.67">g</tspan><tspan class="cls-46" x="71.75" y="9.67">r</tspan><tspan x="74.35" y="9.67">aphic</tspan></text></g></g></g></svg>