<svg xmlns="http://www.w3.org/2000/svg" viewBox="0 0 457.19 446.95"><defs><style>.cls-1{font-size:64.01px;}.cls-1,.cls-10,.cls-25,.cls-3,.cls-32,.cls-6{fill:#fff;}.cls-1,.cls-10,.cls-20,.cls-25,.cls-26,.cls-29,.cls-3,.cls-32,.cls-33{font-family:TrashHand;}.cls-2{letter-spacing:-0.01em;}.cls-3{font-size:40.59px;}.cls-4{letter-spacing:-0.01em;}.cls-5{letter-spacing:-0.01em;}.cls-7{fill:#dddbc8;}.cls-20,.cls-8{fill:#f89a1c;}.cls-9{fill:#f48020;}.cls-10{font-size:41.9px;}.cls-11{font-size:7.8px;fill:#2d6058;font-family:OpenSans;}.cls-12{letter-spacing:-0.01em;}.cls-13{letter-spacing:-0.01em;}.cls-14{letter-spacing:0em;}.cls-15{letter-spacing:-0.01em;}.cls-16{letter-spacing:-0.01em;}.cls-17{letter-spacing:0em;}.cls-18{letter-spacing:-0.01em;}.cls-19{letter-spacing:0.01em;}.cls-20,.cls-26,.cls-29,.cls-33{font-size:21.76px;}.cls-21{letter-spacing:-0.01em;}.cls-22{letter-spacing:-0.01em;}.cls-23,.cls-26{fill:#aacf3a;}.cls-24{fill:#90b131;}.cls-25{font-size:37.86px;}.cls-27,.cls-29{fill:#ee485f;}.cls-28{fill:#ed2e49;}.cls-30,.cls-33{fill:#01bdd5;}.cls-31{fill:#05a0b4;}.cls-32{font-size:34.75px;}</style></defs><title>infografia5</title><g id="Capa_2" data-name="Capa 2"><g id="OBJECTS"><text class="cls-1" transform="translate(176.72 223.87)">in<tspan class="cls-2" x="50.51" y="0">f</tspan><tspan x="68.37" y="0">o</tspan></text><text class="cls-3" transform="translate(161.01 262.25)"><tspan class="cls-4">g</tspan><tspan class="cls-5" x="22.45" y="0">r</tspan><tspan x="35.52" y="0">aphic</tspan></text><path class="cls-6" d="M180.41,179.79c-1.18-.44-2.39-.78-3.54-1.29-1.34-.59-2.54-1.43-3.86-2s-3.39.79-2.28,2.28a18.65,18.65,0,0,0,8.34,5.91C182.13,185.77,183.43,180.91,180.41,179.79Z"/><path class="cls-6" d="M186.1,174.07c-.71-1.35-1.17-2.86-1.95-4.16a1.68,1.68,0,0,0-3.11.84,17.6,17.6,0,0,0,.9,4.52,7.81,7.81,0,0,0,2.23,4.07c1.13,1,3.33.43,3.21-1.33A9.58,9.58,0,0,0,186.1,174.07Z"/><path class="cls-6" d="M279,168.91c-.24-1.5-2.62-1.41-2.94,0a41,41,0,0,1-1.22,4.88c-.52,1.49-1.54,2.93-.58,4.45a1.55,1.55,0,0,0,1.7.69c1.89-.25,2.4-2.5,2.76-4.07A15.49,15.49,0,0,0,279,168.91Z"/><path class="cls-6" d="M284.71,176.05a72.67,72.67,0,0,0-7.85,7c-1,.93,0,2.81,1.36,2.33,3.61-1.31,7.17-4.11,8.36-7.93A1.28,1.28,0,0,0,284.71,176.05Z"/><path class="cls-6" d="M172.17,274.89a10.24,10.24,0,0,0-5.11,1.26,15.37,15.37,0,0,0-4.52,2.89,1.31,1.31,0,0,0,1.26,2.17,46.09,46.09,0,0,0,4.68-1.7,17.08,17.08,0,0,0,4.41-2A1.44,1.44,0,0,0,172.17,274.89Z"/><path class="cls-6" d="M176.91,279.35c-.48.47-1.29,1-1.57,1.65s-.62,1.46-.92,2.2c-.6,1.48-1.15,3-1.69,4.46-.75,2.11,2.52,3.41,3.57,1.5.78-1.39,1.53-2.79,2.25-4.22a13.31,13.31,0,0,0,1-2.16,10.66,10.66,0,0,0,.16-2.26A1.67,1.67,0,0,0,176.91,279.35Z"/><path class="cls-6" d="M283.47,282.4a17.69,17.69,0,0,0-2.37-3.89c-1-1.43-1.91-2.72-3.6-3.24a1.6,1.6,0,0,0-2,1.54c0,1.78,1,3.05,2.18,4.35.51.59,1,1.16,1.56,1.74l.78.86.12.13a1.4,1.4,0,0,0,.65,1.51C282.78,286.45,284,284.14,283.47,282.4Z"/><path class="cls-6" d="M287.58,272.76c-.84-.28-1.74-.4-2.59-.68a22.38,22.38,0,0,1-2.42-.71c-1.4-.64-3.23.74-2.27,2.26a5.92,5.92,0,0,0,7.74,2.64C289.65,275.51,289,273.24,287.58,272.76Z"/><path class="cls-6" d="M198.12,12.17c-21.3,8.91-38.32,25.37-44.7,49.47-8.12,30.67,5,65.8,31.27,83.62s63.76,17.05,89.26-1.83,37.2-54.51,27.83-84.83c-9.59-31-42.88-57.45-76.16-53.52A102.55,102.55,0,0,0,198.12,12.17Z"/><path class="cls-7" d="M216.92,22.83c-7.9,3.3-14.22,9.41-16.59,18.35a29.41,29.41,0,0,0,11.61,31,29.41,29.41,0,0,0,33.12-.67,29.42,29.42,0,0,0,10.33-31.48c-3.56-11.52-15.92-21.33-28.26-19.87A37.88,37.88,0,0,0,216.92,22.83Z"/><path class="cls-8" d="M216.92,18.2c-7.9,3.3-14.22,9.41-16.59,18.35a29.43,29.43,0,0,0,11.61,31,29.42,29.42,0,0,0,33.12-.68,29.42,29.42,0,0,0,10.33-31.48c-3.56-11.51-15.92-21.32-28.26-19.87A37.88,37.88,0,0,0,216.92,18.2Z"/><path class="cls-8" d="M216.92,18.2c-7.9,3.3-14.22,9.41-16.59,18.35a29.43,29.43,0,0,0,11.61,31,29.42,29.42,0,0,0,33.12-.68,29.42,29.42,0,0,0,10.33-31.48c-3.56-11.51-15.92-21.32-28.26-19.87A37.88,37.88,0,0,0,216.92,18.2Z"/><path class="cls-9" d="M285.86,21.44a18.37,18.37,0,0,0-11.12,12.3,19.72,19.72,0,0,0,7.78,20.8,19.71,19.71,0,0,0,22.21-.45A19.73,19.73,0,0,0,311.65,33C309.26,25.27,301,18.7,292.7,19.68A25.68,25.68,0,0,0,285.86,21.44Z"/><path class="cls-9" d="M245.06,57.16a29.41,29.41,0,0,1-33.12.68A29.27,29.27,0,0,1,199.88,38.6a29.51,29.51,0,0,0,12.06,29,29.42,29.42,0,0,0,33.12-.68A29.53,29.53,0,0,0,256.15,38.7,29.19,29.19,0,0,1,245.06,57.16Z"/><path class="cls-7" d="M274,126.87c-25.5,18.87-63,19.64-89.26,1.82C166,116,153.93,94.48,151.5,72.07c-3.08,27.88,9.87,57.36,33.19,73.19,26.26,17.82,63.76,17.05,89.26-1.83,21.81-16.14,33.51-44.54,30.58-71.39C302.24,93.44,291.3,114,274,126.87Z"/><path class="cls-7" d="M274.15,116.66c-5,2.68-9.41,6.3-14.32,9.12s-10.16,4.89-15,7.74a.57.57,0,0,0,.43,1c5.7-.81,11.16-3.3,16.29-5.83s10.56-5.4,14.58-9.5A1.64,1.64,0,0,0,274.15,116.66Z"/><path class="cls-7" d="M286.9,104.2a58.55,58.55,0,0,0-6.76,6.32,1.39,1.39,0,0,0,2,2,59.43,59.43,0,0,0,6.32-6.76C289.08,104.86,287.76,103.54,286.9,104.2Z"/><path class="cls-7" d="M191.25,121.92a113.5,113.5,0,0,1-13.53-10.69c-4.57-4.46-7.75-9.78-11.07-15.15a.71.71,0,0,0-1.3.55c3.54,11.5,13.31,23.07,24.34,28A1.54,1.54,0,0,0,191.25,121.92Z"/><path class="cls-7" d="M209.83,130.3a26.24,26.24,0,0,0-9.05-2,1,1,0,0,0-.51,1.9c2.81,1.51,6.11,2,9.24,2.46C210.94,132.85,211,130.73,209.83,130.3Z"/><path class="cls-7" d="M163.6,90.3a20.75,20.75,0,0,0-2-5.14,1.07,1.07,0,0,0-1.95.83,20.33,20.33,0,0,0,2.3,5A.88.88,0,0,0,163.6,90.3Z"/><path class="cls-7" d="M295.25,88.73a2.84,2.84,0,0,0-1.37,1.3,1,1,0,0,0,1.4,1.4,2.79,2.79,0,0,0,1.3-1.37A1,1,0,0,0,295.25,88.73Z"/><path class="cls-7" d="M257.31,61.16c-2.45,2.93-4.4,6.23-6.92,9.13a.76.76,0,0,0,1.08,1.08c3-2.45,6-5.64,7.29-9.37A.87.87,0,0,0,257.31,61.16Z"/><path class="cls-7" d="M259.23,56.23l-.33.4c-.84,1,1,1.88,1.28.74l.12-.51C260.44,56.28,259.66,55.71,259.23,56.23Z"/><path class="cls-7" d="M203.48,66.18c-1.7-2.71-3.57-5-4.61-8.13a.52.52,0,0,0-1,.28c.63,3.14,1.87,6.66,4.34,8.83C202.87,67.74,204,67,203.48,66.18Z"/><path class="cls-7" d="M207.92,72.88a14.4,14.4,0,0,0-1-1.11,9.25,9.25,0,0,0-1.12-.86c-.37-.27-.89.26-.63.62a8.53,8.53,0,0,0,.86,1.12,13,13,0,0,0,1.12,1A.52.52,0,0,0,207.92,72.88Z"/><path class="cls-9" d="M221.4,58.62a30.19,30.19,0,0,1-7.53-3.39,18.94,18.94,0,0,1-3.31-2.95c-.9-1-1.45-2.16-2.6-2.83a.14.14,0,0,0-.2.12c-.08,2.67,3.19,5.47,5.07,7a15.62,15.62,0,0,0,8.36,3.6C222.12,60.27,222.21,58.89,221.4,58.62Z"/><path class="cls-9" d="M230.21,59.48a12.21,12.21,0,0,0-4.39-.2c-.86.08-1.15,1.37-.21,1.59a12.34,12.34,0,0,0,4.35.44A.94.94,0,0,0,230.21,59.48Z"/><path class="cls-9" d="M247.21,51.14a24.27,24.27,0,0,0-4.1,2.85,40.78,40.78,0,0,0-3.75,2.64c-.46.41,0,1,.55.94a16.15,16.15,0,0,0,4.78-2,11.72,11.72,0,0,0,4-3C249.36,51.62,248,50.78,247.21,51.14Z"/><path class="cls-9" d="M252,47a.94.94,0,0,0-1.06-.43,3.15,3.15,0,0,0-2.1,2.23c-.37,1.17,1.26,1.74,1.89.8.34-.5.75-1,1.13-1.45A1,1,0,0,0,252,47Z"/><path class="cls-8" d="M200,22.35a6,6,0,0,0-1.58-1.14c-.87-.5-1.53.74-.77,1.32l.71.53a3.4,3.4,0,0,0,1,.46C200,23.76,200.44,22.83,200,22.35Z"/><path class="cls-8" d="M195.08,35.1a2.6,2.6,0,0,0-1-.55l-1.06-.3a.61.61,0,0,0-.47,1.11l1,.55a2.55,2.55,0,0,0,1.05.3A.66.66,0,0,0,195.08,35.1Z"/><path class="cls-8" d="M194.22,48a10.25,10.25,0,0,1-2,.45A.59.59,0,0,0,192,49.6a3,3,0,0,0,2.84-.49C195.41,48.64,194.83,47.86,194.22,48Z"/><path class="cls-8" d="M198.43,62.83a.75.75,0,0,0-.86-.35,6.18,6.18,0,0,0-2.78,2.14.67.67,0,0,0,.75,1,6,6,0,0,0,2.77-1.85A.77.77,0,0,0,198.43,62.83Z"/><path class="cls-8" d="M256.49,22.35a6,6,0,0,1,1.58-1.14c.88-.5,1.53.74.77,1.32l-.71.53a3.34,3.34,0,0,1-.95.46C256.47,23.76,256.06,22.83,256.49,22.35Z"/><path class="cls-8" d="M261.42,35.1a2.45,2.45,0,0,1,.95-.55l1.06-.3a.61.61,0,0,1,.46,1.11l-.95.55a2.64,2.64,0,0,1-1.06.3A.65.65,0,0,1,261.42,35.1Z"/><path class="cls-8" d="M262.28,48a10.09,10.09,0,0,0,2,.45.59.59,0,0,1,.15,1.16,3,3,0,0,1-2.84-.49C261.09,48.64,261.67,47.86,262.28,48Z"/><path class="cls-8" d="M258.06,62.83a.75.75,0,0,1,.86-.35,6.21,6.21,0,0,1,2.79,2.14.67.67,0,0,1-.76,1,6,6,0,0,1-2.77-1.85A.79.79,0,0,1,258.06,62.83Z"/><text class="cls-10" transform="translate(270.35 48.51)">01</text><path class="cls-8" d="M177,17.05c-11.67,8-20.68,21.86-24.57,35.33a.37.37,0,0,0,.67.28,145.12,145.12,0,0,1,10.75-17.55c4.35-5.92,9.57-10.89,14.55-16.25C179.29,17.93,178.15,16.28,177,17.05Z"/><path class="cls-8" d="M198.88,5.23a37.89,37.89,0,0,0-13.24,7.19c-.62.49.17,1.27.77,1a121.27,121.27,0,0,0,13.25-6.37A1,1,0,0,0,198.88,5.23Z"/><path class="cls-8" d="M275.31,12.07C270.08,5.65,261.88,2,254,0a1.17,1.17,0,0,0-.62,2.26c7.77,2.57,13.87,7,20.54,11.56C275.08,14.65,276.07,13,275.31,12.07Z"/><path class="cls-8" d="M282.35,17.7a14.94,14.94,0,0,1-1.83-2,1,1,0,0,0-1.12-.45,1,1,0,0,0-.69,1.22,4.34,4.34,0,0,0,.78,1.85,2.76,2.76,0,0,0,2.12,1.19,1,1,0,0,0,.9-.52A1.08,1.08,0,0,0,282.35,17.7Z"/><path class="cls-8" d="M309.74,59.36c-.4-.8-1.51-.22-1.36.57,2.14,11,3.39,21.29,2.62,32.57a1.17,1.17,0,0,0,2.28.31C315.74,82,314.86,69.36,309.74,59.36Z"/><path class="cls-8" d="M310.93,101a15.06,15.06,0,0,0-1.17,5.43c-.09,1.35,1.8,1.43,2.21.3a14.32,14.32,0,0,0,1.09-5.16C313,100.55,311.44,100,310.93,101Z"/><path class="cls-8" d="M192,154.38a135,135,0,0,1-17.51-12.81c-5.92-5.25-10.59-11.32-15.41-17.56a.47.47,0,0,0-.81.48c6.59,13.51,19.18,25.33,32.74,31.57A1,1,0,0,0,192,154.38Z"/><path class="cls-8" d="M211.16,159.76a35.43,35.43,0,0,0-10.76-2c-1,0-1.58,1.56-.56,2a36.19,36.19,0,0,0,10.95,2.7C212.39,162.65,212.56,160.2,211.16,159.76Z"/><path class="cls-8" d="M258.22,157.08a.05.05,0,0,0,0,.1A.05.05,0,1,0,258.22,157.08Z"/><path class="cls-8" d="M257.25,157.08a.05.05,0,0,0,0,.1A.05.05,0,0,0,257.25,157.08Z"/><path class="cls-8" d="M292.26,131.4c-9.48,11.17-21.39,18.14-34,25.15-.06,0,0,.11,0,.12,2.95.22,5.6-1.35,8.22-2.58,3.69-1.73,7.3-3.6,10.8-5.68,6.65-3.95,12.94-8.83,16.59-15.77C294.38,131.65,293,130.48,292.26,131.4Z"/><path class="cls-8" d="M300.19,121.71a20.41,20.41,0,0,1-2.61,3.32c-.8.75.43,2,1.2,1.2a9.88,9.88,0,0,0,2.63-4C301.64,121.46,300.6,121.12,300.19,121.71Z"/><path class="cls-8" d="M251.55,158.43c-1.5.29-3,.6-4.48.91a.42.42,0,0,0,0,.8,7.53,7.53,0,0,0,5-.49C252.8,159.33,252.25,158.29,251.55,158.43Z"/><text class="cls-11" transform="translate(182.61 107.86)"><tspan class="cls-12">L</tspan><tspan x="3.57" y="0">o</tspan><tspan class="cls-13" x="7.85" y="0">r</tspan><tspan x="10.32" y="0">em ipsum dolor sit ame</tspan><tspan class="cls-14" x="86.48" y="0">t</tspan><tspan x="89.04" y="0">, </tspan><tspan x="-2.6" y="9.35">elitr sape</tspan><tspan class="cls-15" x="26.93" y="9.35">r</tspan><tspan x="29.4" y="9.35">et a</tspan><tspan class="cls-16" x="41.3" y="9.35">c</tspan><tspan x="44.74" y="9.35">cumsan et ne</tspan><tspan class="cls-13" x="88.22" y="9.35">c</tspan><tspan x="91.64" y="9.35">, </tspan><tspan class="cls-17" x="5.52" y="18.71">a</tspan><tspan x="9.25" y="18.71">t p</tspan><tspan class="cls-15" x="17.91" y="18.71">r</tspan><tspan x="20.38" y="18.71">o </tspan><tspan class="cls-16" x="26.32" y="18.71">c</tspan><tspan x="29.76" y="18.71">e</tspan><tspan class="cls-18" x="33.67" y="18.71">t</tspan><tspan x="36.2" y="18.71">e</tspan><tspan class="cls-15" x="40.11" y="18.71">r</tspan><tspan x="42.58" y="18.71">o mandamus </tspan><tspan x="6.66" y="28.06">indo</tspan><tspan class="cls-19" x="21.49" y="28.06">c</tspan><tspan x="25.08" y="28.06">tum, per </tspan><tspan class="cls-15" x="54.26" y="28.06">r</tspan><tspan x="56.74" y="28.06">ecusabo </tspan></text><text class="cls-20" transform="translate(168.58 93.34)"><tspan class="cls-21">L</tspan><tspan x="9.97" y="0">o</tspan><tspan class="cls-22" x="21.91" y="0">r</tspan><tspan x="28.81" y="0">em ipsum</tspan></text><path class="cls-8" d="M284.09,86.43c-2-.78-4.28-.45-6.37-.57-1.38-.07-1.71,2.21-.33,2.43,2.15.34,4.59,1,6.7.26A1.11,1.11,0,0,0,284.09,86.43Z"/><path class="cls-8" d="M280.59,76.5c-1.78,1.09-3.08,2.88-4.43,4.45-.55.64.2,1.82,1,1.24,1.69-1.31,3.61-2.54,4.84-4.32C282.55,77,281.42,76,280.59,76.5Z"/><path class="cls-8" d="M280.53,95.54a12.79,12.79,0,0,0-4-3,.93.93,0,0,0-1.13,1.46,13.18,13.18,0,0,0,3.92,3A1,1,0,0,0,280.53,95.54Z"/><path class="cls-8" d="M173.12,87.13c2,.78,4.29.45,6.38.57,1.37.07,1.7-2.2.32-2.42-2.15-.35-4.59-1-6.7-.27A1.11,1.11,0,0,0,173.12,87.13Z"/><path class="cls-8" d="M176.62,97.07c1.78-1.1,3.08-2.89,4.44-4.46.55-.63-.21-1.82-1-1.24-1.7,1.31-3.62,2.55-4.85,4.32C174.66,96.54,175.8,97.58,176.62,97.07Z"/><path class="cls-8" d="M176.68,78a12.86,12.86,0,0,0,4,3,.93.93,0,0,0,1.12-1.46,12.81,12.81,0,0,0-3.92-3.06A1,1,0,0,0,176.68,78Z"/><path class="cls-6" d="M242.93,55.54h0l-.06,0-.15-.14c-1.32-1.3-2.65-2.56-4-3.78a14.29,14.29,0,0,0-3.42-2.69A4.25,4.25,0,0,0,237,47c.29-1.05-.92-2.19-1.47-2.94a9.64,9.64,0,0,0-2.15-2.5,17.65,17.65,0,0,0-1.29-11.93c-3.11-6.37-12.15-7.11-17.86-3.66S207.55,39.87,212,44.53a15.32,15.32,0,0,0,15,3.84A32.94,32.94,0,0,0,230.05,52a1,1,0,0,0,1.2.15q.78-.59,1.53-1.23a5.27,5.27,0,0,0,1,1.59q1.24,1.52,2.52,3c1.44,1.66,3.15,4.72,5.73,4.06A2.34,2.34,0,0,0,242.93,55.54Zm-20.31-9.39A12.52,12.52,0,0,1,215,43.34c-4.89-4-3.46-13.74,2.38-16.08,1.78-.72,3.92-.52,5.8-.45,3.64.14,5.62,1.56,6.91,5,1.36,3.58,2.24,9-.77,12l0,0C227.89,45.22,224.56,46.16,222.62,46.15ZM230.7,50c-.8-.7-1.55-1.45-2.3-2.2a9.26,9.26,0,0,0,4-3.85c.62.9,1.46,1.7,2.05,2.62A35,35,0,0,1,230.7,50Z"/><path class="cls-6" d="M223.19,28.85c-3.44-2.3-9.1,2.33-8.28,6.16a.59.59,0,0,0,1.06.14c.81-1.31,1.28-2.57,2.58-3.53s2.94-.77,4.44-1.24A.85.85,0,0,0,223.19,28.85Z"/><path class="cls-6" d="M226.28,30.31c-.37-.37-1.18,0-.95.55A4.8,4.8,0,0,0,226.69,33a.59.59,0,0,0,1-.57A4.84,4.84,0,0,0,226.28,30.31Z"/><path class="cls-6" d="M198.12,296.66c-21.3,8.9-38.32,25.37-44.7,49.47-8.12,30.67,5,65.8,31.27,83.62s63.76,17.05,89.26-1.83,37.2-54.51,27.83-84.83c-9.59-31-42.88-57.46-76.16-53.53A102.94,102.94,0,0,0,198.12,296.66Z"/><path class="cls-7" d="M216.92,307.31c-7.9,3.31-14.22,9.42-16.59,18.36a28.64,28.64,0,1,0,55.06-1.13c-3.56-11.51-15.92-21.32-28.26-19.86A38.24,38.24,0,0,0,216.92,307.31Z"/><path class="cls-23" d="M216.92,302.68C209,306,202.7,312.1,200.33,321a28.65,28.65,0,1,0,55.06-1.13c-3.56-11.51-15.92-21.32-28.26-19.86A38.24,38.24,0,0,0,216.92,302.68Z"/><path class="cls-23" d="M216.92,302.68C209,306,202.7,312.1,200.33,321a28.65,28.65,0,1,0,55.06-1.13c-3.56-11.51-15.92-21.32-28.26-19.86A38.24,38.24,0,0,0,216.92,302.68Z"/><path class="cls-24" d="M285.86,305.93a18.35,18.35,0,0,0-11.12,12.3,19.2,19.2,0,1,0,36.91-.75c-2.39-7.72-10.67-14.29-18.95-13.32A25.32,25.32,0,0,0,285.86,305.93Z"/><path class="cls-24" d="M245.06,341.65a28.46,28.46,0,0,1-45.18-18.56,28.62,28.62,0,1,0,56.27.1A29.21,29.21,0,0,1,245.06,341.65Z"/><path class="cls-7" d="M274,411.35c-25.5,18.88-63,19.65-89.26,1.83C166,400.48,153.93,379,151.5,356.55c-3.08,27.89,9.87,57.37,33.19,73.2C211,447.56,248.45,446.8,274,427.92c21.81-16.15,33.51-44.54,30.58-71.39C302.24,377.92,291.3,398.51,274,411.35Z"/><path class="cls-7" d="M274.15,401.15c-5,2.68-9.41,6.3-14.32,9.12s-10.16,4.89-15,7.74a.57.57,0,0,0,.43,1c5.7-.81,11.16-3.3,16.29-5.83s10.56-5.41,14.58-9.5A1.64,1.64,0,0,0,274.15,401.15Z"/><path class="cls-7" d="M286.9,388.69a59.35,59.35,0,0,0-6.76,6.31,1.39,1.39,0,0,0,2,2,58.51,58.51,0,0,0,6.32-6.75C289.08,389.34,287.76,388,286.9,388.69Z"/><path class="cls-7" d="M191.25,406.41a113.5,113.5,0,0,1-13.53-10.69c-4.57-4.46-7.75-9.78-11.07-15.15a.71.71,0,0,0-1.3.55c3.54,11.49,13.31,23.07,24.34,27.94A1.54,1.54,0,0,0,191.25,406.41Z"/><path class="cls-7" d="M209.83,414.78a26.46,26.46,0,0,0-9.05-2,1,1,0,0,0-.51,1.9c2.81,1.51,6.11,2,9.24,2.46C210.94,417.34,211,415.21,209.83,414.78Z"/><path class="cls-7" d="M163.6,374.79a20.75,20.75,0,0,0-2-5.14,1.07,1.07,0,0,0-1.95.82,20.4,20.4,0,0,0,2.3,5A.88.88,0,0,0,163.6,374.79Z"/><path class="cls-7" d="M295.25,373.22a2.79,2.79,0,0,0-1.37,1.3,1,1,0,0,0,1.4,1.39,2.73,2.73,0,0,0,1.3-1.36A1,1,0,0,0,295.25,373.22Z"/><path class="cls-7" d="M257.31,345.64c-2.45,2.94-4.4,6.24-6.92,9.14a.76.76,0,0,0,1.08,1.08c3-2.45,6-5.65,7.29-9.37A.87.87,0,0,0,257.31,345.64Z"/><path class="cls-7" d="M259.23,340.72l-.33.4c-.84,1,1,1.88,1.28.74l.12-.52C260.44,340.77,259.66,340.2,259.23,340.72Z"/><path class="cls-7" d="M203.48,350.67c-1.7-2.72-3.57-5-4.61-8.13a.52.52,0,0,0-1,.28c.63,3.14,1.87,6.65,4.34,8.82C202.87,352.23,204,351.48,203.48,350.67Z"/><path class="cls-7" d="M207.92,357.37a12.73,12.73,0,0,0-1-1.11,9.34,9.34,0,0,0-1.12-.87c-.37-.26-.89.26-.63.63a8.53,8.53,0,0,0,.86,1.12,12.87,12.87,0,0,0,1.12,1A.52.52,0,0,0,207.92,357.37Z"/><path class="cls-24" d="M221.4,343.11a30.93,30.93,0,0,1-7.53-3.39,18.94,18.94,0,0,1-3.31-3c-.9-1-1.45-2.16-2.6-2.83a.13.13,0,0,0-.2.12c-.08,2.67,3.19,5.47,5.07,7a15.61,15.61,0,0,0,8.36,3.59C222.12,344.75,222.21,343.38,221.4,343.11Z"/><path class="cls-24" d="M230.21,344a12.21,12.21,0,0,0-4.39-.2c-.86.07-1.15,1.37-.21,1.58a11.9,11.9,0,0,0,4.35.44C230.94,345.67,231.3,344.27,230.21,344Z"/><path class="cls-24" d="M247.21,335.63a24.21,24.21,0,0,0-4.1,2.84,42.92,42.92,0,0,0-3.75,2.65c-.46.4,0,1,.55.94a15.91,15.91,0,0,0,4.78-2,11.59,11.59,0,0,0,4-3C249.36,336.11,248,335.27,247.21,335.63Z"/><path class="cls-24" d="M252,331.51a.94.94,0,0,0-1.06-.43,3.13,3.13,0,0,0-2.1,2.23c-.37,1.17,1.26,1.73,1.89.8.34-.51.75-1,1.13-1.45A1,1,0,0,0,252,331.51Z"/><path class="cls-23" d="M200,306.83a5.92,5.92,0,0,0-1.58-1.13c-.87-.5-1.53.74-.77,1.32l.71.53a3.37,3.37,0,0,0,1,.45C200,308.24,200.44,307.32,200,306.83Z"/><path class="cls-23" d="M195.08,319.58a2.72,2.72,0,0,0-1-.54l-1.06-.31a.62.62,0,0,0-.47,1.12l1,.55a2.71,2.71,0,0,0,1.05.3A.66.66,0,0,0,195.08,319.58Z"/><path class="cls-23" d="M194.22,332.48a11,11,0,0,1-2,.44.6.6,0,0,0-.16,1.17,3,3,0,0,0,2.84-.49C195.41,333.13,194.83,332.35,194.22,332.48Z"/><path class="cls-23" d="M198.43,347.32a.75.75,0,0,0-.86-.35,6.11,6.11,0,0,0-2.78,2.14c-.35.48.22,1.14.75,1a6,6,0,0,0,2.77-1.85A.77.77,0,0,0,198.43,347.32Z"/><path class="cls-23" d="M256.49,306.83a5.92,5.92,0,0,1,1.58-1.13c.88-.5,1.53.74.77,1.32l-.71.53a3.32,3.32,0,0,1-.95.45C256.47,308.24,256.06,307.32,256.49,306.83Z"/><path class="cls-23" d="M261.42,319.58a2.56,2.56,0,0,1,.95-.54l1.06-.31a.61.61,0,0,1,.46,1.12l-.95.55a2.81,2.81,0,0,1-1.06.3A.66.66,0,0,1,261.42,319.58Z"/><path class="cls-23" d="M262.28,332.48a10.81,10.81,0,0,0,2,.44.6.6,0,0,1,.15,1.17,3,3,0,0,1-2.84-.49C261.09,333.13,261.67,332.35,262.28,332.48Z"/><path class="cls-23" d="M258.06,347.32a.75.75,0,0,1,.86-.35,6.14,6.14,0,0,1,2.79,2.14c.34.48-.22,1.14-.76,1a6,6,0,0,1-2.77-1.85A.79.79,0,0,1,258.06,347.32Z"/><text class="cls-25" transform="translate(272.75 330.79)">03</text><path class="cls-23" d="M177,301.53c-11.67,8-20.68,21.87-24.57,35.33a.37.37,0,0,0,.67.29,146,146,0,0,1,10.75-17.56c4.35-5.92,9.57-10.89,14.55-16.24C179.29,302.42,178.15,300.76,177,301.53Z"/><path class="cls-23" d="M198.88,289.72a37.89,37.89,0,0,0-13.24,7.19c-.62.49.17,1.27.77,1a121.2,121.2,0,0,0,13.25-6.36A1,1,0,0,0,198.88,289.72Z"/><path class="cls-23" d="M275.31,296.56c-5.23-6.42-13.43-10.06-21.31-12a1.17,1.17,0,0,0-.62,2.26c7.77,2.57,13.87,7,20.54,11.56C275.08,299.13,276.07,297.49,275.31,296.56Z"/><path class="cls-23" d="M282.35,302.19a16.23,16.23,0,0,1-1.83-2,1,1,0,0,0-1.12-.45,1,1,0,0,0-.69,1.21,4.33,4.33,0,0,0,.78,1.86,2.72,2.72,0,0,0,2.12,1.18,1,1,0,0,0,.9-.51A1.07,1.07,0,0,0,282.35,302.19Z"/><path class="cls-23" d="M309.74,343.84c-.4-.79-1.51-.21-1.36.58,2.14,11,3.39,21.28,2.62,32.57a1.17,1.17,0,0,0,2.28.3C315.74,366.46,314.86,353.85,309.74,343.84Z"/><path class="cls-23" d="M310.93,385.52a15.16,15.16,0,0,0-1.17,5.44c-.09,1.35,1.8,1.42,2.21.3a14.36,14.36,0,0,0,1.09-5.16C313,385,311.44,384.44,310.93,385.52Z"/><path class="cls-23" d="M192,438.87a136,136,0,0,1-17.51-12.81c-5.92-5.25-10.59-11.33-15.41-17.56a.47.47,0,0,0-.81.48c6.59,13.5,19.18,25.33,32.74,31.57A1,1,0,0,0,192,438.87Z"/><path class="cls-23" d="M211.16,444.25a35.13,35.13,0,0,0-10.76-2.05c-1,0-1.58,1.56-.56,2a36.19,36.19,0,0,0,10.95,2.7C212.39,447.14,212.56,444.69,211.16,444.25Z"/><path class="cls-23" d="M258.22,441.57a.05.05,0,0,0,0,.1A.05.05,0,1,0,258.22,441.57Z"/><path class="cls-23" d="M257.25,441.57a.05.05,0,0,0,0,.1A.05.05,0,0,0,257.25,441.57Z"/><path class="cls-23" d="M292.26,415.89c-9.48,11.17-21.39,18.14-34,25.15a.06.06,0,0,0,0,.11c2.95.23,5.6-1.34,8.22-2.57,3.69-1.73,7.3-3.61,10.8-5.68,6.65-3.95,12.94-8.83,16.59-15.78C294.38,416.14,293,415,292.26,415.89Z"/><path class="cls-23" d="M300.19,406.2a20.41,20.41,0,0,1-2.61,3.32c-.8.75.43,2,1.2,1.2a9.84,9.84,0,0,0,2.63-4C301.64,406,300.6,405.6,300.19,406.2Z"/><path class="cls-23" d="M251.55,442.92c-1.5.29-3,.6-4.48.91a.41.41,0,0,0,0,.79,7.52,7.52,0,0,0,5-.48C252.8,443.82,252.25,442.78,251.55,442.92Z"/><text class="cls-11" transform="translate(182.61 392.34)"><tspan class="cls-12">L</tspan><tspan x="3.57" y="0">o</tspan><tspan class="cls-13" x="7.85" y="0">r</tspan><tspan x="10.32" y="0">em ipsum dolor sit ame</tspan><tspan class="cls-14" x="86.48" y="0">t</tspan><tspan x="89.04" y="0">, </tspan><tspan x="-2.6" y="9.35">elitr sape</tspan><tspan class="cls-15" x="26.93" y="9.35">r</tspan><tspan x="29.4" y="9.35">et a</tspan><tspan class="cls-16" x="41.3" y="9.35">c</tspan><tspan x="44.74" y="9.35">cumsan et ne</tspan><tspan class="cls-13" x="88.22" y="9.35">c</tspan><tspan x="91.64" y="9.35">, </tspan><tspan class="cls-17" x="5.52" y="18.71">a</tspan><tspan x="9.25" y="18.71">t p</tspan><tspan class="cls-15" x="17.91" y="18.71">r</tspan><tspan x="20.38" y="18.71">o </tspan><tspan class="cls-16" x="26.32" y="18.71">c</tspan><tspan x="29.76" y="18.71">e</tspan><tspan class="cls-18" x="33.67" y="18.71">t</tspan><tspan x="36.2" y="18.71">e</tspan><tspan class="cls-15" x="40.11" y="18.71">r</tspan><tspan x="42.58" y="18.71">o mandamus </tspan><tspan x="6.66" y="28.06">indo</tspan><tspan class="cls-19" x="21.49" y="28.06">c</tspan><tspan x="25.08" y="28.06">tum, per </tspan><tspan class="cls-15" x="54.26" y="28.06">r</tspan><tspan x="56.74" y="28.06">ecusabo </tspan></text><text class="cls-26" transform="translate(168.58 377.83)"><tspan class="cls-21">L</tspan><tspan x="9.97" y="0">o</tspan><tspan class="cls-22" x="21.91" y="0">r</tspan><tspan x="28.81" y="0">em ipsum</tspan></text><path class="cls-23" d="M284.09,370.92c-2-.78-4.28-.45-6.37-.57-1.38-.07-1.71,2.2-.33,2.42,2.15.35,4.59,1,6.7.27A1.11,1.11,0,0,0,284.09,370.92Z"/><path class="cls-23" d="M280.59,361c-1.78,1.1-3.08,2.89-4.43,4.46-.55.63.2,1.82,1,1.24,1.69-1.31,3.61-2.55,4.84-4.32C282.55,361.51,281.42,360.47,280.59,361Z"/><path class="cls-23" d="M280.53,380a13,13,0,0,0-4-3,.93.93,0,0,0-1.13,1.46,13,13,0,0,0,3.92,3.06A1,1,0,0,0,280.53,380Z"/><path class="cls-23" d="M173.12,371.62c2,.78,4.29.45,6.38.57,1.37.07,1.7-2.21.32-2.43-2.15-.34-4.59-1-6.7-.26A1.11,1.11,0,0,0,173.12,371.62Z"/><path class="cls-23" d="M176.62,381.56c1.78-1.1,3.08-2.89,4.44-4.46.55-.64-.21-1.82-1-1.24-1.7,1.31-3.62,2.55-4.85,4.32C174.66,381,175.8,382.06,176.62,381.56Z"/><path class="cls-23" d="M176.68,362.51a12.83,12.83,0,0,0,4,2.95A.93.93,0,0,0,181.8,364a12.81,12.81,0,0,0-3.92-3.06A1,1,0,0,0,176.68,362.51Z"/><path class="cls-6" d="M212.84,317.6a.14.14,0,0,0-.27,0,100.79,100.79,0,0,0-.59,22.1.73.73,0,0,0,1.45,0A101.41,101.41,0,0,0,212.84,317.6Z"/><path class="cls-6" d="M244.88,341.33c-10.44-1-22-.48-32.47.12-.44,0-.44.46,0,.48,10.49.61,22,1.11,32.47.13C245.54,342,245.54,341.39,244.88,341.33Z"/><path class="cls-6" d="M218.72,331.38c0-.42-.89-.42-.92,0-.14,2.6-.84,5.51-.2,8.08.12.47,1.2.47,1.32,0C219.56,336.89,218.86,334,218.72,331.38Z"/><path class="cls-6" d="M224.28,328.05a.46.46,0,0,0-.92,0c-.14,3.56-.84,7.56-.2,11.07a.69.69,0,0,0,1.32,0C225.12,335.61,224.42,331.61,224.28,328.05Z"/><path class="cls-6" d="M230.57,324.22c0-.77-.89-.77-.92,0-.14,4.74-.84,10.06-.2,14.74a.66.66,0,0,0,1.32,0C231.41,334.28,230.71,329,230.57,324.22Z"/><path class="cls-6" d="M238,317.17c0-1.12-.89-1.12-.92,0-.14,6.91-.84,14.68-.2,21.49.12,1.25,1.2,1.25,1.32,0C238.87,331.85,238.17,324.08,238,317.17Z"/><path class="cls-6" d="M235.84,312.54c-2,1.65-5.45,7-7.89,5.38-1.1-.73-1.87.26-2.61,1-1.21,1.2-2,3.1-3.7,3.16-2.3.1-3.36,2.71-4.36,4.53-.07.12.09.23.19.14,1.3-1.15,2.76-4,4.7-2.88a.65.65,0,0,0,.75-.09c2.19-1.74,3-5.61,6.35-3.31a.68.68,0,0,0,.84-.11,47.61,47.61,0,0,1,6.85-6.69C237.76,313,236.62,311.88,235.84,312.54Z"/><path class="cls-6" d="M239.5,312.23c0-.4,0-.93-.46-1.12a4.75,4.75,0,0,0-3.1-.38c-.28.08-.32.55,0,.61a7.54,7.54,0,0,1,2.23.61l.12.08c0,.21,0,.42,0,.63a2,2,0,0,0,.18,1.12.5.5,0,0,0,.86,0A3,3,0,0,0,239.5,312.23Z"/><path class="cls-6" d="M340.71,159.12c-21.3,8.9-38.32,25.37-44.7,49.46-8.12,30.68,5,65.8,31.28,83.62s63.75,17.05,89.25-1.83,37.2-54.51,27.83-84.82c-9.59-31-42.88-57.46-76.15-53.53A102.54,102.54,0,0,0,340.71,159.12Z"/><path class="cls-7" d="M359.51,169.77c-7.9,3.3-14.22,9.41-16.59,18.36A28.64,28.64,0,1,0,398,187c-3.56-11.51-15.91-21.32-28.26-19.86A37.87,37.87,0,0,0,359.51,169.77Z"/><path class="cls-27" d="M359.51,165.14c-7.9,3.31-14.22,9.42-16.59,18.36A28.64,28.64,0,1,0,398,182.37c-3.56-11.51-15.91-21.32-28.26-19.86A38.24,38.24,0,0,0,359.51,165.14Z"/><path class="cls-27" d="M359.51,165.14c-7.9,3.31-14.22,9.42-16.59,18.36A28.64,28.64,0,1,0,398,182.37c-3.56-11.51-15.91-21.32-28.26-19.86A38.24,38.24,0,0,0,359.51,165.14Z"/><path class="cls-28" d="M428.45,168.38a18.32,18.32,0,0,0-11.11,12.31,19.2,19.2,0,1,0,36.9-.76c-2.39-7.71-10.67-14.29-18.95-13.31A25.68,25.68,0,0,0,428.45,168.38Z"/><path class="cls-28" d="M387.65,204.11a28.46,28.46,0,0,1-45.18-18.57,28.62,28.62,0,1,0,56.27.1A29.21,29.21,0,0,1,387.65,204.11Z"/><path class="cls-7" d="M416.54,273.81c-25.5,18.88-63,19.64-89.25,1.83-18.73-12.71-30.77-34.21-33.2-56.63C291,246.9,304,276.38,327.29,292.2c26.25,17.82,63.75,17.05,89.25-1.83,21.81-16.14,33.51-44.54,30.58-71.38C444.83,240.38,433.89,261,416.54,273.81Z"/><path class="cls-7" d="M416.74,263.61c-5,2.68-9.41,6.3-14.32,9.12s-10.16,4.88-15,7.74c-.59.35-.16,1.11.43,1,5.7-.82,11.16-3.3,16.29-5.84s10.56-5.4,14.59-9.49A1.64,1.64,0,0,0,416.74,263.61Z"/><path class="cls-7" d="M429.49,251.15a58.46,58.46,0,0,0-6.76,6.31,1.39,1.39,0,0,0,2,2,59.28,59.28,0,0,0,6.32-6.75C431.67,251.8,430.35,250.48,429.49,251.15Z"/><path class="cls-7" d="M333.84,268.86a112.49,112.49,0,0,1-13.53-10.69c-4.57-4.45-7.75-9.77-11.06-15.15a.72.72,0,0,0-1.31.55c3.54,11.5,13.31,23.08,24.34,27.95A1.54,1.54,0,0,0,333.84,268.86Z"/><path class="cls-7" d="M352.42,277.24a26.19,26.19,0,0,0-9.05-2,1,1,0,0,0-.51,1.9,26.82,26.82,0,0,0,9.24,2.46C353.53,279.79,353.6,277.67,352.42,277.24Z"/><path class="cls-7" d="M306.19,237.25a20.61,20.61,0,0,0-2-5.14,1.07,1.07,0,0,0-2,.82,20.4,20.4,0,0,0,2.3,5A.88.88,0,0,0,306.19,237.25Z"/><path class="cls-7" d="M437.84,235.67a2.81,2.81,0,0,0-1.37,1.31,1,1,0,0,0,1.4,1.39,2.73,2.73,0,0,0,1.3-1.36A1,1,0,0,0,437.84,235.67Z"/><path class="cls-7" d="M399.9,208.1c-2.45,2.93-4.4,6.23-6.92,9.14a.76.76,0,0,0,1.08,1.07c3-2.44,6-5.64,7.29-9.37A.87.87,0,0,0,399.9,208.1Z"/><path class="cls-7" d="M401.82,203.18l-.33.4c-.84,1,1,1.87,1.28.74l.12-.52C403,203.22,402.25,202.65,401.82,203.18Z"/><path class="cls-7" d="M346.07,213.12c-1.7-2.71-3.57-5-4.61-8.12a.52.52,0,0,0-1,.27c.63,3.15,1.87,6.66,4.34,8.83C345.46,214.68,346.58,213.94,346.07,213.12Z"/><path class="cls-7" d="M350.51,219.83a14.55,14.55,0,0,0-1-1.12,10.39,10.39,0,0,0-1.12-.86c-.37-.26-.89.26-.63.63a10.39,10.39,0,0,0,.86,1.12,12.87,12.87,0,0,0,1.12,1A.52.52,0,0,0,350.51,219.83Z"/><path class="cls-28" d="M364,205.57a30.93,30.93,0,0,1-7.53-3.39,19.41,19.41,0,0,1-3.31-3c-.9-1-1.45-2.16-2.6-2.82a.13.13,0,0,0-.2.11c-.08,2.68,3.19,5.48,5.07,7a15.55,15.55,0,0,0,8.36,3.6C364.71,207.21,364.8,205.83,364,205.57Z"/><path class="cls-28" d="M372.8,206.43a11.73,11.73,0,0,0-4.38-.2c-.86.07-1.16,1.36-.22,1.58a12.34,12.34,0,0,0,4.35.44C373.53,208.12,373.89,206.73,372.8,206.43Z"/><path class="cls-28" d="M389.8,198.08a24.37,24.37,0,0,0-4.09,2.85,41.52,41.52,0,0,0-3.76,2.64c-.46.41,0,1,.55,1a16.17,16.17,0,0,0,4.78-2,11.62,11.62,0,0,0,4-3C392,198.56,390.64,197.73,389.8,198.08Z"/><path class="cls-28" d="M394.61,194a.94.94,0,0,0-1.06-.44,3.16,3.16,0,0,0-2.1,2.23c-.37,1.17,1.26,1.74,1.89.8.34-.5.76-1,1.13-1.45A1,1,0,0,0,394.61,194Z"/><path class="cls-27" d="M342.59,169.29a5.92,5.92,0,0,0-1.58-1.13c-.87-.51-1.53.74-.76,1.31l.7.53a3.15,3.15,0,0,0,1,.46C342.61,170.7,343,169.78,342.59,169.29Z"/><path class="cls-27" d="M337.67,182a2.58,2.58,0,0,0-.95-.54l-1.06-.31a.61.61,0,0,0-.47,1.11l1,.55a2.56,2.56,0,0,0,1.06.31A.66.66,0,0,0,337.67,182Z"/><path class="cls-27" d="M336.81,194.94a11,11,0,0,1-2,.44.6.6,0,0,0-.16,1.17,3,3,0,0,0,2.84-.49C338,195.58,337.42,194.81,336.81,194.94Z"/><path class="cls-27" d="M341,209.77a.77.77,0,0,0-.86-.35,6.18,6.18,0,0,0-2.78,2.14.68.68,0,0,0,.75,1,6.12,6.12,0,0,0,2.77-1.85A.79.79,0,0,0,341,209.77Z"/><path class="cls-27" d="M399.08,169.29a5.92,5.92,0,0,1,1.58-1.13c.88-.51,1.53.74.77,1.31l-.71.53a3.1,3.1,0,0,1-1,.46C399.06,170.7,398.65,169.78,399.08,169.29Z"/><path class="cls-27" d="M404,182a2.43,2.43,0,0,1,.95-.54l1.06-.31a.61.61,0,0,1,.47,1.11l-1,.55a2.65,2.65,0,0,1-1.06.31A.66.66,0,0,1,404,182Z"/><path class="cls-27" d="M404.87,194.94a10.81,10.81,0,0,0,2,.44.6.6,0,0,1,.15,1.17,3,3,0,0,1-2.83-.49C403.68,195.58,404.26,194.81,404.87,194.94Z"/><path class="cls-27" d="M400.65,209.77a.78.78,0,0,1,.86-.35,6.21,6.21,0,0,1,2.79,2.14.68.68,0,0,1-.76,1,6.18,6.18,0,0,1-2.77-1.85A.82.82,0,0,1,400.65,209.77Z"/><text class="cls-10" transform="translate(412.94 195.46)">02</text><path class="cls-27" d="M319.62,164c-11.66,8-20.68,21.87-24.57,35.33a.37.37,0,0,0,.67.28,145.9,145.9,0,0,1,10.75-17.55c4.35-5.92,9.57-10.89,14.55-16.24C321.89,164.88,320.74,163.22,319.62,164Z"/><path class="cls-27" d="M341.47,152.17a38.06,38.06,0,0,0-13.24,7.19c-.62.5.17,1.27.77,1A123.06,123.06,0,0,0,342.25,154,1,1,0,0,0,341.47,152.17Z"/><path class="cls-27" d="M417.9,159c-5.22-6.42-13.42-10-21.31-12a1.17,1.17,0,0,0-.62,2.26c7.77,2.57,13.87,7,20.55,11.56C417.67,161.59,418.66,160,417.9,159Z"/><path class="cls-27" d="M424.94,164.64a15.46,15.46,0,0,1-1.83-2,1,1,0,0,0-1.12-.46,1,1,0,0,0-.69,1.22,4.33,4.33,0,0,0,.78,1.86,2.78,2.78,0,0,0,2.12,1.18,1,1,0,0,0,.9-.51A1.09,1.09,0,0,0,424.94,164.64Z"/><path class="cls-27" d="M452.33,206.3c-.4-.8-1.51-.21-1.36.57,2.14,11,3.39,21.29,2.63,32.57a1.16,1.16,0,0,0,2.27.31C458.33,228.92,457.45,216.3,452.33,206.3Z"/><path class="cls-27" d="M453.52,248a15.16,15.16,0,0,0-1.17,5.44c-.09,1.34,1.8,1.42,2.22.3a14.35,14.35,0,0,0,1.08-5.16C455.63,247.49,454,246.9,453.52,248Z"/><path class="cls-27" d="M334.55,301.33A136.66,136.66,0,0,1,317,288.52c-5.92-5.25-10.59-11.33-15.41-17.56a.47.47,0,0,0-.81.47c6.59,13.51,19.18,25.33,32.74,31.58A1,1,0,0,0,334.55,301.33Z"/><path class="cls-27" d="M353.75,306.7a35.11,35.11,0,0,0-10.76-2c-1,0-1.58,1.55-.56,2a35.88,35.88,0,0,0,10.95,2.69C355,309.59,355.15,307.15,353.75,306.7Z"/><path class="cls-27" d="M400.81,304a0,0,0,0,0,0,.09A0,0,0,1,0,400.81,304Z"/><path class="cls-27" d="M399.84,304a0,0,0,0,0,0,.09A0,0,0,1,0,399.84,304Z"/><path class="cls-27" d="M434.85,278.34c-9.48,11.17-21.39,18.14-34,25.16a.06.06,0,0,0,0,.11c3,.22,5.6-1.35,8.22-2.57,3.69-1.73,7.3-3.61,10.8-5.69,6.65-3.94,12.94-8.83,16.59-15.77C437,278.6,435.63,277.42,434.85,278.34Z"/><path class="cls-27" d="M442.78,268.65a20,20,0,0,1-2.61,3.32c-.8.76.43,2,1.2,1.21a9.84,9.84,0,0,0,2.63-4C444.23,268.4,443.2,268.06,442.78,268.65Z"/><path class="cls-27" d="M394.14,305.37l-4.48.92a.41.41,0,0,0,0,.79,7.59,7.59,0,0,0,5-.48C395.39,306.27,394.84,305.23,394.14,305.37Z"/><text class="cls-11" transform="translate(325.2 254.8)"><tspan class="cls-12">L</tspan><tspan x="3.57" y="0">o</tspan><tspan class="cls-13" x="7.85" y="0">r</tspan><tspan x="10.32" y="0">em ipsum dolor sit ame</tspan><tspan class="cls-14" x="86.48" y="0">t</tspan><tspan x="89.03" y="0">, </tspan><tspan x="-2.6" y="9.35">elitr sape</tspan><tspan class="cls-15" x="26.93" y="9.35">r</tspan><tspan x="29.4" y="9.35">et a</tspan><tspan class="cls-16" x="41.3" y="9.35">c</tspan><tspan x="44.74" y="9.35">cumsan et ne</tspan><tspan class="cls-13" x="88.22" y="9.35">c</tspan><tspan x="91.64" y="9.35">, </tspan><tspan class="cls-17" x="5.52" y="18.71">a</tspan><tspan x="9.24" y="18.71">t p</tspan><tspan class="cls-15" x="17.91" y="18.71">r</tspan><tspan x="20.38" y="18.71">o </tspan><tspan class="cls-16" x="26.31" y="18.71">c</tspan><tspan x="29.76" y="18.71">e</tspan><tspan class="cls-18" x="33.67" y="18.71">t</tspan><tspan x="36.2" y="18.71">e</tspan><tspan class="cls-15" x="40.1" y="18.71">r</tspan><tspan x="42.58" y="18.71">o mandamus </tspan><tspan x="6.66" y="28.06">indo</tspan><tspan class="cls-19" x="21.49" y="28.06">c</tspan><tspan x="25.08" y="28.06">tum, per </tspan><tspan class="cls-15" x="54.26" y="28.06">r</tspan><tspan x="56.74" y="28.06">ecusabo </tspan></text><text class="cls-29" transform="translate(311.17 240.29)"><tspan class="cls-21">L</tspan><tspan x="9.97" y="0">o</tspan><tspan class="cls-22" x="21.91" y="0">r</tspan><tspan x="28.81" y="0">em ipsum</tspan></text><path class="cls-27" d="M426.68,233.38c-2-.78-4.28-.46-6.37-.57-1.38-.08-1.71,2.2-.33,2.42,2.15.34,4.59,1,6.7.26A1.1,1.1,0,0,0,426.68,233.38Z"/><path class="cls-27" d="M423.18,223.44c-1.78,1.09-3.08,2.88-4.43,4.45-.55.64.2,1.83,1,1.25,1.69-1.31,3.61-2.55,4.84-4.33C425.14,224,424,222.93,423.18,223.44Z"/><path class="cls-27" d="M423.12,242.49a12.7,12.7,0,0,0-4-3A.93.93,0,0,0,418,241a12.86,12.86,0,0,0,3.92,3A1,1,0,0,0,423.12,242.49Z"/><path class="cls-27" d="M315.71,234.07c2,.78,4.29.46,6.38.57,1.37.08,1.7-2.2.33-2.42-2.16-.34-4.6-1-6.71-.26A1.11,1.11,0,0,0,315.71,234.07Z"/><path class="cls-27" d="M319.22,244c1.77-1.09,3.07-2.88,4.43-4.45.55-.64-.21-1.83-1-1.25-1.7,1.32-3.62,2.55-4.85,4.33C317.26,243.48,318.39,244.52,319.22,244Z"/><path class="cls-27" d="M319.27,225a12.86,12.86,0,0,0,4,3,.93.93,0,0,0,1.12-1.46,12.62,12.62,0,0,0-3.92-3.05A1,1,0,0,0,319.27,225Z"/><path class="cls-6" d="M375.2,200.38c-1.34-1.19-2.74-.69-4.4-.51a28,28,0,0,0-5.85.89.74.74,0,0,0,0,1.42,24.53,24.53,0,0,0,5.14.57c1.77.12,3.73.73,5.11-.63A1.23,1.23,0,0,0,375.2,200.38Z"/><path class="cls-6" d="M374.21,204.23c-1.29-.61-2.57-.33-4-.22s-2.88,0-4.09.61a.55.55,0,0,0,0,.93c1.07.69,2.53.7,3.76.91s2.72.72,4,.25C374.88,206.35,375.38,204.78,374.21,204.23Z"/><path class="cls-6" d="M371.93,208.1c-.59-1-2.62-1-3,.2a.56.56,0,0,0,.15.56c.34.31.65.28,1.07.37a2.07,2.07,0,0,0,1.53-.1A.75.75,0,0,0,371.93,208.1Z"/><path class="cls-6" d="M381.4,182.93c-.95-4.51-6-6.82-10.16-7s-9,2.71-10.49,6.73a12.05,12.05,0,0,0-.34,7.53c.92,3.44,4.48,5.14,5.07,8.82a.32.32,0,0,0,.62,0c.8-3-1.17-5.06-2.85-7.45-3.76-5.37.36-11.87,5.88-13.47a9.46,9.46,0,0,1,7.34,1.28c4.33,2.51,3.73,7.47,1.72,11.19-1.71,3.19-3.75,4.27-3.5,8a.19.19,0,0,0,.38,0c.21-2.89,3.88-5.86,5.35-8.38A10,10,0,0,0,381.4,182.93Z"/><path class="cls-6" d="M377,183c-.78-1.76-3.61-3.61-5.57-3.17a0,0,0,0,0,0,.07c.73.57,1.6.94,2.37,1.46a21.27,21.27,0,0,1,2.32,2.33A.57.57,0,0,0,377,183Z"/><path class="cls-6" d="M377.81,185c-.31-.63-1.42-.18-1.14.48a5.15,5.15,0,0,0,.92,1.61c.26.29.86.08.81-.33A5,5,0,0,0,377.81,185Z"/><path class="cls-6" d="M373.63,193.27a10.83,10.83,0,0,0-1.69-2.8.62.62,0,0,0-1.11.15c-.29.82-.58,1.64-.84,2.47-.75-.73-1.48-1.5-2.19-2.27a.49.49,0,0,0-.81.21,3.35,3.35,0,0,0-.41,2,.24.24,0,0,0,.39.1,2.29,2.29,0,0,0,.7-1.1c.76.74,1.51,1.49,2.2,2.27a.48.48,0,0,0,.75-.09c.33-.69.62-1.39.9-2.1a7,7,0,0,0,1.3,1.62C373.17,194,373.79,193.76,373.63,193.27Z"/><path class="cls-6" d="M368.25,195.57a0,0,0,0,0-.06,0c.05.4.22.79.31,1.19a3.38,3.38,0,0,0,.49,1.28.39.39,0,0,0,.72-.19A2.86,2.86,0,0,0,368.25,195.57Z"/><path class="cls-6" d="M372.18,195.62c0-.4-.63-.54-.73-.1a3.93,3.93,0,0,0,.07,2.6c.24.48.88.2.92-.24A13.38,13.38,0,0,0,372.18,195.62Z"/><path class="cls-6" d="M360.81,195.91a9.11,9.11,0,0,0-2.49,2.57.53.53,0,0,0,.75.74,9,9,0,0,0,2.56-2.48A.61.61,0,0,0,360.81,195.91Z"/><path class="cls-6" d="M356,189.44a6.11,6.11,0,0,0-1.13.53c-.43.25-.91.4-1.33.65a.38.38,0,0,0,.19.71,3.63,3.63,0,0,0,2.82-.94A.57.57,0,0,0,356,189.44Z"/><path class="cls-6" d="M357.44,179.31a5.65,5.65,0,0,0-2.19-1.13c-.34-.14-.64.38-.36.62a5.73,5.73,0,0,0,2.07,1.34A.5.5,0,0,0,357.44,179.31Z"/><path class="cls-6" d="M365.28,173.44a18.14,18.14,0,0,0-2.55-3.44.44.44,0,0,0-.74.43,11.09,11.09,0,0,0,.92,1.86,5.49,5.49,0,0,0,1.53,1.79A.53.53,0,0,0,365.28,173.44Z"/><path class="cls-6" d="M375.5,169.83a.48.48,0,0,0-.93-.26,4.73,4.73,0,0,0,.06,4.42c.28.41,1,.3,1-.27A13.35,13.35,0,0,1,375.5,169.83Z"/><path class="cls-6" d="M385.27,175.52h-.07c-.19,0-.33.17-.34.33,0-.17-.25.12-.3.16a4.17,4.17,0,0,0-.6.59,2.62,2.62,0,0,0-.52,1.3.57.57,0,0,0,1,.43,10.24,10.24,0,0,0,.79-1.26c.23-.44.49-.73.42-1.24C385.65,175.64,385.44,175.54,385.27,175.52Z"/><path class="cls-6" d="M387.37,183.7a3,3,0,0,0-2.72,1.92c-.22.56.53,1.07,1,.76a9.79,9.79,0,0,0,1.09-.83,12.13,12.13,0,0,0,1.07-.82A.61.61,0,0,0,387.37,183.7Z"/><path class="cls-6" d="M385.44,194.62a8.89,8.89,0,0,0-3.06-1.16.57.57,0,0,0-.43,1,8.73,8.73,0,0,0,3,1.34A.66.66,0,0,0,385.44,194.62Z"/><path class="cls-6" d="M379,198c-.32-.39-1,0-.83.48.25.75.79,2,1.77,1.93a.46.46,0,0,0,.46-.45C380.4,199.18,379.49,198.6,379,198Z"/><path class="cls-6" d="M47.08,159.12C25.79,168,8.77,184.49,2.39,208.58c-8.12,30.68,5,65.8,31.27,83.62s63.75,17.05,89.26-1.83,37.19-54.51,27.82-84.82c-9.59-31-42.87-57.46-76.15-53.53A102.54,102.54,0,0,0,47.08,159.12Z"/><path class="cls-7" d="M65.88,169.77c-7.9,3.3-14.22,9.41-16.58,18.36a29.41,29.41,0,0,0,11.6,31A29.41,29.41,0,0,0,94,218.48,29.41,29.41,0,0,0,104.35,187c-3.56-11.51-15.91-21.32-28.26-19.86A38,38,0,0,0,65.88,169.77Z"/><path class="cls-30" d="M65.88,165.14c-7.9,3.31-14.22,9.42-16.58,18.36a29.41,29.41,0,0,0,11.6,31A29.41,29.41,0,0,0,94,213.85a29.4,29.4,0,0,0,10.33-31.48c-3.56-11.51-15.91-21.32-28.26-19.86A38.34,38.34,0,0,0,65.88,165.14Z"/><path class="cls-30" d="M65.88,165.14c-7.9,3.31-14.22,9.42-16.58,18.36a29.41,29.41,0,0,0,11.6,31A29.41,29.41,0,0,0,94,213.85a29.4,29.4,0,0,0,10.33-31.48c-3.56-11.51-15.91-21.32-28.26-19.86A38.34,38.34,0,0,0,65.88,165.14Z"/><path class="cls-31" d="M134.83,168.38a18.34,18.34,0,0,0-11.12,12.31,19.2,19.2,0,1,0,36.9-.76c-2.38-7.71-10.66-14.29-18.94-13.31A25.58,25.58,0,0,0,134.83,168.38Z"/><path class="cls-31" d="M94,204.11a29.42,29.42,0,0,1-33.12.68,29.28,29.28,0,0,1-12-19.25,29.5,29.5,0,0,0,12,29A29.41,29.41,0,0,0,94,213.85a29.51,29.51,0,0,0,11.09-28.21A29.17,29.17,0,0,1,94,204.11Z"/><path class="cls-7" d="M122.92,273.81c-25.51,18.88-63,19.64-89.26,1.83C14.94,262.93,2.89,241.43.46,219c-3.08,27.89,9.88,57.37,33.2,73.19,26.26,17.82,63.75,17.05,89.26-1.83,21.81-16.14,33.5-44.54,30.57-71.38C151.21,240.38,140.26,261,122.92,273.81Z"/><path class="cls-7" d="M123.11,263.61c-5,2.68-9.41,6.3-14.32,9.12s-10.16,4.88-15,7.74c-.59.35-.16,1.11.44,1,5.69-.82,11.16-3.3,16.29-5.84s10.55-5.4,14.58-9.49A1.64,1.64,0,0,0,123.11,263.61Z"/><path class="cls-7" d="M135.86,251.15a58.37,58.37,0,0,0-6.75,6.31,1.39,1.39,0,0,0,2,2,60.1,60.1,0,0,0,6.31-6.75C138.05,251.8,136.73,250.48,135.86,251.15Z"/><path class="cls-7" d="M40.21,268.86a112.49,112.49,0,0,1-13.53-10.69c-4.57-4.45-7.75-9.77-11.06-15.15a.72.72,0,0,0-1.31.55c3.55,11.5,13.32,23.08,24.35,27.95A1.54,1.54,0,0,0,40.21,268.86Z"/><path class="cls-7" d="M58.79,277.24a26.14,26.14,0,0,0-9-2,1,1,0,0,0-.52,1.9,26.88,26.88,0,0,0,9.24,2.46C59.9,279.79,60,277.67,58.79,277.24Z"/><path class="cls-7" d="M12.57,237.25a20.63,20.63,0,0,0-2-5.14,1.07,1.07,0,0,0-1.95.82,20.4,20.4,0,0,0,2.3,5A.89.89,0,0,0,12.57,237.25Z"/><path class="cls-7" d="M144.21,235.67a2.75,2.75,0,0,0-1.36,1.31,1,1,0,0,0,1.39,1.39,2.69,2.69,0,0,0,1.3-1.36A1,1,0,0,0,144.21,235.67Z"/><path class="cls-7" d="M106.28,208.1c-2.46,2.93-4.41,6.23-6.92,9.14a.76.76,0,0,0,1.07,1.07c3-2.44,6-5.64,7.3-9.37A.87.87,0,0,0,106.28,208.1Z"/><path class="cls-7" d="M108.2,203.18l-.33.4c-.84,1,1,1.87,1.27.74l.13-.52C109.41,203.22,108.63,202.65,108.2,203.18Z"/><path class="cls-7" d="M52.44,213.12c-1.7-2.71-3.56-5-4.61-8.12a.52.52,0,0,0-1,.27c.64,3.15,1.87,6.66,4.34,8.83C51.84,214.68,53,213.94,52.44,213.12Z"/><path class="cls-7" d="M56.88,219.83a12.63,12.63,0,0,0-1-1.12,9.49,9.49,0,0,0-1.12-.86c-.37-.26-.89.26-.63.63A10.48,10.48,0,0,0,55,219.6a12.73,12.73,0,0,0,1.11,1A.52.52,0,0,0,56.88,219.83Z"/><path class="cls-31" d="M70.37,205.57a30.76,30.76,0,0,1-7.53-3.39,19.41,19.41,0,0,1-3.31-3c-.91-1-1.46-2.16-2.6-2.82a.14.14,0,0,0-.21.11c-.08,2.68,3.19,5.48,5.08,7a15.52,15.52,0,0,0,8.36,3.6C71.09,207.21,71.17,205.83,70.37,205.57Z"/><path class="cls-31" d="M79.17,206.43a11.73,11.73,0,0,0-4.38-.2c-.86.07-1.16,1.36-.22,1.58a12.4,12.4,0,0,0,4.36.44A.93.93,0,0,0,79.17,206.43Z"/><path class="cls-31" d="M96.17,198.08a24.78,24.78,0,0,0-4.09,2.85,43,43,0,0,0-3.76,2.64c-.46.41,0,1,.55,1a16.17,16.17,0,0,0,4.78-2,11.62,11.62,0,0,0,4-3C98.32,198.56,97,197.73,96.17,198.08Z"/><path class="cls-31" d="M101,194a1,1,0,0,0-1.07-.44,3.2,3.2,0,0,0-2.1,2.23c-.36,1.17,1.27,1.74,1.9.8.33-.5.75-1,1.12-1.45A1,1,0,0,0,101,194Z"/><path class="cls-30" d="M49,169.29a5.72,5.72,0,0,0-1.57-1.13c-.88-.51-1.53.74-.77,1.31l.7.53a3.15,3.15,0,0,0,1,.46C49,170.7,49.4,169.78,49,169.29Z"/><path class="cls-30" d="M44,182a2.5,2.5,0,0,0-.95-.54L42,181.19a.61.61,0,0,0-.47,1.11l1,.55a2.65,2.65,0,0,0,1.06.31A.66.66,0,0,0,44,182Z"/><path class="cls-30" d="M43.18,194.94a10.81,10.81,0,0,1-2,.44.6.6,0,0,0-.16,1.17,3,3,0,0,0,2.84-.49C44.37,195.58,43.79,194.81,43.18,194.94Z"/><path class="cls-30" d="M47.4,209.77a.79.79,0,0,0-.86-.35,6.21,6.21,0,0,0-2.79,2.14.68.68,0,0,0,.76,1,6.18,6.18,0,0,0,2.77-1.85A.82.82,0,0,0,47.4,209.77Z"/><path class="cls-30" d="M105.46,169.29a6,6,0,0,1,1.57-1.13c.88-.51,1.53.74.77,1.31l-.7.53a3.15,3.15,0,0,1-1,.46C105.44,170.7,105,169.78,105.46,169.29Z"/><path class="cls-30" d="M110.38,182a2.58,2.58,0,0,1,1-.54l1.06-.31a.61.61,0,0,1,.47,1.11l-1,.55a2.65,2.65,0,0,1-1.06.31A.66.66,0,0,1,110.38,182Z"/><path class="cls-30" d="M111.24,194.94a10.81,10.81,0,0,0,2,.44.6.6,0,0,1,.16,1.17,3,3,0,0,1-2.84-.49C110.05,195.58,110.63,194.81,111.24,194.94Z"/><path class="cls-30" d="M107,209.77a.77.77,0,0,1,.86-.35,6.23,6.23,0,0,1,2.78,2.14.68.68,0,0,1-.76,1,6.15,6.15,0,0,1-2.76-1.85A.79.79,0,0,1,107,209.77Z"/><text class="cls-32" transform="translate(122.82 192.57)">04</text><path class="cls-30" d="M26,164c-11.66,8-20.68,21.87-24.57,35.33a.37.37,0,0,0,.67.28,148.5,148.5,0,0,1,10.75-17.55c4.35-5.92,9.57-10.89,14.55-16.24C28.26,164.88,27.12,163.22,26,164Z"/><path class="cls-30" d="M47.85,152.17a38.1,38.1,0,0,0-13.25,7.19c-.62.5.17,1.27.78,1A122.91,122.91,0,0,0,48.62,154,1,1,0,0,0,47.85,152.17Z"/><path class="cls-30" d="M124.27,159c-5.22-6.42-13.42-10-21.3-12a1.17,1.17,0,0,0-.63,2.26c7.77,2.57,13.87,7,20.55,11.56C124,161.59,125,160,124.27,159Z"/><path class="cls-30" d="M131.31,164.64a16.21,16.21,0,0,1-1.83-2,1,1,0,0,0-1.11-.46,1,1,0,0,0-.69,1.22,4.19,4.19,0,0,0,.77,1.86,2.8,2.8,0,0,0,2.13,1.18,1,1,0,0,0,.89-.51A1.07,1.07,0,0,0,131.31,164.64Z"/><path class="cls-30" d="M158.71,206.3c-.41-.8-1.52-.21-1.37.57,2.14,11,3.39,21.29,2.63,32.57a1.16,1.16,0,0,0,2.27.31C164.71,228.92,163.82,216.3,158.71,206.3Z"/><path class="cls-30" d="M159.9,248a15,15,0,0,0-1.17,5.44c-.09,1.34,1.8,1.42,2.21.3a14.35,14.35,0,0,0,1.08-5.16C162,247.49,160.4,246.9,159.9,248Z"/><path class="cls-30" d="M40.92,301.33a136.56,136.56,0,0,1-17.5-12.81C17.49,283.27,12.82,277.19,8,271a.47.47,0,0,0-.82.47c6.59,13.51,19.18,25.33,32.75,31.58A1,1,0,0,0,40.92,301.33Z"/><path class="cls-30" d="M60.12,306.7a35.06,35.06,0,0,0-10.76-2c-1,0-1.58,1.55-.55,2a35.88,35.88,0,0,0,10.95,2.69C61.35,309.59,61.52,307.15,60.12,306.7Z"/><path class="cls-30" d="M107.19,304a0,0,0,1,0,0,.09A0,0,0,0,0,107.19,304Z"/><path class="cls-30" d="M106.21,304a0,0,0,0,0,0,.09A0,0,0,1,0,106.21,304Z"/><path class="cls-30" d="M141.23,278.34c-9.48,11.17-21.4,18.14-34,25.16a.06.06,0,0,0,0,.11c3,.22,5.61-1.35,8.22-2.57,3.69-1.73,7.3-3.61,10.8-5.69,6.65-3.94,13-8.83,16.6-15.77C143.35,278.6,142,277.42,141.23,278.34Z"/><path class="cls-30" d="M149.15,268.65a20,20,0,0,1-2.61,3.32c-.8.76.43,2,1.21,1.21a10,10,0,0,0,2.63-4C150.6,268.4,149.57,268.06,149.15,268.65Z"/><path class="cls-30" d="M100.51,305.37l-4.47.92a.41.41,0,0,0,0,.79,7.6,7.6,0,0,0,5-.48C101.76,306.27,101.21,305.23,100.51,305.37Z"/><text class="cls-11" transform="translate(31.57 254.8)"><tspan class="cls-12">L</tspan><tspan x="3.57" y="0">o</tspan><tspan class="cls-13" x="7.85" y="0">r</tspan><tspan x="10.32" y="0">em ipsum dolor sit ame</tspan><tspan class="cls-14" x="86.48" y="0">t</tspan><tspan x="89.03" y="0">, </tspan><tspan x="-2.6" y="9.35">elitr sape</tspan><tspan class="cls-15" x="26.93" y="9.35">r</tspan><tspan x="29.4" y="9.35">et a</tspan><tspan class="cls-16" x="41.3" y="9.35">c</tspan><tspan x="44.74" y="9.35">cumsan et ne</tspan><tspan class="cls-13" x="88.22" y="9.35">c</tspan><tspan x="91.64" y="9.35">, </tspan><tspan class="cls-17" x="5.52" y="18.71">a</tspan><tspan x="9.24" y="18.71">t p</tspan><tspan class="cls-15" x="17.91" y="18.71">r</tspan><tspan x="20.38" y="18.71">o </tspan><tspan class="cls-16" x="26.31" y="18.71">c</tspan><tspan x="29.76" y="18.71">e</tspan><tspan class="cls-18" x="33.67" y="18.71">t</tspan><tspan x="36.2" y="18.71">e</tspan><tspan class="cls-15" x="40.1" y="18.71">r</tspan><tspan x="42.58" y="18.71">o mandamus </tspan><tspan x="6.66" y="28.06">indo</tspan><tspan class="cls-19" x="21.49" y="28.06">c</tspan><tspan x="25.08" y="28.06">tum, per </tspan><tspan class="cls-15" x="54.26" y="28.06">r</tspan><tspan x="56.74" y="28.06">ecusabo </tspan></text><text class="cls-33" transform="translate(17.54 240.29)"><tspan class="cls-21">L</tspan><tspan x="9.97" y="0">o</tspan><tspan class="cls-22" x="21.91" y="0">r</tspan><tspan x="28.81" y="0">em ipsum</tspan></text><path class="cls-30" d="M133.06,233.38c-2-.78-4.29-.46-6.38-.57-1.37-.08-1.71,2.2-.33,2.42,2.16.34,4.59,1,6.71.26A1.11,1.11,0,0,0,133.06,233.38Z"/><path class="cls-30" d="M129.55,223.44c-1.78,1.09-3.08,2.88-4.43,4.45-.55.64.21,1.83,1,1.25,1.7-1.31,3.62-2.55,4.85-4.33C131.51,224,130.38,222.93,129.55,223.44Z"/><path class="cls-30" d="M129.5,242.49a12.86,12.86,0,0,0-4-3,.93.93,0,0,0-1.12,1.46,12.62,12.62,0,0,0,3.92,3A1,1,0,0,0,129.5,242.49Z"/><path class="cls-30" d="M22.09,234.07c2,.78,4.28.46,6.37.57,1.38.08,1.71-2.2.33-2.42-2.15-.34-4.59-1-6.7-.26A1.1,1.1,0,0,0,22.09,234.07Z"/><path class="cls-30" d="M25.59,244c1.78-1.09,3.08-2.88,4.43-4.45.55-.64-.2-1.83-1-1.25-1.7,1.32-3.61,2.55-4.85,4.33C23.63,243.48,24.76,244.52,25.59,244Z"/><path class="cls-30" d="M25.64,225a12.86,12.86,0,0,0,4,3,.94.94,0,0,0,1.13-1.46,12.78,12.78,0,0,0-3.93-3.05A1,1,0,0,0,25.64,225Z"/><path class="cls-6" d="M93.25,180.33c-1.19-.75-3.16-.6-4.7-.26-.11-.66-.23-1.33-.32-2a17.2,17.2,0,0,0-.37-2.78.27.27,0,0,0-.52,0,13.6,13.6,0,0,0-.5,5c-1.88,1-3.4,3-4.89,4.45a64.7,64.7,0,0,0-5.72,6c-.27.36.08,1,.52.68a57.83,57.83,0,0,0,5.93-4.77c1.59-1.38,3.74-2.77,5.06-4.5a1.51,1.51,0,0,0,.3,0,22.06,22.06,0,0,1,2.69-.26,8.18,8.18,0,0,0,2.32-.05A.82.82,0,0,0,93.25,180.33Z"/><path class="cls-6" d="M96.5,176.92c-.72-.6-1.47-.39-2.36-.31s-1.54.19-2.3.32a13.14,13.14,0,0,0-.71-4.05c-.1-.24-.45-.13-.51.07-.51,1.5-.3,3.38-.35,5a.84.84,0,0,0,1,.8c.94-.15,1.87-.28,2.82-.36s1.71.09,2.36-.54A.62.62,0,0,0,96.5,176.92Z"/><path class="cls-6" d="M81,191.31a.58.58,0,0,0-1,0,17.56,17.56,0,0,1-1.43,2.39c-1.13,1.16-2.93,1-4.23.27-2.77-1.42-1.23-7,2-6.28.47.1,1-.53.51-.89a3.12,3.12,0,0,0-4.56.92c-1.27,2-1.69,4.78-.16,6.72a5.67,5.67,0,0,0,6.18,1.47C80.07,195.28,81.9,193.17,81,191.31Z"/><path class="cls-6" d="M85.38,188.42a.63.63,0,0,0-1.16.31c.19,4-.18,7.06-4,9.29-3.39,2-8.61,1.15-10.68-2.24-2-3.2-1.29-7.57,1-10.4s6.22-3.14,9.57-2.49a.42.42,0,0,0,.32-.76c-3.45-2.67-9-1.41-11.5,2a11.79,11.79,0,0,0-.49,13.32C73.64,205.9,90.7,197.42,85.38,188.42Z"/><path class="cls-6" d="M90.44,184.24a1.09,1.09,0,0,0-1.88,1.1c8.11,15.32-14.08,26.35-23.75,13.22-3.93-5.33-1.71-14.48,3.22-18.07,4.26-3.1,10.16-2.37,15.08-2.12.56,0,.58-.73.12-.91-6.49-2.53-16.31-2.16-20.2,4.79-3.6,6.44-2.79,14.9,2.5,20.12C77.58,214.24,100.3,199.36,90.44,184.24Z"/><path class="cls-6" d="M348.1,87.17c-5.41-4.84-13.06-9.63-20.5-9.94a1.17,1.17,0,0,0-.59,2.16c6.24,3.61,12.33,6.13,17.7,11.18A45.12,45.12,0,0,1,351.57,99c1.68,2.6,2.54,5.72,4.83,7.84a2.17,2.17,0,0,0,3.66-1.52C360.23,98.62,352.75,91.34,348.1,87.17Z"/><path class="cls-6" d="M371.57,96.85c-2.85,2.7-4.34,6.58-6.11,10-1.68,3.27-3.23,6.6-4.74,10-6.16-1.51-11.87-4.51-18-6a1.35,1.35,0,0,0-1,2.45c5.79,4.23,12.94,6.05,19.25,9.31a2.86,2.86,0,0,0,3.89-1c1.81-3.93,3.72-7.82,5.69-11.68,1.78-3.47,4.26-6.82,5.1-10.65A2.43,2.43,0,0,0,371.57,96.85Z"/><path class="cls-6" d="M364,354.76c4.85-5.41,9.64-13.05,10-20.5a1.17,1.17,0,0,0-2.16-.58c-3.61,6.23-6.13,12.32-11.18,17.69a45.12,45.12,0,0,1-8.47,6.86c-2.6,1.68-5.72,2.54-7.84,4.84a2.16,2.16,0,0,0,1.52,3.65C352.52,366.9,359.8,359.42,364,354.76Z"/><path class="cls-6" d="M354.29,378.23c-2.71-2.84-6.58-4.34-10-6.11-3.28-1.67-6.61-3.22-10-4.73,1.52-6.16,4.52-11.87,6.06-18a1.35,1.35,0,0,0-2.45-1c-4.23,5.79-6,12.93-9.32,19.24-.65,1.27-.43,3.22,1,3.89q5.89,2.73,11.68,5.7c3.47,1.77,6.82,4.26,10.65,5.1A2.44,2.44,0,0,0,354.29,378.23Z"/><path class="cls-6" d="M115.66,372.4c5.4,4.84,13.05,9.63,20.49,9.94a1.16,1.16,0,0,0,.59-2.15c-6.23-3.62-12.33-6.14-17.69-11.18a45.37,45.37,0,0,1-6.86-8.47c-1.68-2.6-2.54-5.72-4.84-7.84a2.15,2.15,0,0,0-3.65,1.51C103.52,361,111,368.23,115.66,372.4Z"/><path class="cls-6" d="M92.19,362.73c2.84-2.71,4.34-6.59,6.11-10.05,1.67-3.27,3.22-6.6,4.73-9.95,6.16,1.51,11.87,4.52,18,6.06a1.35,1.35,0,0,0,1-2.46c-5.79-4.23-12.94-6.05-19.24-9.31-1.27-.66-3.22-.44-3.9,1-1.81,3.94-3.72,7.82-5.69,11.68-1.78,3.47-4.26,6.83-5.1,10.65A2.44,2.44,0,0,0,92.19,362.73Z"/><path class="cls-6" d="M99.79,104.81c-4.85,5.41-9.64,13.06-9.94,20.5a1.16,1.16,0,0,0,2.15.58c3.62-6.23,6.13-12.32,11.18-17.69a45.12,45.12,0,0,1,8.47-6.86c2.6-1.68,5.72-2.54,7.84-4.84A2.16,2.16,0,0,0,118,92.85C111.24,92.68,104,100.15,99.79,104.81Z"/><path class="cls-6" d="M109.46,81.34c2.71,2.84,6.58,4.34,10.05,6.11,3.27,1.67,6.6,3.23,10,4.73-1.52,6.16-4.52,11.87-6.06,18a1.35,1.35,0,0,0,2.46,1c4.22-5.79,6-12.94,9.31-19.25.65-1.27.44-3.22-1-3.89q-5.91-2.73-11.69-5.7c-3.46-1.77-6.82-4.25-10.64-5.1A2.44,2.44,0,0,0,109.46,81.34Z"/></g></g></svg>