<svg xmlns="http://www.w3.org/2000/svg" viewBox="0 0 153 195.64"><defs><style>.cls-1{font-size:25px;fill:#107abc;font-family:Raleway-Bold, Raleway;font-weight:700;}.cls-2{letter-spacing:-0.01em;}.cls-3{letter-spacing:0em;}.cls-4{letter-spacing:-0.01em;}.cls-5{letter-spacing:-0.01em;}.cls-6{fill:#167bbd;}.cls-7{fill:#fff;}</style></defs><title>atrapado</title><g id="Capa_2" data-name="Capa 2"><g id="Capa_1-2" data-name="Capa 1"><text class="cls-1" transform="translate(5.51 184.23)"><tspan class="cls-2">E</tspan><tspan class="cls-3" x="14.88" y="0">n</tspan><tspan x="29.85" y="0">t</tspan><tspan class="cls-4" x="39.45" y="0">r</tspan><tspan x="48.95" y="0">apme</tspan><tspan class="cls-5" x="117.4" y="0">n</tspan><tspan x="132.37" y="0">t</tspan></text><circle class="cls-6" cx="76.5" cy="76.5" r="76.5"/><path class="cls-7" d="M21.52,116.8c.38-3.54,1-6.32.87-9.06a44.74,44.74,0,0,0-1.72-8.06c-1.07-4.29-2.27-8.55-3.28-12.85-.44-1.86.38-3.08,2.14-4.21A146.06,146.06,0,0,0,33.4,72.84a36.75,36.75,0,0,1,15.77-7.77c1.53-.33,3.06-.69,4.58-1.07,1.7-.42,3.12-.84,4.23,1.42,1,1.92,5.15,2.15,7.13,1.11,1.73-.91,3.55-1.38,5,.76,1.21,1.8,6.32,1.06,7.24-1A4.94,4.94,0,0,1,84,64c2.66,1.53,3.41-1.23,5-2,1.4-.65,1.33-1.73.86-3.06-.87-2.51-.26-3.59,2.37-4a3.91,3.91,0,0,0,3.52-2.92,16.57,16.57,0,0,1,7.58-9.23c2.49-1.47,4.23-4.29,6.12-6.66,1.1-1.39,2.1-2.69,4-2S116,36.57,116,38.44c-.1,2.93-1.81,5-3.93,6.81-1.58,1.33-3.49,2.39-4.74,4s-1.69,3.55-2.85,6.14c1.33-.4,2.57-.39,3.14-1,2.67-2.9,6-3.54,9.72-3.53A106.13,106.13,0,0,0,128,50.05c2.18-.21,3.12.6,2.82,2.81a4.84,4.84,0,0,1-4,4.27,55.3,55.3,0,0,1-8,.9c-3.85.24-5.35,1.09-7.8,5L135.6,64.5c.82,4.58-2.45,8.13-7.74,8.29-3.22.1-6.45-.14-9.67-.22-2.79-.07-5.58-.11-8.37-.17a7.75,7.75,0,0,1-5.09-1.6c-1.9-1.45-5.11-1.19-7.76-1.62a1,1,0,0,0-.79.54c-.93,3.57-4.25,2.68-6.61,3.5a2.35,2.35,0,0,1-2-.68c-1.37-1.61-2.59-1.23-4-.13a26.64,26.64,0,0,1-3.7,2.45c-1.65.89-2.44,2-2.07,4a3.37,3.37,0,0,1-1,2.4c-1.6,1.71-3.39,3.25-5.07,4.89-4.06,4-4.61,10.14-2.07,15.18A47.83,47.83,0,0,1,73.81,113c.49,2.38-.34,5.16-1.08,7.6a4.4,4.4,0,0,1-6.29,2.34,3.65,3.65,0,0,1-1.53-2.37c-.38-2.22-.31-4.52-.71-6.74-.68-3.82-3.87-5.84-6.37-8.35-2.14-2.14-4.22-3.73-7.7-3.28a8.89,8.89,0,0,1-8.68-4.09Z"/><path class="cls-7" d="M114.32,86.75a59,59,0,0,0,1.55,7.35c.32,1,1.68,1.59,2.58,2.36l.84-.37-1.19,6.57-3-.56-4.72,7.5,1.93,2.51-5.6,4.17-1.71-3a47.5,47.5,0,0,0-7.26,2c-1,.43-1.45,2.11-2.28,3.43l-6.34-.73c1.69-3.45-.24-4.4-2.9-5.26a8.81,8.81,0,0,1-3.37-2.78c-1.56-1.8-3-2.61-5.18,0l-3.76-5.64L77,102.53c-.4-2.89-.79-5.71-1.19-8.64l-3.39-.77c.53-2.19,1-4.32,1.6-6.62l3.3,1,5.16-7.16-2-2.72,5.81-3.7L88,76.83l8.57-1.67L97.26,72l6.63,1.34-.8,3.13,7.49,5,2.49-2,3.9,5.73ZM96.23,110.51c8.8.46,15.07-8.13,15-15.17a15.22,15.22,0,1,0-30.43.25C80.81,102.86,87,111,96.23,110.51Z"/><path class="cls-7" d="M84.42,28.43,88.18,33l2.56-.95,2,5-2.8,1.3c1.54,2-1.57,5.63,3.16,6.6-.45,1.71-.89,3.42-1.38,5.29l-2.63-.8-3.3,5,1.71,2.16-4.25,3.51L81.47,58,76,60.09v2.75l-5.32.34-.32-2.75-5.72-1.59-1.53,2.31-4.65-3L60,55.86l-3.77-4.65-2.57.93-2-5L54.23,46l-.34-5.88-2.61-.83,1.37-5.21,2.69.66,3.23-4.92L57,27.56c1.33-1.11,2.69-2.24,4.17-3.49l2,2.37c1.7-1.92,6-.43,5.43-5.05L73.7,21,74,23.8l5.74,1.59,1.55-2.33L85.85,26ZM72.11,56a13.88,13.88,0,1,0,.16-27.75A13.88,13.88,0,0,0,72.11,56Z"/></g></g></svg>