<svg xmlns="http://www.w3.org/2000/svg" viewBox="0 0 152.1 190.55"><defs><style>.cls-1{fill:#107abc;}.cls-2{fill:#167bbd;}.cls-3{fill:#fff;}</style></defs><title>absorcion_1</title><g id="Capa_2" data-name="Capa 2"><g id="Capa_1-2" data-name="Capa 1"><path class="cls-1" d="M14.24,166.55h3.17l7,18.46H20.74L19,180.41H12.57L10.88,185H7.19Zm4.13,11.34-2.55-7.25-2.65,7.25Z"/><path class="cls-1" d="M33.87,185.27a5.44,5.44,0,0,1-2.78-.7,5.16,5.16,0,0,1-1.93-1.92V185h-3V166H29.6v7.75a5.33,5.33,0,0,1,1.92-1.94,5.46,5.46,0,0,1,2.76-.69,5.15,5.15,0,0,1,2.42.58,6.07,6.07,0,0,1,1.89,1.53,7,7,0,0,1,1.22,2.26,8.57,8.57,0,0,1,.43,2.73,7.77,7.77,0,0,1-.48,2.76,6.9,6.9,0,0,1-1.34,2.22,6.42,6.42,0,0,1-2,1.5A5.94,5.94,0,0,1,33.87,185.27Zm-1-3a3.56,3.56,0,0,0,1.53-.33,3.5,3.5,0,0,0,1.2-.87,3.87,3.87,0,0,0,.76-1.27,4.27,4.27,0,0,0,.28-1.56,5,5,0,0,0-.26-1.59,4.25,4.25,0,0,0-.74-1.32,3.7,3.7,0,0,0-1.14-.91,3,3,0,0,0-1.43-.34,3.2,3.2,0,0,0-2.09.77,5.18,5.18,0,0,0-1.42,1.88V180a3,3,0,0,0,.54.94,4.1,4.1,0,0,0,.79.71,3.72,3.72,0,0,0,1,.47A3.4,3.4,0,0,0,32.91,182.31Z"/><path class="cls-1" d="M47.75,185.27a10.63,10.63,0,0,1-3.35-.54,8.41,8.41,0,0,1-2.81-1.56l1.3-2.19a11,11,0,0,0,2.43,1.34,6.38,6.38,0,0,0,2.35.46,3,3,0,0,0,1.64-.39,1.26,1.26,0,0,0,.6-1.12,1.12,1.12,0,0,0-.7-1.07,16.5,16.5,0,0,0-2.29-.78c-.88-.24-1.64-.47-2.26-.7a5.44,5.44,0,0,1-1.51-.77,2.55,2.55,0,0,1-.83-1,3.08,3.08,0,0,1-.26-1.34,4.18,4.18,0,0,1,.4-1.87,4.11,4.11,0,0,1,1.13-1.42,5.36,5.36,0,0,1,1.71-.9,6.81,6.81,0,0,1,2.11-.31,9.29,9.29,0,0,1,2.88.44A7,7,0,0,1,52.74,173l-1.4,2.11a8.35,8.35,0,0,0-2-1.15,5.58,5.58,0,0,0-1.94-.36,2.8,2.8,0,0,0-1.48.36,1.28,1.28,0,0,0-.6,1.17,1.18,1.18,0,0,0,.14.6,1.26,1.26,0,0,0,.46.42,4.1,4.1,0,0,0,.82.35c.33.11.75.23,1.26.35a24.5,24.5,0,0,1,2.4.73,6.59,6.59,0,0,1,1.64.83,3,3,0,0,1,.94,1.08,3.47,3.47,0,0,1,.29,1.47,3.79,3.79,0,0,1-1.48,3.16A6.39,6.39,0,0,1,47.75,185.27Z"/><path class="cls-1" d="M61.82,185.27a7.49,7.49,0,0,1-3-.57,6.6,6.6,0,0,1-2.25-1.55,6.77,6.77,0,0,1-1.42-2.25,7.27,7.27,0,0,1-.49-2.67,7.41,7.41,0,0,1,.49-2.71,6.77,6.77,0,0,1,1.42-2.25,6.57,6.57,0,0,1,2.25-1.54,8,8,0,0,1,6,0A6.69,6.69,0,0,1,67,173.27a6.77,6.77,0,0,1,1.42,2.25,7.41,7.41,0,0,1,.49,2.71,7.27,7.27,0,0,1-.49,2.67A6.91,6.91,0,0,1,67,183.15a6.51,6.51,0,0,1-2.23,1.55A7.52,7.52,0,0,1,61.82,185.27Zm-3.56-7a4.84,4.84,0,0,0,.27,1.65,4.13,4.13,0,0,0,.75,1.29,3.44,3.44,0,0,0,1.13.84,3.37,3.37,0,0,0,1.41.3,3.29,3.29,0,0,0,1.4-.3,3.34,3.34,0,0,0,1.13-.84,4.22,4.22,0,0,0,.76-1.31,5.18,5.18,0,0,0,0-3.3,4.28,4.28,0,0,0-.76-1.3,3.34,3.34,0,0,0-1.13-.84,3.29,3.29,0,0,0-1.4-.3,3.23,3.23,0,0,0-1.41.31,3.65,3.65,0,0,0-1.13.86,4,4,0,0,0-.75,1.3A4.82,4.82,0,0,0,58.26,178.23Z"/><path class="cls-1" d="M79.39,174.4a6.92,6.92,0,0,0-2.83.62,3.55,3.55,0,0,0-1.79,1.75V185H71.28V171.39h3.2v2.91a6,6,0,0,1,.86-1.26,7,7,0,0,1,1.06-1,5.52,5.52,0,0,1,1.16-.63,3.14,3.14,0,0,1,1.13-.22h.43l.27,0Z"/><path class="cls-1" d="M89.51,185.27a5.43,5.43,0,0,1-2.81-.71,5.05,5.05,0,0,1-1.87-1.94v7.93H81.34V171.39h3v2.34a5.36,5.36,0,0,1,4.7-2.58,5.88,5.88,0,0,1,2.55.56,6.57,6.57,0,0,1,2,1.51A7.13,7.13,0,0,1,95,175.46a7.71,7.71,0,0,1,.48,2.72A8.75,8.75,0,0,1,95,181a7.24,7.24,0,0,1-1.23,2.26,5.87,5.87,0,0,1-1.89,1.51A5.31,5.31,0,0,1,89.51,185.27Zm-1.17-3a3.06,3.06,0,0,0,1.44-.34,3.44,3.44,0,0,0,1.13-.91,4.17,4.17,0,0,0,.73-1.33,4.8,4.8,0,0,0,.26-1.55,4.38,4.38,0,0,0-.29-1.6,3.83,3.83,0,0,0-.79-1.29,3.9,3.9,0,0,0-1.19-.86,3.57,3.57,0,0,0-1.5-.31,3.29,3.29,0,0,0-1,.17,3.51,3.51,0,0,0-1,.48,4.2,4.2,0,0,0-.79.73,3,3,0,0,0-.53.91v3.2a4.6,4.6,0,0,0,1.43,1.93A3.27,3.27,0,0,0,88.34,182.31Z"/><path class="cls-1" d="M105.81,184.31a15.4,15.4,0,0,1-1.72.63,7.41,7.41,0,0,1-2.13.31,4.61,4.61,0,0,1-1.36-.19,2.83,2.83,0,0,1-1.89-1.62,3.77,3.77,0,0,1-.28-1.55v-7.82h-1.8v-2.68h1.8V167h3.48v4.42h2.86v2.68h-2.86v6.65a1.25,1.25,0,0,0,.38,1,1.43,1.43,0,0,0,.92.3,3.29,3.29,0,0,0,1.07-.18l.83-.31Z"/><path class="cls-1" d="M107.63,169.49V166h3.48v3.46Zm0,15.52V171.39h3.48V185Z"/><path class="cls-1" d="M120.55,185.27a7.52,7.52,0,0,1-3-.57,6.8,6.8,0,0,1-2.25-1.55,6.91,6.91,0,0,1-1.41-2.25,7.28,7.28,0,0,1-.5-2.67,7.41,7.41,0,0,1,.5-2.71,6.91,6.91,0,0,1,1.41-2.25,6.77,6.77,0,0,1,2.25-1.54,7.52,7.52,0,0,1,3-.58,7.44,7.44,0,0,1,3,.58,6.69,6.69,0,0,1,2.23,1.54,6.77,6.77,0,0,1,1.42,2.25,7.41,7.41,0,0,1,.5,2.71,7.28,7.28,0,0,1-.5,2.67,7.05,7.05,0,0,1-1.4,2.25,6.55,6.55,0,0,1-2.24,1.55A7.49,7.49,0,0,1,120.55,185.27Zm-3.56-7a4.84,4.84,0,0,0,.27,1.65,4.35,4.35,0,0,0,.76,1.29,3.44,3.44,0,0,0,1.13.84,3.29,3.29,0,0,0,1.4.3A3.37,3.37,0,0,0,122,182a3.44,3.44,0,0,0,1.13-.84,4,4,0,0,0,.75-1.31,5.18,5.18,0,0,0,0-3.3,4.06,4.06,0,0,0-.75-1.3,3.44,3.44,0,0,0-1.13-.84,3.37,3.37,0,0,0-1.41-.3,3.15,3.15,0,0,0-1.4.31,3.65,3.65,0,0,0-1.13.86,4.16,4.16,0,0,0-.76,1.3A4.82,4.82,0,0,0,117,178.23Z"/><path class="cls-1" d="M142.68,185h-3.49v-7.64a4,4,0,0,0-.57-2.39,1.89,1.89,0,0,0-1.58-.76,3,3,0,0,0-1.07.21,4.09,4.09,0,0,0-1,.59,4.9,4.9,0,0,0-.87.89,3.54,3.54,0,0,0-.57,1.15V185H130V171.39h3.14v2.52a5.13,5.13,0,0,1,2.19-2,7,7,0,0,1,3.22-.73,4.13,4.13,0,0,1,2.08.47,3.43,3.43,0,0,1,1.25,1.23,5.11,5.11,0,0,1,.61,1.71,11.49,11.49,0,0,1,.17,1.95Z"/><circle class="cls-2" cx="76.05" cy="76.05" r="76.05"/><path class="cls-3" d="M85,61.12l1.38-11.7c.28-2.38.55-4.76.86-7.14A5.52,5.52,0,0,1,96.92,39a99.64,99.64,0,0,1,26.36,49.35c1.28,6.05,2,12.22,2.77,18.37s-3.88,10.21-10,8.75c-5.19-1.24-10.39-2.45-15.56-3.76A20.85,20.85,0,0,1,84.68,92.46c-.22-4.48-.17-9-.31-13.44a3.4,3.4,0,0,0-.62-1.82c-2.18-2.94-4.43-5.84-6.65-8.75-.87-1.14-1.28-1.15-2.17,0-2.19,2.71-4.41,5.4-6.54,8.15a3.58,3.58,0,0,0-.64,2c-.13,4.53-.14,9-.29,13.58a20.91,20.91,0,0,1-15.63,19.58c-5.47,1.41-11,2.72-16.48,4a7.59,7.59,0,0,1-9.33-8.3c1.21-10.89,2.67-21.72,6.5-32.09a102.49,102.49,0,0,1,22.53-36.1,5.55,5.55,0,0,1,6.14-1.73c2.42.81,3.46,2.73,3.74,5.17.7,6,1.42,12,2.16,18.22a7.91,7.91,0,0,0,.73-.81,16.69,16.69,0,0,0,2.88-9.59q0-14.8,0-29.6c0-2.38,0-2.41,2.42-2.41h6.11c2.14,0,2.18,0,2.19,2.22q0,7.68,0,15.34c0,4.85,0,9.69,0,14.53A16.82,16.82,0,0,0,85,61.12Zm-.66,13.6c.14-3,.16-5.65.41-8.26a5.13,5.13,0,0,0-1.24-4,19.29,19.29,0,0,1-4.17-12.62c0-9.23,0-18.47,0-27.7V20.52h-6.6v1.54c0,8.87-.11,17.75,0,26.61A21.25,21.25,0,0,1,68,63.26a2.27,2.27,0,0,0-.61,1.3c.09,3.1.25,6.2.41,9.64,2-2.5,3.77-4.74,5.53-7S77,65,78.7,67.22C80.51,69.64,82.33,72,84.34,74.72ZM51.85,72.87l-4.78,4.56c-.63.59-1.21,1.24-.47,2.08s1.53.41,2.21-.24c1.54-1.46,3.06-2.94,4.65-4.36a1.45,1.45,0,0,1,1.23-.34c1.43.75,2.78,1.63,4.24,2.51-.27.35-.43.62-.63.84-2.27,2.46-4.58,4.88-6.81,7.37a4.59,4.59,0,0,1-2.79,1.46c-3.78.66-7.55,1.39-11.33,2.09-.87.16-1.46.59-1.26,1.56s.89,1,1.68.92c.36,0,.71-.13,1.07-.2l5.49-1c-.35,1.56-.64,2.91-1,4.26-.41,1.81-.85,3.61-1.24,5.42-.17.81.13,1.59,1,1.57.49,0,1-.64,1.43-1.07.19-.19.17-.59.24-.9.66-2.82,1.35-5.63,1.94-8.46.22-1,.62-1.6,1.74-1.63A6.81,6.81,0,0,0,54,86.41c.43-.57.9-1.11,1.58-2,.2.91.32,1.34.39,1.77.45,2.53.91,5.07,1.31,7.61.16,1,.5,1.73,1.62,1.5s1-1.06.88-1.93c-.59-3.39-1.18-6.77-1.68-10.17a2.54,2.54,0,0,1,.51-1.78c1.89-2.36,3.78-4.74,5.87-6.93,1.45-1.52,1.15-3.11.87-5.22l-4.67,5.77c-.44-.24-.83-.44-1.22-.67l-9.43-5.62c-.8-.47-1.63-.87-2.25.12s.14,1.63,1,2.12S50.71,72.18,51.85,72.87Zm48.61-.27a28.84,28.84,0,0,0,3.11-2c.38-.3.35-1.12.51-1.7a7.06,7.06,0,0,0-1.76-.39c-.4,0-.79.41-1.17.64l-10,5.92-4.43-5.46c-.61,2.74-.47,3.53,1.08,5.39,1.76,2.13,3.6,4.19,5.31,6.35a3,3,0,0,1,.58,2c-.28,2.29-.73,4.55-1.12,6.82a20.34,20.34,0,0,0-.54,3.6,2,2,0,0,0,1.18,1.47c.8.26,1.13-.47,1.22-1.23s.23-1.51.37-2.27c.43-2.29.86-4.59,1.31-7a4.06,4.06,0,0,1,.65.51c1.87,2.32,4,4.13,7.21,4.21.32,0,.8.65.91,1.08.77,3,1.46,6.06,2.16,9.1.22,1,.44,2,1.74,1.71s1-1.41.72-2.36c-.17-.66-.31-1.32-.46-2-.51-2.23-1-4.46-1.56-6.84.54.06.89.08,1.23.14,1.74.31,3.47.64,5.21.94.81.14,1.62.1,1.8-.92s-.47-1.42-1.39-1.58c-3.88-.67-7.76-1.33-11.61-2.08a4.37,4.37,0,0,1-2-1.1c-1.53-1.47-3-3-4.41-4.61-1.15-1.24-2.25-2.53-3.45-3.89,1.44-.86,2.69-1.57,3.9-2.36a1.17,1.17,0,0,1,1.75.17c1.46,1.48,3,2.88,4.51,4.31.68.65,1.43,1.16,2.22.32s.15-1.52-.48-2.19C103.29,75.82,101.91,74.22,100.46,72.6Z"/><path class="cls-2" d="M51.85,72.87c-1.14-.69-2.1-1.28-3.07-1.84s-1.64-1-1-2.12,1.45-.59,2.25-.12l9.43,5.62c.39.23.78.43,1.22.67l4.67-5.77c.28,2.11.58,3.7-.87,5.22-2.09,2.19-4,4.57-5.87,6.93a2.54,2.54,0,0,0-.51,1.78c.5,3.4,1.09,6.78,1.68,10.17.15.87.18,1.72-.88,1.93s-1.46-.52-1.62-1.5c-.4-2.54-.86-5.08-1.31-7.61-.07-.43-.19-.86-.39-1.77-.68.84-1.15,1.38-1.58,2a6.81,6.81,0,0,1-5.51,2.93C47.4,89.37,47,90,46.78,91c-.59,2.83-1.28,5.64-1.94,8.46-.07.31-.05.71-.24.9-.42.43-.94,1.06-1.43,1.07-.88,0-1.18-.76-1-1.57.39-1.81.83-3.61,1.24-5.42.31-1.35.6-2.7,1-4.26l-5.49,1c-.36.07-.71.15-1.07.2-.79.12-1.5,0-1.68-.92s.39-1.4,1.26-1.56c3.78-.7,7.55-1.43,11.33-2.09a4.59,4.59,0,0,0,2.79-1.46c2.23-2.49,4.54-4.91,6.81-7.37.2-.22.36-.49.63-.84-1.46-.88-2.81-1.76-4.24-2.51a1.45,1.45,0,0,0-1.23.34c-1.59,1.42-3.11,2.9-4.65,4.36-.68.65-1.44,1.12-2.21.24s-.16-1.49.47-2.08Z"/><path class="cls-2" d="M100.46,72.6c1.45,1.62,2.83,3.22,4.27,4.77.63.67,1.29,1.33.48,2.19s-1.54.33-2.22-.32c-1.5-1.43-3-2.83-4.51-4.31a1.17,1.17,0,0,0-1.75-.17c-1.21.79-2.46,1.5-3.9,2.36,1.2,1.36,2.3,2.65,3.45,3.89,1.44,1.57,2.88,3.14,4.41,4.61a4.37,4.37,0,0,0,2,1.1c3.85.75,7.73,1.41,11.61,2.08.92.16,1.58.54,1.39,1.58s-1,1.06-1.8.92c-1.74-.3-3.47-.63-5.21-.94-.34-.06-.69-.08-1.23-.14.54,2.38,1,4.61,1.56,6.84.15.66.29,1.32.46,2,.25.95.57,2-.72,2.36s-1.52-.74-1.74-1.71c-.7-3-1.39-6.08-2.16-9.1-.11-.43-.59-1.07-.91-1.08-3.2-.08-5.34-1.89-7.21-4.21a4.06,4.06,0,0,0-.65-.51c-.45,2.43-.88,4.73-1.31,7-.14.76-.27,1.51-.37,2.27s-.42,1.49-1.22,1.23a2,2,0,0,1-1.18-1.47,20.34,20.34,0,0,1,.54-3.6c.39-2.27.84-4.53,1.12-6.82a3,3,0,0,0-.58-2c-1.71-2.16-3.55-4.22-5.31-6.35-1.55-1.86-1.69-2.65-1.08-5.39l4.43,5.46,10-5.92c.38-.23.77-.63,1.17-.64a7.06,7.06,0,0,1,1.76.39c-.16.58-.13,1.4-.51,1.7A28.84,28.84,0,0,1,100.46,72.6Z"/></g></g></svg>