<svg xmlns="http://www.w3.org/2000/svg" viewBox="0 0 205.17 85.04"><defs><style>.cls-1,.cls-4{fill:#107abc;}.cls-2{fill:#30559a;}.cls-3{fill:#fff;}.cls-4{font-size:29px;font-family:Raleway-Bold, Raleway;font-weight:700;}.cls-5{letter-spacing:-0.01em;}.cls-6{letter-spacing:0em;}.cls-7{letter-spacing:-0.01em;}</style></defs><title>acepta</title><g id="Capa_2" data-name="Capa 2"><g id="Capa_1-2" data-name="Capa 1"><circle class="cls-1" cx="42.52" cy="42.52" r="42.52"/><path class="cls-2" d="M80.14,38.93c-.41-.46-16.25-17-17-17.28,0,.71,0,1.43,0,2.14a.69.69,0,0,1-.55.78,31.84,31.84,0,0,0-3.62,1.52c-.13.06-.36.4-.49,0s-.55-.28-.84-.28H25.11c-.29,0-.6-.11-.86.12s-.1.51-.1.77V49.88c0,.27,0,.53.06.8,0,2.52-.05,5-.05,7.57a4.35,4.35,0,0,0,.1,1.76h0c.2.2.45.11.68.11h3.94L19.45,64,45,85s12.44,0,24.73-9.81C81,66.19,84.32,54.52,85,43.89Zm-17,7-4.68,1.93V40.64a1.19,1.19,0,0,1,.4-1.1,37.49,37.49,0,0,1,3.63-2.61c.59-.37.66-.16.65.42,0,2.33,0,4.66,0,7C63.09,44.88,63.1,45.43,63.1,46ZM36.74,55.85c-3.09-3.14-5.81-6.62-8.94-9.72a3.46,3.46,0,0,1-.91-2.19,6.35,6.35,0,0,1,.19-1.59c.6-1.49,1.3-2.56,2.87-2.87a4.1,4.1,0,0,1,1.38-.11c2.79,1.23,7.34,6.59,8.56,7.93.34.37.76.28,1-.16.58-.91,1.11-1.84,1.61-2.79.11-.21,5.78-8.71,9.88-12A37.32,37.32,0,0,1,63,26.07a4.26,4.26,0,0,1,3.14,0,7.22,7.22,0,0,1,1.55,1.12,3.87,3.87,0,0,1,.68,4.18,4.4,4.4,0,0,1-2.7,2.33A28.94,28.94,0,0,0,60.93,36,35.5,35.5,0,0,0,50.5,46.83c-1.2,1.84-2.27,3.76-3.28,5.71l-9.57,4A5,5,0,0,1,36.74,55.85Z"/><path class="cls-3" d="M63.66,64.08c0,.63-.66.73-1.38.73q-21,0-42,0c-.6,0-.82-.14-.81-.79q0-21,0-42.11c0-.56.13-.76.74-.76h42.2c.36,0,.75-.07.74.49A2.24,2.24,0,0,1,62,25.17c-.6.25-1.21.51-1.8.79a11.31,11.31,0,0,1-3.37.19C46.67,26,36.52,26,26.38,26a2.18,2.18,0,0,0-1.6.42,2.37,2.37,0,0,0-.17,1.31c0,4.06,0,8.11,0,12.17,0,3.18-.07,10.32,0,10.7,0,2.64,0,5.27,0,7.9a1.43,1.43,0,0,0,.23,1,2.51,2.51,0,0,0,1.54.37c3.79,0,7.58.08,11.37,0,6.26-.18,12.53,0,18.79-.1,1.48,0,1.55-.07,1.55-1.58,0-5.61,0-11.22,0-16.83a3.11,3.11,0,0,1,1.39-2.89c.78-.54,1.53-1.13,2.36-1.62,1.08-.64,1.67-.35,1.67.88C63.51,43.7,63.64,61.81,63.66,64.08Z"/><path class="cls-3" d="M38.54,57.44a2.27,2.27,0,0,1-.64-.28c-2-1.21-3.24-3.11-4.77-4.76s-3.07-3.57-4.81-5.16a4.92,4.92,0,0,1-1.8-3.92,2.62,2.62,0,0,1,.12-.68,4.34,4.34,0,0,1,3.66-3.28l.53,0a4.92,4.92,0,0,1,2.29.54,2.92,2.92,0,0,1,.59.4c.4,0,3,3,3.19,3.24,1,1.12,2,2.23,3.05,3.35.32.35.51.47.79-.06.56-1.07,1.2-2.1,1.8-3.15.06-.58,5.57-7.56,6.51-8.55a35.69,35.69,0,0,1,13.87-9.39,4.73,4.73,0,0,1,3.85.2,2.44,2.44,0,0,1,.55.35,4.33,4.33,0,0,1,.73,6.19,6.49,6.49,0,0,1-3,1.78,27.36,27.36,0,0,0-10.17,7.36,50.47,50.47,0,0,0-7.82,11.93A6.9,6.9,0,0,1,42,57.77,7.26,7.26,0,0,1,38.54,57.44Z"/><text class="cls-4" transform="translate(105.34 51.98)"><tspan class="cls-5">A</tspan><tspan class="cls-6" x="19.08" y="0">cc</tspan><tspan x="51.5" y="0">e</tspan><tspan class="cls-7" x="68.88" y="0">p</tspan><tspan x="87.06" y="0">t</tspan></text></g></g></svg>