<svg xmlns="http://www.w3.org/2000/svg" viewBox="0 0 152.67 192.47"><defs><style>.cls-1{fill:#107abc;}.cls-2{fill:#167bbd;}.cls-3{fill:#fff;}</style></defs><title>alta-temp_2</title><g id="Capa_2" data-name="Capa 2"><g id="Capa_1-2" data-name="Capa 1"><path class="cls-1" d="M24.93,168.22v18.46H21.36V178.8H13v7.88H9.4V168.22H13v7.46h8.37v-7.46Z"/><path class="cls-1" d="M28.43,171.15V167.7h3.49v3.45Zm0,15.53V173.05h3.49v13.63Z"/><path class="cls-1" d="M40.39,186.75a5.65,5.65,0,0,1-2.49-.54,6,6,0,0,1-1.94-1.5,7,7,0,0,1-1.26-2.19,8.07,8.07,0,0,1-.44-2.66,7.75,7.75,0,0,1,.47-2.75,7,7,0,0,1,1.3-2.24,6,6,0,0,1,2-1.51,6.07,6.07,0,0,1,2.57-.54,5.35,5.35,0,0,1,2.78.71,6.12,6.12,0,0,1,2,1.91v-2.39h3v13a6.22,6.22,0,0,1-.57,2.7,5.91,5.91,0,0,1-1.57,2A7.1,7.1,0,0,1,43.87,192a9.82,9.82,0,0,1-3,.44,8.46,8.46,0,0,1-3.76-.74,7.53,7.53,0,0,1-2.61-2.09l1.89-1.85a5.28,5.28,0,0,0,2,1.51,5.82,5.82,0,0,0,2.51.55,5.62,5.62,0,0,0,1.54-.22,3.87,3.87,0,0,0,1.32-.69,3.1,3.1,0,0,0,.89-1.2,4.08,4.08,0,0,0,.33-1.71v-1.72a4.61,4.61,0,0,1-1.9,1.81A5.64,5.64,0,0,1,40.39,186.75ZM41.56,184a3.34,3.34,0,0,0,1.1-.18,4.35,4.35,0,0,0,1-.49,4.15,4.15,0,0,0,.78-.73,3.34,3.34,0,0,0,.52-.89v-3.25a4.25,4.25,0,0,0-1.47-1.92,3.56,3.56,0,0,0-2.09-.73,3.06,3.06,0,0,0-1.46.35,3.87,3.87,0,0,0-1.12.94,4.2,4.2,0,0,0-.71,1.34,4.81,4.81,0,0,0-.25,1.56,4.28,4.28,0,0,0,.29,1.56,3.94,3.94,0,0,0,.79,1.27,3.7,3.7,0,0,0,1.18.86A3.47,3.47,0,0,0,41.56,184Z"/><path class="cls-1" d="M64.21,186.68H60.73V179a3.88,3.88,0,0,0-.6-2.38,2,2,0,0,0-1.69-.76,2.86,2.86,0,0,0-1,.2,3.87,3.87,0,0,0-1,.59,4.93,4.93,0,0,0-.86.9,3.39,3.39,0,0,0-.57,1.14v8H51.55v-19H55v7.87a5.4,5.4,0,0,1,2-2,5.85,5.85,0,0,1,2.85-.71,4.56,4.56,0,0,1,2.16.45,3.53,3.53,0,0,1,1.3,1.21A5.08,5.08,0,0,1,64,176.2a10.69,10.69,0,0,1,.18,2Z"/><path class="cls-1" d="M81.66,186a15.4,15.4,0,0,1-1.72.63,7.17,7.17,0,0,1-2.13.31,5,5,0,0,1-1.37-.18,3.09,3.09,0,0,1-1.12-.59,2.73,2.73,0,0,1-.76-1,3.74,3.74,0,0,1-.29-1.54v-7.83H72.48v-2.68h1.79v-4.42h3.49v4.42h2.86v2.68H77.76v6.66a1.23,1.23,0,0,0,.37,1,1.44,1.44,0,0,0,.93.3,3.23,3.23,0,0,0,1.06-.18c.35-.12.63-.22.83-.31Z"/><path class="cls-1" d="M89.46,186.94a7.63,7.63,0,0,1-3-.56,6.77,6.77,0,0,1-2.26-1.52,6.84,6.84,0,0,1-1.44-2.24,7.14,7.14,0,0,1-.51-2.68,7.57,7.57,0,0,1,.49-2.74,6.74,6.74,0,0,1,1.43-2.26,6.92,6.92,0,0,1,2.28-1.55,7.57,7.57,0,0,1,3-.57,7.44,7.44,0,0,1,3,.57,7,7,0,0,1,2.24,1.53,6.67,6.67,0,0,1,1.4,2.24,7.45,7.45,0,0,1,.48,2.65c0,.23,0,.44,0,.65a2.34,2.34,0,0,1-.07.52H86a3.91,3.91,0,0,0,.39,1.43,3.6,3.6,0,0,0,.81,1.07,3.44,3.44,0,0,0,1.12.67,3.57,3.57,0,0,0,1.3.24,4,4,0,0,0,2-.51,2.67,2.67,0,0,0,1.26-1.34l3,.84a6.09,6.09,0,0,1-2.41,2.56A7.5,7.5,0,0,1,89.46,186.94ZM93,178.72a3.6,3.6,0,0,0-1.13-2.46,3.49,3.49,0,0,0-2.43-.92,3.32,3.32,0,0,0-1.31.25,3.22,3.22,0,0,0-1.08.69,3.62,3.62,0,0,0-.77,1.06,3.7,3.7,0,0,0-.35,1.38Z"/><path class="cls-1" d="M119.88,186.68h-3.49V179a4,4,0,0,0-.56-2.39,1.82,1.82,0,0,0-1.54-.75,2.89,2.89,0,0,0-2,.79,4.35,4.35,0,0,0-1.3,2.07v7.93h-3.49V179a4,4,0,0,0-.56-2.39,1.82,1.82,0,0,0-1.54-.75,3,3,0,0,0-1.94.78,4.19,4.19,0,0,0-1.31,2.05v8H98.71V173.05h3.15v2.52a5.21,5.21,0,0,1,2.07-2,6.21,6.21,0,0,1,3-.71,3.88,3.88,0,0,1,2.65.83,3.81,3.81,0,0,1,1.2,2,5.83,5.83,0,0,1,2.1-2.14,5.72,5.72,0,0,1,2.91-.74,4,4,0,0,1,2.06.47,3.41,3.41,0,0,1,1.25,1.22,5.11,5.11,0,0,1,.61,1.71,11.67,11.67,0,0,1,.17,1.95Z"/><path class="cls-1" d="M131.08,186.94a5.37,5.37,0,0,1-2.81-.72,5.05,5.05,0,0,1-1.87-1.94v7.93h-3.48V173.05h3v2.34a5.57,5.57,0,0,1,2-1.88,5.44,5.44,0,0,1,2.76-.69,5.83,5.83,0,0,1,2.54.56,6.16,6.16,0,0,1,2,1.51,7.18,7.18,0,0,1,1.33,2.23,7.75,7.75,0,0,1,.48,2.72,8.71,8.71,0,0,1-.44,2.78,7.15,7.15,0,0,1-1.24,2.26,5.81,5.81,0,0,1-1.88,1.51A5.36,5.36,0,0,1,131.08,186.94Zm-1.17-3a3.13,3.13,0,0,0,1.45-.34,3.42,3.42,0,0,0,1.13-.91,4.21,4.21,0,0,0,.72-1.32,4.57,4.57,0,0,0,.27-1.56,4.42,4.42,0,0,0-.29-1.6,4.22,4.22,0,0,0-.79-1.29,3.82,3.82,0,0,0-1.2-.86,3.73,3.73,0,0,0-1.5-.31,3.39,3.39,0,0,0-1,.17,3.32,3.32,0,0,0-1,.48,3.92,3.92,0,0,0-.79.73,2.92,2.92,0,0,0-.54.91v3.2a4.69,4.69,0,0,0,1.43,1.94A3.28,3.28,0,0,0,129.91,184Z"/><path class="cls-1" d="M139.32,186.68v-3.75h2.86v3.75Z"/><circle class="cls-2" cx="76.34" cy="76.34" r="76.34"/><path class="cls-3" d="M63.75,139a59,59,0,0,1-6.61-2.08,20.53,20.53,0,0,1-10.78-11.23,21.24,21.24,0,0,1,.4-17.81,19.87,19.87,0,0,1,5.57-7.22,2.38,2.38,0,0,0,1-2c0-23.39,0-46.78,0-70.17,0-5.59,3.11-9.12,8.26-10.22,4.23-.9,8.54-1,12.64.75A8.32,8.32,0,0,1,79.48,26a35.38,35.38,0,0,1,.18,3.86q0,34.25,0,68.51a2.7,2.7,0,0,0,1,2.31,21,21,0,0,1,7.45,13.68A21.21,21.21,0,0,1,83,131.41a21.53,21.53,0,0,1-13.31,7.4,1.78,1.78,0,0,0-.36.14ZM77.44,63.73V30.83c0-1.2,0-2.39,0-3.58a6.64,6.64,0,0,0-4.65-6.45,18.46,18.46,0,0,0-10.48-.5c-4.59.95-6.86,3.6-6.84,8.7.1,23.58,0,47.16.07,70.74a2.48,2.48,0,0,1-1.11,2.19,16.2,16.2,0,0,0-2.54,2.36,19.07,19.07,0,0,0-4.56,16.45,18.44,18.44,0,0,0,8.31,12.66c6.83,4.39,14,4.62,21,.41a18.45,18.45,0,0,0,9.28-14.93,18.84,18.84,0,0,0-7.55-17.11,2.19,2.19,0,0,1-.93-2Q77.46,81.78,77.44,63.73Z"/><path class="cls-3" d="M108.08,60.18c-.8.06-1.31.13-1.81.13q-2.33,0-4.65,0c-.61,0-.9.24-.85.87a8.42,8.42,0,0,1,0,.87q0,12.53,0,25.06c0,1.33,0,1.33-1.35,1.33-1.9,0-3.81,0-5.71,0-.91,0-1.22-.23-1.21-1.19,0-8.48,0-17,0-25.45,0-1.5,0-1.5-1.5-1.5s-2.9,0-4.35,0c-.4,0-.8-.09-1.42-.16l11.4-19.76Z"/><path class="cls-3" d="M77.44,63.73q0,18,0,36.09a2.19,2.19,0,0,0,.93,2,18.84,18.84,0,0,1,7.55,17.11,18.45,18.45,0,0,1-9.28,14.93c-7,4.21-14.18,4-21-.41a18.44,18.44,0,0,1-8.31-12.66,19.07,19.07,0,0,1,4.56-16.45,16.2,16.2,0,0,1,2.54-2.36,2.48,2.48,0,0,0,1.11-2.19c0-23.58,0-47.16-.07-70.74,0-5.1,2.25-7.75,6.84-8.7a18.46,18.46,0,0,1,10.48.5,6.64,6.64,0,0,1,4.65,6.45c0,1.19,0,2.38,0,3.58Zm-3.89-9.82c-.45.19-.69.27-.91.39a5.43,5.43,0,0,1-6.1-.2,12.85,12.85,0,0,0-3-1.56c-1.29-.46-2.43.17-3.53.84s-.74,1.49-.74,2.33q0,23,0,46.07a3.41,3.41,0,0,1,0,1,2.09,2.09,0,0,1-.56.91,49.19,49.19,0,0,0-4,3.34,14.31,14.31,0,0,0-3.9,10.43,15.39,15.39,0,0,0,6.28,12.3,15.71,15.71,0,0,0,18.27.33A15.16,15.16,0,0,0,82,116.23a15,15,0,0,0-7.16-12.17,2.33,2.33,0,0,1-1.23-2.23q0-23.19,0-46.36C73.65,55,73.59,54.53,73.55,53.91ZM67.41,29.85h5.8c.72,0,1.34-.16,1.36-1a1.12,1.12,0,0,0-1.24-1.19q-5.81,0-11.6,0c-.74,0-1.35.34-1.32,1.22s.71,1,1.39,1ZM67.5,38c1.87,0,3.74,0,5.61,0,.76,0,1.38-.17,1.47-1,.07-.7-.5-1.18-1.46-1.18-3.77,0-7.54,0-11.31,0-.75,0-1.38.24-1.4,1.12S61,38,61.79,38Zm0,5.88h0c-2,0-3.93,0-5.89,0-.67,0-1.22.26-1.25,1S60.94,46,61.67,46q5.79,0,11.59,0a1.25,1.25,0,0,0,.88-.26c.24-.29.49-.86.36-1.07a1.79,1.79,0,0,0-1.16-.8C71.42,43.78,69.48,43.83,67.55,43.83Zm2.88-9.94h2.89c.71,0,1.23-.26,1.25-1a1.09,1.09,0,0,0-1.16-1.17c-2,0-3.91,0-5.87,0a1,1,0,0,0-1.1,1.2c0,.7.53,1,1.2,1Zm0,8.09c1,0,1.93,0,2.9,0,.71,0,1.21-.36,1.21-1.09s-.52-1.08-1.22-1.09q-2.85,0-5.7,0c-.68,0-1.23.3-1.21,1.08A1.08,1.08,0,0,0,67.65,42C68.59,42,69.52,42,70.46,42Zm.07,8h2.81c.66,0,1.18-.23,1.23-.94a1.12,1.12,0,0,0-1.2-1.24c-1.93,0-3.86,0-5.8,0A1.06,1.06,0,0,0,66.44,49c0,.71.52,1,1.19,1Z"/><path class="cls-2" d="M73.55,53.91c0,.62.1,1.09.1,1.56q0,23.18,0,46.36a2.33,2.33,0,0,0,1.23,2.23A15,15,0,0,1,82,116.23a15.16,15.16,0,0,1-6.63,13.82,15.71,15.71,0,0,1-18.27-.33,15.39,15.39,0,0,1-6.28-12.3A14.31,14.31,0,0,1,54.74,107a49.19,49.19,0,0,1,4-3.34,2.09,2.09,0,0,0,.56-.91,3.41,3.41,0,0,0,0-1q0-23,0-46.07c0-.84-.24-1.74.74-2.33s2.24-1.3,3.53-.84a12.85,12.85,0,0,1,3,1.56,5.43,5.43,0,0,0,6.1.2C72.86,54.18,73.1,54.1,73.55,53.91Zm-.64,65.27a3.81,3.81,0,0,0,3.8-3.82A4,4,0,0,0,73,111.54a4.05,4.05,0,0,0-3.88,3.82A3.93,3.93,0,0,0,72.91,119.18Z"/><path class="cls-2" d="M67.41,29.85H61.8c-.68,0-1.35-.08-1.39-1s.58-1.21,1.32-1.22q5.79,0,11.6,0a1.12,1.12,0,0,1,1.24,1.19c0,.84-.64,1-1.36,1h-5.8Z"/><path class="cls-2" d="M67.5,38H61.79c-.76,0-1.39-.18-1.38-1.09s.65-1.12,1.4-1.12c3.77,0,7.54,0,11.31,0,1,0,1.53.48,1.46,1.18-.09.87-.71,1-1.47,1C71.24,37.94,69.37,38,67.5,38Z"/><path class="cls-2" d="M67.55,43.83c1.93,0,3.87,0,5.79,0a1.79,1.79,0,0,1,1.16.8c.13.21-.12.78-.36,1.07a1.25,1.25,0,0,1-.88.26q-5.81,0-11.59,0c-.73,0-1.29-.29-1.26-1.13s.58-1,1.25-1c2,0,3.93,0,5.89,0Z"/><path class="cls-2" d="M70.43,33.89H67.64c-.67,0-1.16-.27-1.2-1a1,1,0,0,1,1.1-1.2c2,0,3.91,0,5.87,0a1.09,1.09,0,0,1,1.16,1.17c0,.75-.54,1-1.25,1Z"/><path class="cls-2" d="M70.46,42c-.94,0-1.87,0-2.81,0a1.08,1.08,0,0,1-1.21-1.1c0-.78.53-1.07,1.21-1.08q2.85,0,5.7,0c.7,0,1.23.35,1.22,1.09S74.07,42,73.36,42C72.39,42,71.42,42,70.46,42Z"/><path class="cls-2" d="M70.53,50h-2.9c-.67,0-1.16-.27-1.19-1a1.06,1.06,0,0,1,1.13-1.18c1.94-.05,3.87-.05,5.8,0A1.12,1.12,0,0,1,74.57,49c0,.71-.57.94-1.23.94Z"/><path class="cls-3" d="M72.91,119.18a3.93,3.93,0,0,1-3.84-3.82A4.05,4.05,0,0,1,73,111.54a4,4,0,0,1,3.76,3.82A3.81,3.81,0,0,1,72.91,119.18Z"/></g></g></svg>