<svg xmlns="http://www.w3.org/2000/svg" viewBox="0 0 153 189.89"><defs><style>.cls-1{fill:#107abc;}.cls-2{fill:#167bbd;}.cls-3{fill:#fff;}</style></defs><title>atrapado_2</title><g id="Capa_2" data-name="Capa 2"><g id="Capa_1-2" data-name="Capa 1"><path class="cls-1" d="M19,181.54v3H6.65V166.81h12.1v3H10.1v4.27h7.47v2.8H10.1v4.63Z"/><path class="cls-1" d="M33.37,184.56H30v-7.35a3.82,3.82,0,0,0-.55-2.3,1.79,1.79,0,0,0-1.52-.72,2.94,2.94,0,0,0-1,.2,3.76,3.76,0,0,0-1,.56,4.85,4.85,0,0,0-.83.86,3.34,3.34,0,0,0-.55,1.1v7.65H21.2v-13.1h3v2.43a5,5,0,0,1,2.1-1.95,6.7,6.7,0,0,1,3.1-.7,4,4,0,0,1,2,.45,3.21,3.21,0,0,1,1.2,1.17,5.14,5.14,0,0,1,.59,1.65,10.76,10.76,0,0,1,.16,1.88Z"/><path class="cls-1" d="M44,183.89a15,15,0,0,1-1.65.6,6.92,6.92,0,0,1-2,.3,4.66,4.66,0,0,1-1.31-.18,2.68,2.68,0,0,1-1.81-1.56,3.51,3.51,0,0,1-.28-1.49V174H35.2v-2.58h1.72v-4.25h3.35v4.25H43V174H40.27v6.4a1.21,1.21,0,0,0,.36,1,1.41,1.41,0,0,0,.89.28,3,3,0,0,0,1-.17l.8-.3Z"/><path class="cls-1" d="M53.57,174.36a6.74,6.74,0,0,0-2.72.59,3.47,3.47,0,0,0-1.73,1.69v7.92H45.77v-13.1h3.08v2.8a6.12,6.12,0,0,1,.82-1.21,6.49,6.49,0,0,1,1-.94,4.68,4.68,0,0,1,1.11-.61,3.09,3.09,0,0,1,1.09-.21h.41l.26,0Z"/><path class="cls-1" d="M58.85,184.81a4.93,4.93,0,0,1-1.78-.31,4.34,4.34,0,0,1-1.42-.87,4.09,4.09,0,0,1-.94-1.32,3.9,3.9,0,0,1-.34-1.65,3.72,3.72,0,0,1,.41-1.71,4.09,4.09,0,0,1,1.15-1.34,6,6,0,0,1,1.77-.86,7.6,7.6,0,0,1,2.25-.31,9.71,9.71,0,0,1,1.71.15,7.3,7.3,0,0,1,1.49.42v-.75a2.65,2.65,0,0,0-.74-2,3.1,3.1,0,0,0-2.19-.7,5.81,5.81,0,0,0-2,.38,9.59,9.59,0,0,0-2.05,1.1l-1-2.13a9.71,9.71,0,0,1,5.45-1.67,6.34,6.34,0,0,1,4.38,1.39,5,5,0,0,1,1.57,4v4.07a1.21,1.21,0,0,0,.18.75.81.81,0,0,0,.62.25v2.85a7.3,7.3,0,0,1-1.48.18,2.19,2.19,0,0,1-1.46-.43,1.84,1.84,0,0,1-.64-1.12l-.07-.73a5.78,5.78,0,0,1-2.13,1.75A6.07,6.07,0,0,1,58.85,184.81Zm.95-2.45a4.38,4.38,0,0,0,1.61-.3,2.91,2.91,0,0,0,1.19-.8,1.22,1.22,0,0,0,.55-.95v-1.5a8.22,8.22,0,0,0-1.3-.36,7.2,7.2,0,0,0-1.35-.14,3.6,3.6,0,0,0-2.13.59,1.81,1.81,0,0,0-.17,2.9A2.32,2.32,0,0,0,59.8,182.36Z"/><path class="cls-1" d="M77.47,184.81a5.26,5.26,0,0,1-2.7-.68,4.83,4.83,0,0,1-1.8-1.87v7.63H69.62V171.46h2.93v2.25a5.31,5.31,0,0,1,1.87-1.81,5.24,5.24,0,0,1,2.65-.66,5.6,5.6,0,0,1,2.45.54,5.92,5.92,0,0,1,1.94,1.45,6.48,6.48,0,0,1,1.27,2.15A7.32,7.32,0,0,1,83.2,178a8.3,8.3,0,0,1-.43,2.67,6.74,6.74,0,0,1-1.19,2.18,5.5,5.5,0,0,1-1.81,1.45A5.08,5.08,0,0,1,77.47,184.81ZM76.35,182a2.92,2.92,0,0,0,1.38-.32,3.33,3.33,0,0,0,1.09-.88,4.11,4.11,0,0,0,.7-1.27,4.46,4.46,0,0,0,.25-1.5,4.34,4.34,0,0,0-.27-1.54,3.93,3.93,0,0,0-.77-1.24,3.51,3.51,0,0,0-2.58-1.12,3.09,3.09,0,0,0-1,.16,3.45,3.45,0,0,0-.92.46,4.27,4.27,0,0,0-.77.7,3.11,3.11,0,0,0-.51.88v3.07a4.51,4.51,0,0,0,1.38,1.87A3.13,3.13,0,0,0,76.35,182Z"/><path class="cls-1" d="M105.82,184.56h-3.35v-7.35a3.9,3.9,0,0,0-.54-2.3,1.75,1.75,0,0,0-1.48-.72,2.8,2.8,0,0,0-1.88.76,4.22,4.22,0,0,0-1.25,2v7.62H94v-7.35a3.9,3.9,0,0,0-.54-2.3,1.75,1.75,0,0,0-1.48-.72,2.87,2.87,0,0,0-1.87.75,4.1,4.1,0,0,0-1.26,2v7.65H85.47v-13.1h3v2.43a4.91,4.91,0,0,1,2-2,5.94,5.94,0,0,1,2.89-.69,3.73,3.73,0,0,1,2.55.8,3.58,3.58,0,0,1,1.15,2,5.65,5.65,0,0,1,2-2.06,5.5,5.5,0,0,1,2.8-.71,3.88,3.88,0,0,1,2,.45,3.21,3.21,0,0,1,1.2,1.17,5.14,5.14,0,0,1,.59,1.65,10.76,10.76,0,0,1,.16,1.88Z"/><path class="cls-1" d="M114.82,184.81a7.42,7.42,0,0,1-2.85-.53,6.51,6.51,0,0,1-2.17-1.47,6.32,6.32,0,0,1-1.39-2.15,6.75,6.75,0,0,1-.49-2.57,7.27,7.27,0,0,1,.48-2.64,6.3,6.3,0,0,1,1.37-2.17,6.54,6.54,0,0,1,2.19-1.49,7.23,7.23,0,0,1,2.89-.55,7,7,0,0,1,2.86.55,6.73,6.73,0,0,1,2.15,1.47,6.42,6.42,0,0,1,1.35,2.15,7.15,7.15,0,0,1,.46,2.55c0,.22,0,.43,0,.63a3,3,0,0,1-.06.5H111.47a3.84,3.84,0,0,0,.38,1.37,3.31,3.31,0,0,0,.77,1,3.46,3.46,0,0,0,2.33.87,3.89,3.89,0,0,0,1.88-.48,2.61,2.61,0,0,0,1.22-1.29l2.87.8a5.79,5.79,0,0,1-2.31,2.46A7.19,7.19,0,0,1,114.82,184.81Zm3.4-7.9a3.43,3.43,0,0,0-1.09-2.36,3.32,3.32,0,0,0-2.33-.89,3.3,3.3,0,0,0-2.3.9,3.52,3.52,0,0,0-.74,1,3.57,3.57,0,0,0-.34,1.32Z"/><path class="cls-1" d="M135.9,184.56h-3.35v-7.35a3.89,3.89,0,0,0-.55-2.3,1.82,1.82,0,0,0-1.53-.72,2.93,2.93,0,0,0-1,.2,3.76,3.76,0,0,0-1,.56,4.57,4.57,0,0,0-.84.86,3.55,3.55,0,0,0-.55,1.1v7.65h-3.35v-13.1h3v2.43a5,5,0,0,1,2.1-1.95,6.67,6.67,0,0,1,3.1-.7,4,4,0,0,1,2,.45,3.37,3.37,0,0,1,1.2,1.17,5.13,5.13,0,0,1,.58,1.65,10.77,10.77,0,0,1,.17,1.88Z"/><path class="cls-1" d="M146.55,183.89a15,15,0,0,1-1.65.6,7,7,0,0,1-2.05.3,4.68,4.68,0,0,1-1.32-.18,2.75,2.75,0,0,1-1.07-.56,2.7,2.7,0,0,1-.74-1,3.67,3.67,0,0,1-.27-1.49V174h-1.73v-2.58h1.73v-4.25h3.35v4.25h2.75V174H142.8v6.4a1.21,1.21,0,0,0,.36,1,1.39,1.39,0,0,0,.89.28,3,3,0,0,0,1-.17l.8-.3Z"/><circle class="cls-2" cx="76.5" cy="76.5" r="76.5"/><path class="cls-3" d="M21.52,116.8c.38-3.54,1-6.32.87-9.06a44.74,44.74,0,0,0-1.72-8.06c-1.07-4.29-2.27-8.55-3.28-12.85-.44-1.86.38-3.08,2.14-4.21A146.06,146.06,0,0,0,33.4,72.84a36.75,36.75,0,0,1,15.77-7.77c1.53-.33,3.06-.69,4.58-1.07,1.7-.42,3.12-.84,4.23,1.42,1,1.92,5.15,2.15,7.13,1.11,1.73-.91,3.55-1.38,5,.76,1.21,1.8,6.32,1.06,7.24-1A4.94,4.94,0,0,1,84,64c2.66,1.53,3.41-1.23,5-2,1.4-.65,1.33-1.73.86-3.06-.87-2.51-.26-3.59,2.37-4a3.91,3.91,0,0,0,3.52-2.92,16.57,16.57,0,0,1,7.58-9.23c2.49-1.47,4.23-4.29,6.12-6.66,1.1-1.39,2.1-2.69,4-2S116,36.57,116,38.44c-.1,2.93-1.81,5-3.93,6.81-1.58,1.33-3.49,2.39-4.74,4s-1.69,3.55-2.85,6.14c1.33-.4,2.57-.39,3.14-1,2.67-2.9,6-3.54,9.72-3.53A106.13,106.13,0,0,0,128,50.05c2.18-.21,3.12.6,2.82,2.81a4.84,4.84,0,0,1-4,4.27,55.3,55.3,0,0,1-8,.9c-3.85.24-5.35,1.09-7.8,5L135.6,64.5c.82,4.58-2.45,8.13-7.74,8.29-3.22.1-6.45-.14-9.67-.22-2.79-.07-5.58-.11-8.37-.17a7.75,7.75,0,0,1-5.09-1.6c-1.9-1.45-5.11-1.19-7.76-1.62a1,1,0,0,0-.79.54c-.93,3.57-4.25,2.68-6.61,3.5a2.35,2.35,0,0,1-2-.68c-1.37-1.61-2.59-1.23-4-.13a26.64,26.64,0,0,1-3.7,2.45c-1.65.89-2.44,2-2.07,4a3.37,3.37,0,0,1-1,2.4c-1.6,1.71-3.39,3.25-5.07,4.89-4.06,4-4.61,10.14-2.07,15.18A47.83,47.83,0,0,1,73.81,113c.49,2.38-.34,5.16-1.08,7.6a4.4,4.4,0,0,1-6.29,2.34,3.65,3.65,0,0,1-1.53-2.37c-.38-2.22-.31-4.52-.71-6.74-.68-3.82-3.87-5.84-6.37-8.35-2.14-2.14-4.22-3.73-7.7-3.28a8.89,8.89,0,0,1-8.68-4.09Z"/><path class="cls-3" d="M114.32,86.75a59,59,0,0,0,1.55,7.35c.32,1,1.68,1.59,2.58,2.36l.84-.37-1.19,6.57-3-.56-4.72,7.5,1.93,2.51-5.6,4.17-1.71-3a47.5,47.5,0,0,0-7.26,2c-1,.43-1.45,2.11-2.28,3.43l-6.34-.73c1.69-3.45-.24-4.4-2.9-5.26a8.81,8.81,0,0,1-3.37-2.78c-1.56-1.8-3-2.61-5.18,0l-3.76-5.64L77,102.53c-.4-2.89-.79-5.71-1.19-8.64l-3.39-.77c.53-2.19,1-4.32,1.6-6.62l3.3,1,5.16-7.16-2-2.72,5.81-3.7L88,76.83l8.57-1.67L97.26,72l6.63,1.34-.8,3.13,7.49,5,2.49-2,3.9,5.73ZM96.23,110.51c8.8.46,15.07-8.13,15-15.17a15.22,15.22,0,1,0-30.43.25C80.81,102.86,87,111,96.23,110.51Z"/><path class="cls-3" d="M84.42,28.43,88.18,33l2.56-.95,2,5-2.8,1.3c1.54,2-1.57,5.63,3.16,6.6-.45,1.71-.89,3.42-1.38,5.29l-2.63-.8-3.3,5,1.71,2.16-4.25,3.51L81.47,58,76,60.09v2.75l-5.32.34-.32-2.75-5.72-1.59-1.53,2.31-4.65-3L60,55.86l-3.77-4.65-2.57.93-2-5L54.23,46l-.34-5.88-2.61-.83,1.37-5.21,2.69.66,3.23-4.92L57,27.56c1.33-1.11,2.69-2.24,4.17-3.49l2,2.37c1.7-1.92,6-.43,5.43-5.05L73.7,21,74,23.8l5.74,1.59,1.55-2.33L85.85,26ZM72.11,56a13.88,13.88,0,1,0,.16-27.75A13.88,13.88,0,0,0,72.11,56Z"/></g></g></svg>