<svg xmlns="http://www.w3.org/2000/svg" viewBox="0 0 151.67 183.93"><defs><style>.cls-1{fill:#107abc;}.cls-2{fill:#167bbd;}.cls-3{fill:#fff;}</style></defs><title>caidas_1</title><g id="Capa_2" data-name="Capa 2"><g id="Capa_1-2" data-name="Capa 1"><path class="cls-1" d="M48.57,183.67V165.21H61v3.15H52.16v4.76h7.33V176H52.16v7.64Z"/><path class="cls-1" d="M64.67,183.93a5.1,5.1,0,0,1-1.85-.32,4.44,4.44,0,0,1-1.48-.91A4.12,4.12,0,0,1,60,179.62a3.84,3.84,0,0,1,.43-1.78,4.1,4.1,0,0,1,1.2-1.39,6,6,0,0,1,1.83-.9,7.88,7.88,0,0,1,2.34-.33,10.43,10.43,0,0,1,1.78.16,7.1,7.1,0,0,1,1.55.44V175a2.75,2.75,0,0,0-.77-2.08,3.21,3.21,0,0,0-2.27-.73,5.88,5.88,0,0,0-2.14.4,9.67,9.67,0,0,0-2.13,1.14l-1.06-2.21a10.06,10.06,0,0,1,5.66-1.74A6.68,6.68,0,0,1,71,171.26a5.29,5.29,0,0,1,1.62,4.17v4.24a1.24,1.24,0,0,0,.2.78.84.84,0,0,0,.63.26v3a7.14,7.14,0,0,1-1.53.19,2.33,2.33,0,0,1-1.52-.44,1.87,1.87,0,0,1-.66-1.18l-.08-.75a6,6,0,0,1-2.21,1.82A6.31,6.31,0,0,1,64.67,183.93Zm1-2.54a4.52,4.52,0,0,0,1.68-.32,3,3,0,0,0,1.24-.83,1.24,1.24,0,0,0,.57-1v-1.56a8.87,8.87,0,0,0-1.35-.37,7.05,7.05,0,0,0-1.41-.15,3.7,3.7,0,0,0-2.21.62,1.83,1.83,0,0,0-.86,1.54A1.87,1.87,0,0,0,64,180.8,2.46,2.46,0,0,0,65.65,181.39Z"/><path class="cls-1" d="M75.85,164.69h3.48v14.62a1.74,1.74,0,0,0,.36,1.17,1.34,1.34,0,0,0,1,.41,2.55,2.55,0,0,0,.69-.1,5.59,5.59,0,0,0,.72-.26l.47,2.65a6.58,6.58,0,0,1-1.64.52,9.11,9.11,0,0,1-1.69.18,3.51,3.51,0,0,1-2.54-.87,3.33,3.33,0,0,1-.89-2.48Z"/><path class="cls-1" d="M84.09,164.69h3.48v14.62a1.69,1.69,0,0,0,.37,1.17,1.31,1.31,0,0,0,1,.41,2.54,2.54,0,0,0,.68-.1,5.09,5.09,0,0,0,.72-.26l.47,2.65a6.58,6.58,0,0,1-1.64.52,9,9,0,0,1-1.69.18A3.51,3.51,0,0,1,85,183a3.33,3.33,0,0,1-.89-2.48Z"/><path class="cls-1" d="M97.5,183.93a10.63,10.63,0,0,1-3.35-.54,8.41,8.41,0,0,1-2.81-1.56l1.3-2.18A11.32,11.32,0,0,0,95.07,181a6.39,6.39,0,0,0,2.36.46,3,3,0,0,0,1.63-.39,1.25,1.25,0,0,0,.6-1.12,1.13,1.13,0,0,0-.7-1.07,16.5,16.5,0,0,0-2.29-.78c-.88-.24-1.64-.47-2.26-.7a5.73,5.73,0,0,1-1.51-.76,2.66,2.66,0,0,1-.83-1,3.2,3.2,0,0,1-.26-1.34,4.21,4.21,0,0,1,.4-1.87A4.11,4.11,0,0,1,93.34,171a5.36,5.36,0,0,1,1.71-.9,7.14,7.14,0,0,1,2.12-.31,9.27,9.27,0,0,1,2.87.44,7,7,0,0,1,2.45,1.43l-1.4,2.11a8,8,0,0,0-2-1.14,5.38,5.38,0,0,0-1.94-.37,2.73,2.73,0,0,0-1.48.37,1.25,1.25,0,0,0-.6,1.16,1.16,1.16,0,0,0,.14.6,1.26,1.26,0,0,0,.46.42,4.1,4.1,0,0,0,.82.35c.33.11.75.23,1.26.35.93.24,1.73.49,2.4.73a6.59,6.59,0,0,1,1.64.83,3,3,0,0,1,.94,1.08,3.32,3.32,0,0,1,.3,1.47,3.8,3.8,0,0,1-1.49,3.16A6.37,6.37,0,0,1,97.5,183.93Z"/><circle class="cls-2" cx="75.84" cy="75.84" r="75.84"/><path class="cls-3" d="M41.45,104.2c.48.68,1,1.35,1.45,2.07,1.51,2.42,3.06,2.93,5.59,1.6q12.59-6.59,25.12-13.29c.8-.42,1.94-1.4,1.86-2a3.8,3.8,0,0,0-1.94-2.13c-2.57-1.41-5.24-2.65-7.88-4a11.6,11.6,0,0,0-8.75-.74c-7,2.1-14,4.15-21,6.21a16.85,16.85,0,0,1-2.08.57c-2.15.33-2.88-.29-2.89-2.45,0-4.63,0-9.26,0-14.58a23.75,23.75,0,0,1,2.81,2c2.83,2.88,3.53,3.07,7.23,1.64,5.49-2.11,11-4.18,16.45-6.38A7.74,7.74,0,0,1,64,73c4.9,2.31,9.84,4.54,14.78,6.78,3.35,1.51,5.51,1,7.62-2.07,1.52-2.19,2.86-4.52,4.27-6.79.67-1.09.36-1.83-.64-2.65q-11-9-21.9-18.17a5.5,5.5,0,0,1-1-7.71c1.17-1.73,2.84-2.27,4.55-1.12a28.31,28.31,0,0,1,4.63,3.9c3,3.06,5.78,6.24,8.61,9.41a9.66,9.66,0,0,0,5.63,3.28c4.12.73,8.25,1.41,12.34,2.29,5.06,1.09,11.36-5.35,9.54-10.62-1.56-4.5-3.24-9-4.87-13.44-1-2.67-.09-4.48,2.58-5.29,1.61-.49,3.1-.22,4,1.27,1.46,2.54,2.65,5.23,4.09,7.78,3.54,6.31,3.54,12.38.21,19-3.93,7.8-7,16-10.49,24.05a42.41,42.41,0,0,1-2.78,5,16.64,16.64,0,0,1-7.14,6.44c-17.43,8.52-34.78,17.21-52.16,25.85a12.22,12.22,0,0,1-1.43.64c-2.57.88-3.78.09-3.83-2.61-.06-3.79,0-7.59,0-11.38a15.81,15.81,0,0,1,.42-2.41Z"/><path class="cls-3" d="M99.76,57a7.93,7.93,0,1,1,7.93-8A7.92,7.92,0,0,1,99.76,57Z"/></g></g></svg>