<svg xmlns="http://www.w3.org/2000/svg" viewBox="0 0 152.07 191.73"><defs><style>.cls-1{fill:#107abc;}.cls-2{fill:#167bbd;}.cls-3{fill:#fff;}</style></defs><title>corriente_1</title><g id="Capa_2" data-name="Capa 2"><g id="Capa_1-2" data-name="Capa 1"><path class="cls-1" d="M18.52,169.33v17H15.24V179.1H7.51v7.27H4.2v-17H7.51v6.89h7.73v-6.89Z"/><path class="cls-1" d="M21.76,172v-3.19H25V172Zm0,14.33V173.8H25v12.57Z"/><path class="cls-1" d="M32.8,186.44a5.14,5.14,0,0,1-2.3-.5,5.45,5.45,0,0,1-1.79-1.38,6.25,6.25,0,0,1-1.16-2,7.62,7.62,0,0,1,0-5,6.68,6.68,0,0,1,1.2-2.06,5.56,5.56,0,0,1,1.85-1.4,5.64,5.64,0,0,1,2.38-.5,4.88,4.88,0,0,1,2.56.66A5.59,5.59,0,0,1,37.39,176v-2.2H40.2v12a5.77,5.77,0,0,1-.53,2.5,5.55,5.55,0,0,1-1.45,1.87A6.78,6.78,0,0,1,36,191.32a9.29,9.29,0,0,1-2.8.41,7.86,7.86,0,0,1-3.47-.69,7.13,7.13,0,0,1-2.41-1.93l1.75-1.7a5.05,5.05,0,0,0,1.82,1.39,5.52,5.52,0,0,0,2.31.5,5.2,5.2,0,0,0,1.43-.2,3.43,3.43,0,0,0,1.21-.64,3.05,3.05,0,0,0,.83-1.1,3.89,3.89,0,0,0,.3-1.59v-1.58a4.27,4.27,0,0,1-1.75,1.67A5.19,5.19,0,0,1,32.8,186.44Zm1.08-2.56a3.06,3.06,0,0,0,1-.17,3.58,3.58,0,0,0,.89-.46,3.52,3.52,0,0,0,.72-.67,2.93,2.93,0,0,0,.48-.81v-3A3.9,3.9,0,0,0,35.62,177a3.21,3.21,0,0,0-1.93-.67,2.74,2.74,0,0,0-1.34.32,3.43,3.43,0,0,0-1,.86,4,4,0,0,0-.66,1.24,4.43,4.43,0,0,0-.23,1.44,4,4,0,0,0,.26,1.44,3.84,3.84,0,0,0,.73,1.18,3.59,3.59,0,0,0,1.1.79A3.22,3.22,0,0,0,33.88,183.88Z"/><path class="cls-1" d="M54.79,186.37H51.57v-7.05a3.56,3.56,0,0,0-.55-2.2,1.88,1.88,0,0,0-1.56-.71,2.42,2.42,0,0,0-.91.2,3,3,0,0,0-.91.54,4.45,4.45,0,0,0-.8.82,3.27,3.27,0,0,0-.52,1.06v7.34H43.1V168.85h3.22v7.28a4.81,4.81,0,0,1,1.88-1.89,5.32,5.32,0,0,1,2.63-.66,4.14,4.14,0,0,1,2,.42,3.16,3.16,0,0,1,1.2,1.12,4.48,4.48,0,0,1,.6,1.58,9.94,9.94,0,0,1,.17,1.82Z"/><path class="cls-1" d="M66.09,186.37,61.46,173.8h3.31l3.19,10,3.22-10h3l-4.63,12.57Z"/><path class="cls-1" d="M81.26,186.61a6.79,6.79,0,0,1-2.76-.53,6.15,6.15,0,0,1-2.08-1.42,6.3,6.3,0,0,1-1.3-2.08,6.65,6.65,0,0,1-.46-2.47,6.77,6.77,0,0,1,.46-2.5,6.36,6.36,0,0,1,1.3-2.07,6.17,6.17,0,0,1,2.08-1.43,7,7,0,0,1,2.76-.53,6.88,6.88,0,0,1,2.75.53,6.24,6.24,0,0,1,3.37,3.5,7,7,0,0,1,.45,2.5,6.85,6.85,0,0,1-.45,2.47,6.3,6.3,0,0,1-1.3,2.08A6.06,6.06,0,0,1,84,186.08,6.79,6.79,0,0,1,81.26,186.61ZM78,180.11a4.53,4.53,0,0,0,.25,1.52,3.71,3.71,0,0,0,.7,1.19,2.94,2.94,0,0,0,1,.78,3,3,0,0,0,1.3.28,3.07,3.07,0,0,0,2.34-1.06,3.46,3.46,0,0,0,.69-1.2,4.6,4.6,0,0,0,0-3.05,3.56,3.56,0,0,0-.69-1.2,3.31,3.31,0,0,0-1-.78,3.15,3.15,0,0,0-1.3-.27,2.85,2.85,0,0,0-1.3.29,3.09,3.09,0,0,0-1,.79,3.55,3.55,0,0,0-.7,1.2A4.6,4.6,0,0,0,78,180.11Z"/><path class="cls-1" d="M90,168.85h3.22v13.49a1.59,1.59,0,0,0,.33,1.08,1.21,1.21,0,0,0,1,.39,2.56,2.56,0,0,0,.64-.1,4.7,4.7,0,0,0,.66-.24l.43,2.45a6,6,0,0,1-1.51.48,8.42,8.42,0,0,1-1.56.16,3.2,3.2,0,0,1-2.34-.8,3,3,0,0,1-.83-2.29Z"/><path class="cls-1" d="M105.14,185.73a14.5,14.5,0,0,1-1.58.57,6.75,6.75,0,0,1-2,.29,4.62,4.62,0,0,1-1.26-.17,2.68,2.68,0,0,1-1-.54,2.56,2.56,0,0,1-.71-1,3.41,3.41,0,0,1-.27-1.43v-7.22H96.67V173.8h1.65v-4.08h3.22v4.08h2.64v2.47h-2.64v6.14a1.15,1.15,0,0,0,.35,1,1.28,1.28,0,0,0,.85.28,3,3,0,0,0,1-.17c.32-.11.58-.21.77-.29Z"/><path class="cls-1" d="M110.25,186.61a4.71,4.71,0,0,1-1.7-.3,4,4,0,0,1-1.37-.84,3.84,3.84,0,0,1-1.23-2.84,3.59,3.59,0,0,1,.4-1.65,3.74,3.74,0,0,1,1.1-1.28,5.61,5.61,0,0,1,1.7-.83,7.32,7.32,0,0,1,2.16-.3,8.93,8.93,0,0,1,1.64.15,6.18,6.18,0,0,1,1.43.41v-.72a2.54,2.54,0,0,0-.71-1.93,3,3,0,0,0-2.1-.67,5.58,5.58,0,0,0-2,.36,9.56,9.56,0,0,0-2,1.06l-1-2a9.31,9.31,0,0,1,5.23-1.61,6.11,6.11,0,0,1,4.21,1.33,4.89,4.89,0,0,1,1.5,3.86v3.91a1.15,1.15,0,0,0,.18.72.83.83,0,0,0,.59.24v2.73a7.24,7.24,0,0,1-1.41.17,2.17,2.17,0,0,1-1.41-.41,1.73,1.73,0,0,1-.61-1.08l-.07-.69a5.69,5.69,0,0,1-2,1.68A5.92,5.92,0,0,1,110.25,186.61Zm.91-2.35a4,4,0,0,0,1.55-.29,2.75,2.75,0,0,0,1.14-.76,1.18,1.18,0,0,0,.53-.92v-1.44a8.74,8.74,0,0,0-1.25-.35,7.44,7.44,0,0,0-1.3-.13,3.42,3.42,0,0,0-2,.57,1.72,1.72,0,0,0-.16,2.78A2.24,2.24,0,0,0,111.16,184.26Z"/><path class="cls-1" d="M125.51,186.44a5.14,5.14,0,0,1-2.3-.5,5.45,5.45,0,0,1-1.79-1.38,6.25,6.25,0,0,1-1.16-2,7.62,7.62,0,0,1,0-5,6.68,6.68,0,0,1,1.2-2.06,5.56,5.56,0,0,1,1.85-1.4,5.64,5.64,0,0,1,2.38-.5,4.88,4.88,0,0,1,2.56.66A5.59,5.59,0,0,1,130.1,176v-2.2h2.81v12a5.77,5.77,0,0,1-.53,2.5,5.55,5.55,0,0,1-1.45,1.87,6.78,6.78,0,0,1-2.21,1.18,9.29,9.29,0,0,1-2.8.41,7.86,7.86,0,0,1-3.47-.69,7.13,7.13,0,0,1-2.41-1.93l1.75-1.7a5.05,5.05,0,0,0,1.82,1.39,5.52,5.52,0,0,0,2.31.5,5.2,5.2,0,0,0,1.43-.2,3.43,3.43,0,0,0,1.21-.64,3.05,3.05,0,0,0,.83-1.1,3.89,3.89,0,0,0,.3-1.59v-1.58a4.27,4.27,0,0,1-1.75,1.67A5.19,5.19,0,0,1,125.51,186.44Zm1.08-2.56a3.06,3.06,0,0,0,1-.17,3.58,3.58,0,0,0,.89-.46,3.52,3.52,0,0,0,.72-.67,2.93,2.93,0,0,0,.48-.81v-3a3.9,3.9,0,0,0-1.36-1.78,3.21,3.21,0,0,0-1.93-.67,2.74,2.74,0,0,0-1.34.32,3.43,3.43,0,0,0-1,.86,4,4,0,0,0-.66,1.24,4.43,4.43,0,0,0-.23,1.44,4,4,0,0,0,.26,1.44,3.84,3.84,0,0,0,.73,1.18,3.59,3.59,0,0,0,1.1.79A3.22,3.22,0,0,0,126.59,183.88Z"/><path class="cls-1" d="M141.64,186.61a7,7,0,0,1-2.73-.51,6.2,6.2,0,0,1-3.42-3.47,6.46,6.46,0,0,1-.47-2.47,7.05,7.05,0,0,1,.45-2.53,6.16,6.16,0,0,1,3.42-3.52,7.07,7.07,0,0,1,2.78-.53,6.88,6.88,0,0,1,2.75.53,6.39,6.39,0,0,1,2.06,1.41,6,6,0,0,1,1.29,2.07,6.78,6.78,0,0,1,.45,2.45c0,.21,0,.4,0,.6a2.84,2.84,0,0,1-.06.48h-9.72a3.48,3.48,0,0,0,.36,1.32,3.29,3.29,0,0,0,.74,1,3.18,3.18,0,0,0,1,.62,3.31,3.31,0,0,0,1.2.22,3.6,3.6,0,0,0,1.81-.47,2.48,2.48,0,0,0,1.17-1.23l2.76.77a5.7,5.7,0,0,1-2.22,2.36A6.86,6.86,0,0,1,141.64,186.61Zm3.27-7.58a3.33,3.33,0,0,0-1-2.27,3.16,3.16,0,0,0-2.24-.85,3.22,3.22,0,0,0-1.21.23,3.14,3.14,0,0,0-1,.63,3.39,3.39,0,0,0-1,2.26Z"/><circle class="cls-2" cx="76.04" cy="76.04" r="76.04"/><path class="cls-3" d="M72.68,93.47,56.62,94.6c7-10.93,13.91-21.58,21.17-32.83L60.55,62.85c1.44-3.12,2.49-5.71,3.8-8.16,4.48-8.37,9-16.71,13.64-25A3.79,3.79,0,0,1,80.75,28c5.45.09,10.89.43,16.83.7a19.64,19.64,0,0,1-1.15,3.54c-2.2,4-4.51,7.89-6.78,11.82s-1.92,4.38,2.41,4.62c2.73.15,5.45.36,8.17.55a6.94,6.94,0,0,1,1.18.51c-1.93,3.18-3.83,6.28-5.72,9.4q-5.49,9.08-11,18.15c-1.28,2.12-.8,3.4,1.82,3.66,3,.31,6,.71,9,1,2.39.24,4.79.39,7.23.58l-53.51,48c7.87-12,15.85-24.11,23.84-36.26Z"/></g></g></svg>