<svg xmlns="http://www.w3.org/2000/svg" viewBox="0 0 153.53 184.95"><defs><style>.cls-1{fill:#107abc;}.cls-2{fill:#167bbd;}.cls-3{fill:#fff;}.cls-4{fill:#fbfbfa;}</style></defs><title>esfuerzo_1</title><g id="Capa_2" data-name="Capa 2"><g id="Capa_1-2" data-name="Capa 1"><path class="cls-1" d="M40.49,181.55v3.15H27.67V166.24H40.26v3.14h-9v4.45H39v2.91H31.26v4.81Z"/><path class="cls-1" d="M45.12,171.07l2.94,4.26.21.47.26-.47,2.91-4.26H55l-4.87,6.84,4.94,6.79H51.52l-3-4.24-.23-.44-.21.44-3,4.24H41.48l4.91-6.79-4.83-6.84Z"/><path class="cls-1" d="M62.52,185a7.63,7.63,0,0,1-3-.55,6.79,6.79,0,0,1-2.26-1.53,6.49,6.49,0,0,1-1.44-2.23,7.14,7.14,0,0,1-.51-2.68,7.57,7.57,0,0,1,.49-2.74A6.74,6.74,0,0,1,57.26,173a6.92,6.92,0,0,1,2.28-1.55,7.57,7.57,0,0,1,3-.57,7.44,7.44,0,0,1,3,.57,6.81,6.81,0,0,1,2.23,1.53,6.45,6.45,0,0,1,1.41,2.24,7.45,7.45,0,0,1,.48,2.65c0,.23,0,.44,0,.65a2.34,2.34,0,0,1-.07.52H59a3.91,3.91,0,0,0,.39,1.43,3.6,3.6,0,0,0,.81,1.07,3.44,3.44,0,0,0,1.12.67,3.53,3.53,0,0,0,1.3.24,4,4,0,0,0,2-.51,2.71,2.71,0,0,0,1.26-1.34l3,.83A6,6,0,0,1,66.45,184,7.41,7.41,0,0,1,62.52,185Zm3.53-8.21a3.65,3.65,0,0,0-1.13-2.46,3.49,3.49,0,0,0-2.43-.92,3.52,3.52,0,0,0-2.39.93,3.61,3.61,0,0,0-.77,1.07,3.7,3.7,0,0,0-.35,1.38Z"/><path class="cls-1" d="M79.88,174.09a6.76,6.76,0,0,0-2.83.61,3.55,3.55,0,0,0-1.79,1.75v8.25H71.77V171.07H75V174a6.52,6.52,0,0,1,.86-1.26,6.42,6.42,0,0,1,1.06-1,5,5,0,0,1,1.16-.64,3.14,3.14,0,0,1,1.13-.22h.43a1.12,1.12,0,0,1,.27,0Z"/><path class="cls-1" d="M90,184a15.4,15.4,0,0,1-1.72.63,7.13,7.13,0,0,1-2.13.31,5,5,0,0,1-1.37-.18,3,3,0,0,1-1.11-.59,2.72,2.72,0,0,1-.77-1,3.74,3.74,0,0,1-.29-1.54v-7.83H80.82v-2.68h1.79v-4.42H86.1v4.42H89v2.68H86.1v6.66a1.23,1.23,0,0,0,.37,1,1.46,1.46,0,0,0,.93.3,3.19,3.19,0,0,0,1.06-.18c.35-.12.63-.23.83-.31Z"/><path class="cls-1" d="M91.82,169.17v-3.45H95.3v3.45Zm0,15.53V171.07H95.3V184.7Z"/><path class="cls-1" d="M104.74,185a7.49,7.49,0,0,1-3-.57,6.57,6.57,0,0,1-2.25-1.54,6.77,6.77,0,0,1-1.42-2.25,7.32,7.32,0,0,1-.49-2.68,7.44,7.44,0,0,1,.49-2.71A6.83,6.83,0,0,1,99.5,173a6.6,6.6,0,0,1,2.25-1.55,8.1,8.1,0,0,1,6,0A6.71,6.71,0,0,1,110,173a6.83,6.83,0,0,1,1.42,2.24,7.44,7.44,0,0,1,.49,2.71,7.32,7.32,0,0,1-.49,2.68,6.91,6.91,0,0,1-1.41,2.25,6.49,6.49,0,0,1-2.23,1.54A7.52,7.52,0,0,1,104.74,185Zm-3.56-7a4.76,4.76,0,0,0,.27,1.65,4.13,4.13,0,0,0,.75,1.29,3.44,3.44,0,0,0,1.13.84,3.33,3.33,0,0,0,1.41.3,3.29,3.29,0,0,0,1.4-.3,3.44,3.44,0,0,0,1.13-.84,4.09,4.09,0,0,0,.76-1.3,5,5,0,0,0,.27-1.67,4.86,4.86,0,0,0-.27-1.64,3.93,3.93,0,0,0-.76-1.29,3.34,3.34,0,0,0-1.13-.85,3.29,3.29,0,0,0-1.4-.3,3.34,3.34,0,0,0-1.41.31,3.65,3.65,0,0,0-1.13.86,4,4,0,0,0-.75,1.3A4.82,4.82,0,0,0,101.18,177.91Z"/><path class="cls-1" d="M126.86,184.7h-3.48v-7.65a4,4,0,0,0-.57-2.39,1.88,1.88,0,0,0-1.59-.75,2.88,2.88,0,0,0-1.06.2,3.93,3.93,0,0,0-1,.59,4.66,4.66,0,0,0-.87.9,3.39,3.39,0,0,0-.57,1.14v8H114.2V171.07h3.15v2.52a5.14,5.14,0,0,1,2.18-2,7,7,0,0,1,3.23-.73,4,4,0,0,1,2.08.47,3.3,3.3,0,0,1,1.24,1.22,4.9,4.9,0,0,1,.61,1.71,10.55,10.55,0,0,1,.17,1.95Z"/><circle class="cls-2" cx="76.77" cy="76.77" r="76.77"/><path class="cls-3" d="M41.11,66.69c-1.6-1.41-3-2.56-4.26-3.78-.5-.47-1.53-.77-1.1-1.75.33-.75,1.17-.55,1.83-.59,2.29-.15,4.58-.35,6.87-.38,1.37,0,1.7-.38,1.44-1.82-.29-1.66-2-3.86-.34-4.9,1.26-.81,2.67,1.62,4.17,2.33,2.64,1.25,3,3.1,2.52,6-1.26,7-2.31,14.19,1.35,21A1.67,1.67,0,0,1,53.22,85c-1.31,1.09-2.61,2.19-4,3.22-1.19.91-1.87.47-2-.94A17.71,17.71,0,0,1,46.87,84c.22-3-1.15-2.85-3.24-1.86-1.53.72-3.17,1.22-4.77,1.8-.57.21-1.22.45-1.67-.08s0-1.13.28-1.63c1.13-1.81,2.24-3.63,3.44-5.38.92-1.34.5-1.91-.94-2.22-1.67-.35-3.32-.78-5-1.23-.94-.26-2.37-.12-2.58-1.25s1.25-1.4,2.08-1.87C36.58,69.12,38.68,68,41.11,66.69Z"/><path class="cls-2" d="M120.48,86.43c-.16-7.85-.14-15.71,0-23.56,0-2.18-.68-2.7-2.76-2.68q-16.5.15-33,0c-1.89,0-3,.36-2.77,2.65-2.82-2.8-1.64-5.73-1.16-8.64.67-4,.24-7.86-3.24-10.41s-7.47-2.68-11.35-.59c-4.7,2.53-7.23,6.8-9.24,11.53-3,7-2.74,14.33-2.59,21.67a16,16,0,0,0,3.15,9,4,4,0,0,1,1,2.26c.41,10.49-2,20.11-8.64,28.48-2.4,3-5.28,5.55-7.94,8.32-2.4,2.5-2.11,6.07.55,8.95s7.37,3.84,9.67,1.73c7.6-7,14.47-14.51,18-24.47.77-2.12,1.6-4.22,2.4-6.33a28.38,28.38,0,0,1,1.21,14c-.6,3.19-1.45,6.31-2.34,9.42-1.28,4.49.57,7.52,5.09,8.61s7.72-.63,9.22-5a59.73,59.73,0,0,0,2.65-12.75c1.12-9.79,2-19.59-3.37-28.65-.1-.17,0-.47,0-.91h2.81c9.9,0,19.8-.06,29.7,0C119.73,89.24,120.53,88.79,120.48,86.43Zm-38.86-2c-1.54-3-4.43-5-4.69-8.46C79,78.47,83.52,79.46,81.62,84.48Z"/><path class="cls-3" d="M81.35,40.08c-6.77,0-12.44-5.17-12.58-11.53-.14-6.17,5.62-11.65,12.39-11.79S93.79,22.09,93.79,28.5,88.2,40.06,81.35,40.08Z"/><path class="cls-3" d="M78.15,54.2c-.27-1.16-.52-2.22-.76-3.29-.83-3.74-3.61-5.87-6.88-5.28-3.82.7-5.58,3.34-5.11,7.47.78,6.92,3.9,12.8,8,18.21,1.17,1.53,1.88,3,1.13,4.87-.49,1.27.13,2.27.88,3.27a120.26,120.26,0,0,1,7.75,11.7c3.73,6.42,4.34,13.34,3.81,20.49a86.79,86.79,0,0,1-3,18.61c-1.07,3.57-3.22,4.92-6.43,4.25-3.94-.82-5.16-2.75-3.82-6.63A45.63,45.63,0,0,0,74.35,100c-.23-.85-.34-1.88-1.36-1.87s-1.14,1.07-1.35,1.9c-3.35,12.86-9.75,23.87-19.86,32.62-2.38,2.06-5.49,1.81-7.8-.76s-2.11-4.57.44-6.81c8.48-7.45,14.15-16.49,15.81-27.79a75.31,75.31,0,0,0,.4-10.72,2.37,2.37,0,0,0-.85-1.77,11.46,11.46,0,0,1-3.26-7.59c-.46-7.76-.51-15.51,2.88-22.82a21.26,21.26,0,0,1,5.74-8,9.56,9.56,0,0,1,8.33-2.17A7.06,7.06,0,0,1,78.15,54.2Z"/><path class="cls-3" d="M101.27,86.77c2.4-4.48,1.78-6.86-2.28-9.42a83,83,0,0,1-11.94-9,33.16,33.16,0,0,1-2.74-2.82,4.26,4.26,0,0,1-.51-4c.36-1.24,1.82-.6,2.77-.6,10.24,0,20.49,0,30.73-.08,2,0,2.48.53,2.44,2.48-.12,7.09-.1,14.18,0,21.28,0,1.69-.39,2.25-2.17,2.21C112.23,86.7,106.89,86.77,101.27,86.77Z"/><path class="cls-3" d="M67.56,53.14c-.15-3.49.92-5,3.21-5.37A3.69,3.69,0,0,1,75.22,51c1.93,13.73,11,22,21.92,28.77A10.83,10.83,0,0,1,99,81.08a2.9,2.9,0,0,1,.76,3.49,2.71,2.71,0,0,1-3,1.5,8.48,8.48,0,0,1-2.69-.7c-12.65-6.17-21.74-15.53-26-29.18A21.66,21.66,0,0,1,67.56,53.14Z"/><path class="cls-4" d="M83.66,81.72c3,2.12,5.57,3.8,8.28,5.59-2.33,0-4.66,0-7,0-1,0-1.34-.4-1.3-1.37C83.7,84.71,83.66,83.46,83.66,81.72Z"/><path class="cls-3" d="M48.88,86.82c-.28-2.44-.59-4.12-.63-5.8s-.87-2-2.29-1.42c-1.87.71-3.76,1.38-6.27,2.3,1.48-2.38,2.55-4.2,3.72-5.94.88-1.32.51-2-.93-2.34-2.3-.57-4.59-1.17-7.29-1.85,2.52-1.35,4.66-2.54,6.85-3.64,1.55-.77,1.6-1.55.3-2.6s-2.3-2-3.88-3.34c2.76-.16,5-.41,7.23-.4,2,0,2.58-.66,2-2.59-.24-.86-.76-1.74-.45-2.72C50.92,58,50.92,58.24,50.43,62c-.91,7-1.94,14,1.27,20.79C52.73,84.93,50,85,48.88,86.82Z"/><path class="cls-3" d="M81.39,38C75.8,38,71,33.74,70.91,28.61S75.64,19,81.37,19s10.37,4.39,10.37,9.47S87,37.93,81.39,38Z"/></g></g></svg>