<svg xmlns="http://www.w3.org/2000/svg" viewBox="0 0 225.63 85.04"><defs><style>.cls-1{fill:#30559a;}.cls-2,.cls-5{fill:#107abc;}.cls-3{fill:#ae564b;}.cls-4{fill:#fff;}.cls-5{font-size:29px;font-family:Raleway-Bold, Raleway;font-weight:700;}.cls-6{letter-spacing:-0.03em;}.cls-7{letter-spacing:-0.01em;}.cls-8{letter-spacing:0em;}</style></defs><title>evalua</title><g id="Capa_2" data-name="Capa 2"><g id="Capa_1-2" data-name="Capa 1"><path class="cls-1" d="M78.36,63.9c-.46-.45-.9-.92-1.35-1.38-.69-.68-1.41-1.32-2.06-2s-1.27-1.2-1.85-1.87S72,57.53,71.42,57c-.74-.78-1.51-1.53-2.26-2.29-.88-.91-1.8-1.77-2.67-2.69-.73-.76-1.48-1.49-2.24-2.24-.46-.46-1-.9-1.41-1.36s-1-1.09-1.54-1.58-.94-.92-1.4-1.39-1.13-1.13-1.69-1.69-.93-.94-1.41-1.39-.95-1-1.47-1.5c-.69-.64-1.33-1.34-2-2S52.09,37.64,51.5,37c-.86-.9-1.76-1.77-2.63-2.66-.53-.53-1.09-1-1.6-1.57s-1-1-1.52-1.55-1.26-1.16-1.83-1.8-1.13-1.12-1.69-1.71S41.05,26.57,40.47,26s-1.27-1.19-1.84-1.85c-.21-.25-.58-.36-.65-.74,0-.07-.1,0-.16.05-.17.26-.06.54-.06.81V58.32a1.24,1.24,0,0,1-1.39,1.37h-5A1.34,1.34,0,0,1,30.08,59a1.3,1.3,0,0,0-.15-.18l-.05-.44V51.9a.78.78,0,0,0,.1-.15,4.42,4.42,0,0,0,0-.63V28.57c0-.19,0-.39-.12-.54s-.09,0-.11-.06A26.59,26.59,0,0,0,27.88,26c-.48-.5-1-1-1.5-1.48s-.81-.86-1.24-1.26c-.17-.15-.24-.4-.41-.5-.63-.36-1-1-1.52-1.45-.28-.22-.52-.5-.78-.75a5,5,0,0,0,.05.95c0,2.35,0,4.69,0,7,0,.74,0,.75.77.75.45,0,.9,0,1.36,0a1.14,1.14,0,0,1,1,.67,1.18,1.18,0,0,1-1,1.76c-.54,0-1.09,0-1.63,0s-.53.09-.53.53q0,3.57,0,7.14c0,.44.08.51.53.51h1.56a1.22,1.22,0,0,1,.07,2.43c-.53,0-1.06,0-1.59,0s-.57.08-.57.56c0,2.36,0,4.71,0,7.07,0,.48.08.55.57.56s1.06,0,1.59,0a1.22,1.22,0,0,1,.82,2,1.26,1.26,0,0,1-1,.39c-.52,0-1,0-1.56,0-.33,0-.42.09-.43.42q0,4.34,0,8.67a.36.36,0,0,0,.4.41H63.31c.15,0,.31,0,.46,0A1.2,1.2,0,0,1,65,63.72,1.19,1.19,0,0,1,63.91,65a3.84,3.84,0,0,1-.59,0H21.6a2.76,2.76,0,0,1-.76-.06.3.3,0,0,0-.26,0c0,.23.21.11.29.22a8.62,8.62,0,0,0,1.2,1.29c.3.26.5.62.81.85.5.38.84.92,1.33,1.3.3.23.48.59.77.81A19.51,19.51,0,0,1,26.58,71c.61.57,1.18,1.19,1.79,1.76.39.36.7.81,1.11,1.15s.51.58.79.84c.66.58,1.27,1.22,1.88,1.86.1.14.29.19.38.35a1.64,1.64,0,0,0,.7.75c.12.06.13.19.18.3.3,0,.47.24.61.41.57.68,1.26,1.24,1.86,1.87a6.34,6.34,0,0,0,.83.88c.49.36.81.88,1.29,1.25.31.23.51.61.8.85.6.49,1.05,1.11,1.67,1.61l-.41.08a37,37,0,0,0,4.21,0,41.19,41.19,0,0,0,7.26-.91A42.47,42.47,0,0,0,77.14,67.21,29.11,29.11,0,0,0,79,64.32,1.06,1.06,0,0,1,78.36,63.9Z"/><path class="cls-2" d="M84.88,38.84a38,38,0,0,0-.75-5.07,38.42,38.42,0,0,0-1.36-4.94,7.29,7.29,0,0,0-.26-.83,9.43,9.43,0,0,0-.65-1.57h0a.31.31,0,0,0,0-.1A42.11,42.11,0,0,0,79,20.6a44.21,44.21,0,0,0-3-4.4,40.14,40.14,0,0,0-3.36-3.78A41.46,41.46,0,0,0,67,7.77a45.22,45.22,0,0,0-5.11-3.11,42.6,42.6,0,0,0-9.66-3.54,44,44,0,0,0-6.94-1,43.32,43.32,0,0,0-7.89.2A40.31,40.31,0,0,0,31,1.57,42,42,0,0,0,17.76,7.94a42.9,42.9,0,0,0-5.39,4.58A42.42,42.42,0,0,0,6.8,19.41a43.1,43.1,0,0,0-3.29,6.14,41.61,41.61,0,0,0-3.41,14,45.44,45.44,0,0,0,0,6.6,40.8,40.8,0,0,0,1.35,7.59,42.46,42.46,0,0,0,3.32,8.43A41.52,41.52,0,0,0,9,68.67a42.65,42.65,0,0,0,7.49,7.46A44.65,44.65,0,0,0,21,79.19a41.85,41.85,0,0,0,7.14,3.35,32.52,32.52,0,0,0,3.6,1.11,33.44,33.44,0,0,0,4.43.9c.09,0,.19,0,.27,0a1.81,1.81,0,0,0,.65.11c.1,0,.2,0,.29,0a1.73,1.73,0,0,0,.75.07c.18.08.38,0,.56.06a9.33,9.33,0,0,0,1.4.11h.13c.1,0,.23,0,.28,0s-.11-.18-.16-.27-.37-.3-.52-.49c-.47-.6-1.06-1.06-1.57-1.61S37,81.36,36.46,80.77l-1.41-1.43c-.3-.3-.61-.58-.89-.89a1.28,1.28,0,0,0-.71-.52c0-.07.06-.14,0-.19a2.57,2.57,0,0,1-.93-.95.47.47,0,0,0-.33-.19.81.81,0,0,0-.36-.52,14.63,14.63,0,0,1-1.54-1.51c-.54-.54-1.1-1.08-1.63-1.64s-1.22-1.21-1.83-1.82S25.74,70,25.18,69.5s-.89-.91-1.35-1.36S22.65,67,22.05,66.37c-.35-.34-.66-.71-1-1.06-.16-.17-.42-.25-.5-.5A1.61,1.61,0,0,1,20,63.48q0-20.92,0-41.83a3.69,3.69,0,0,1,0-.47,1.21,1.21,0,0,1,1.78-1,2.37,2.37,0,0,1,.48.41,11.49,11.49,0,0,1,1.33,1.28c.44.49,1,.88,1.38,1.4.2.27.52.45.73.71.45.55,1,1,1.47,1.52.21.24.48.42.69.66.56.64,1.21,1.19,1.78,1.82.09.11.21.14.28,0a1.78,1.78,0,0,0,0-.46c0-1.11,0-2.22,0-3.32a1.35,1.35,0,0,1,1.49-1.49c1.57,0,3.14,0,4.71,0a1.56,1.56,0,0,1,1.51.75c.15.05.29.09.35.26a.65.65,0,0,0,.25.27,3.08,3.08,0,0,1,.71.64c.58.66,1.23,1.24,1.84,1.86.84.84,1.67,1.7,2.53,2.53.48.46.92,1,1.39,1.41l2,1.93c.54.54,1.06,1.09,1.6,1.63s1.33,1.29,2,2,1.22,1.25,1.84,1.86c.81.77,1.58,1.58,2.37,2.36s1.34,1.35,2,2,1.63,1.6,2.42,2.41c.65.65,1.29,1.3,2,1.94s1.54,1.58,2.33,2.36c.61.59,1.2,1.2,1.81,1.79.82.78,1.58,1.6,2.39,2.39s1.43,1.42,2.12,2.14L71.3,57l1.2,1.19c.61.6,1.2,1.23,1.83,1.82s.94.93,1.39,1.41,1.19,1.19,1.79,1.78a11.32,11.32,0,0,0,1.11,1.08c.12.09.23.19.39.09a35.63,35.63,0,0,0,2.2-4.14,40.51,40.51,0,0,0,2.14-5.75,43.52,43.52,0,0,0,1-4.52,44.37,44.37,0,0,0,.6-5.4A41.29,41.29,0,0,0,84.88,38.84Z"/><path class="cls-3" d="M38.1,84.78c.19,0,.39-.08.56.06A1.07,1.07,0,0,1,38.1,84.78Z"/><path class="cls-3" d="M36.14,84.55a.38.38,0,0,1,.31,0c.07,0,0,0,0,.06Z"/><path class="cls-3" d="M37.06,84.69a.45.45,0,0,1,.34,0s0,0,0,0,0,0,0,0Z"/><path class="cls-4" d="M29.88,51.88c0-.25,0-.5,0-.76V32.51c0-1.49,0-3,0-4.48,0-1.29,0-2.58,0-3.88a1.46,1.46,0,0,1,1.6-1.58c1.52.05,3.05,0,4.57,0a1.72,1.72,0,0,1,1.77.87,7.89,7.89,0,0,1,0,1.19V58.31a1.34,1.34,0,0,1-1.5,1.48c-1.66,0-3.32,0-5,0a1.39,1.39,0,0,1-1.44-.94c-.06-.19-.19-.36-.14-.58,0-.8,0-1.6,0-2.41s0-1.41,0-2.11c0-.48,0-1,0-1.45A.73.73,0,0,1,29.88,51.88Z"/><path class="cls-4" d="M22.43,20.59a2.13,2.13,0,0,1,.15.9c0,2.46,0,4.92,0,7.38,0,.29.08.38.37.37.55,0,1.11,0,1.66,0a1.34,1.34,0,0,1,1.3,1.29,1.31,1.31,0,0,1-1.24,1.36c-.6,0-1.2,0-1.8,0-.21,0-.28.05-.28.28,0,2.48,0,5,0,7.44,0,.23.08.27.29.26h1.69a1.33,1.33,0,1,1,0,2.66H22.87c-.2,0-.29,0-.29.26v7.44c0,.23.08.27.29.27.56,0,1.12,0,1.69,0a1.33,1.33,0,1,1,0,2.66H22.87c-.21,0-.29,0-.29.27v8.77c0,.2.05.27.26.26s.6,0,.9,0h40a1.33,1.33,0,0,1,1.27.89,1.36,1.36,0,0,1-.48,1.53,1.59,1.59,0,0,1-.91.24H21.48a2.5,2.5,0,0,1-.9-.14,1.74,1.74,0,0,1-.67-1.56c0-7.3,0-14.59,0-21.89q0-10.08,0-20.16a1.34,1.34,0,0,1,2-1.28A2.44,2.44,0,0,1,22.43,20.59Z"/><path class="cls-4" d="M49.82,47.86c0,3.5,0,7,0,10.5a1.45,1.45,0,0,1-1.43,1.44c-1.74,0-3.48,0-5.22,0a1.32,1.32,0,0,1-1.34-1.34V37.33a1.32,1.32,0,0,1,1.43-1.45c1.7,0,3.39,0,5.08,0a1.31,1.31,0,0,1,1.46,1.45Z"/><path class="cls-4" d="M53.81,54.47V50.55a1.33,1.33,0,0,1,1.4-1.39h5.21a1.34,1.34,0,0,1,1.37,1.36v7.87a1.33,1.33,0,0,1-1.42,1.4H55.22a1.32,1.32,0,0,1-1.41-1.4Z"/><text class="cls-5" transform="translate(103.34 52.01)"><tspan class="cls-6">E</tspan><tspan class="cls-7" x="16.53" y="0">v</tspan><tspan x="32.07" y="0">alu</tspan><tspan class="cls-8" x="75.83" y="0">a</tspan><tspan class="cls-7" x="92.36" y="0">t</tspan><tspan x="103.12" y="0">e</tspan></text></g></g></svg>