<svg xmlns="http://www.w3.org/2000/svg" viewBox="0 0 152.34 193.27"><defs><style>.cls-1{fill:#167bbd;}.cls-2{fill:#fff;}</style></defs><title>golpeado_1</title><g id="Capa_2" data-name="Capa 2"><g id="Capa_1-2" data-name="Capa 1"><path class="cls-1" d="M27.45,187.74V169.27H31v18.47Z"/><path class="cls-1" d="M55.72,187.74H52.23v-7.65a4.06,4.06,0,0,0-.56-2.39,1.82,1.82,0,0,0-1.54-.75,2.89,2.89,0,0,0-2,.79,4.37,4.37,0,0,0-1.3,2.06v7.94H43.39v-7.65a4.06,4.06,0,0,0-.56-2.39,1.82,1.82,0,0,0-1.54-.75,2.91,2.91,0,0,0-1.94.78A4.14,4.14,0,0,0,38,179.78v8H34.55V174.11H37.7v2.52a5.25,5.25,0,0,1,2.06-2,6.28,6.28,0,0,1,3-.71,3.83,3.83,0,0,1,2.65.83,3.78,3.78,0,0,1,1.2,2,5.83,5.83,0,0,1,2.1-2.14,5.63,5.63,0,0,1,2.91-.74,4.08,4.08,0,0,1,2.06.46,3.51,3.51,0,0,1,1.25,1.23,5.34,5.34,0,0,1,.61,1.71,11.49,11.49,0,0,1,.17,1.95Z"/><path class="cls-1" d="M66.92,188a5.36,5.36,0,0,1-2.81-.71,5.12,5.12,0,0,1-1.87-1.94v7.93H58.76V174.11h3v2.34a5.38,5.38,0,0,1,4.71-2.57,5.72,5.72,0,0,1,2.54.56,6.27,6.27,0,0,1,2,1.5,7.13,7.13,0,0,1,1.32,2.24,7.5,7.5,0,0,1,.49,2.72,8.48,8.48,0,0,1-.45,2.78,6.94,6.94,0,0,1-1.23,2.26,5.87,5.87,0,0,1-1.89,1.51A5.28,5.28,0,0,1,66.92,188Zm-1.17-3a3.06,3.06,0,0,0,1.44-.34,3.48,3.48,0,0,0,1.14-.91,4.21,4.21,0,0,0,.72-1.32,4.64,4.64,0,0,0,.26-1.56,4.41,4.41,0,0,0-.28-1.6,3.85,3.85,0,0,0-.8-1.29,3.67,3.67,0,0,0-1.19-.86,3.73,3.73,0,0,0-1.5-.31,3.55,3.55,0,0,0-2,.65,4.26,4.26,0,0,0-.8.73,3.1,3.1,0,0,0-.53.91v3.2a4.6,4.6,0,0,0,1.43,1.93A3.23,3.23,0,0,0,65.75,185Z"/><path class="cls-1" d="M79,188a5.14,5.14,0,0,1-1.85-.32,4.54,4.54,0,0,1-1.48-.91,4.19,4.19,0,0,1-1-1.36,4.1,4.1,0,0,1-.35-1.72,3.83,3.83,0,0,1,.42-1.78,4.1,4.1,0,0,1,1.2-1.39,6,6,0,0,1,1.83-.9,7.88,7.88,0,0,1,2.34-.33,10.43,10.43,0,0,1,1.78.16,7.1,7.1,0,0,1,1.55.44v-.78a2.71,2.71,0,0,0-.77-2.08,3.21,3.21,0,0,0-2.27-.73,5.79,5.79,0,0,0-2.13.4,9.93,9.93,0,0,0-2.14,1.14l-1.06-2.21a10.07,10.07,0,0,1,5.67-1.74,6.63,6.63,0,0,1,4.56,1.44,5.29,5.29,0,0,1,1.62,4.17v4.24a1.22,1.22,0,0,0,.2.78.85.85,0,0,0,.64.26v3a7.84,7.84,0,0,1-1.54.18,2.35,2.35,0,0,1-1.52-.44A2,2,0,0,1,84,186.3l-.08-.75a6,6,0,0,1-2.21,1.82A6.28,6.28,0,0,1,79,188Zm1-2.54a4.43,4.43,0,0,0,1.67-.32,3,3,0,0,0,1.24-.83,1.24,1.24,0,0,0,.57-1v-1.57a8.56,8.56,0,0,0-1.35-.37,7,7,0,0,0-1.41-.14,3.72,3.72,0,0,0-2.21.61,1.82,1.82,0,0,0-.85,1.54,1.86,1.86,0,0,0,.67,1.47A2.47,2.47,0,0,0,80,185.45Z"/><path class="cls-1" d="M89.31,180.92a7.39,7.39,0,0,1,.49-2.7A6.65,6.65,0,0,1,91.23,176a7,7,0,0,1,2.26-1.53,7.52,7.52,0,0,1,3-.57,7.19,7.19,0,0,1,3.81,1,6.21,6.21,0,0,1,2.36,2.52l-3.41,1a3.17,3.17,0,0,0-1.17-1.16,3.37,3.37,0,0,0-1.61-.4,3.33,3.33,0,0,0-1.41.3,3.56,3.56,0,0,0-1.13.83,3.91,3.91,0,0,0-.75,1.29,4.9,4.9,0,0,0-.27,1.66,4.72,4.72,0,0,0,.28,1.67,4.3,4.3,0,0,0,.77,1.3,3.44,3.44,0,0,0,1.13.84,3.23,3.23,0,0,0,1.38.3,3.38,3.38,0,0,0,1.73-.47,2.66,2.66,0,0,0,1.1-1.14l3.41,1a5.73,5.73,0,0,1-2.32,2.55,7.23,7.23,0,0,1-3.87,1,7.49,7.49,0,0,1-3-.57,6.71,6.71,0,0,1-2.26-1.54,6.83,6.83,0,0,1-1.45-2.27A7.38,7.38,0,0,1,89.31,180.92Z"/><path class="cls-1" d="M113,187a15.93,15.93,0,0,1-1.71.63,7.17,7.17,0,0,1-2.13.31,5,5,0,0,1-1.37-.18,3,3,0,0,1-1.12-.59,2.81,2.81,0,0,1-.76-1,3.59,3.59,0,0,1-.29-1.54v-7.83h-1.79v-2.68h1.79v-4.42h3.48v4.42H112v2.68h-2.86v6.66a1.24,1.24,0,0,0,.38,1,1.43,1.43,0,0,0,.92.3,3.25,3.25,0,0,0,1.07-.18c.35-.12.62-.23.83-.31Z"/><path class="cls-1" d="M120,188a10.63,10.63,0,0,1-3.35-.54,8.15,8.15,0,0,1-2.81-1.56l1.3-2.19a11,11,0,0,0,2.43,1.34,6.38,6.38,0,0,0,2.35.46,3,3,0,0,0,1.64-.39,1.25,1.25,0,0,0,.6-1.12,1.14,1.14,0,0,0-.7-1.07,15.49,15.49,0,0,0-2.29-.77c-.89-.25-1.64-.48-2.26-.71a5.73,5.73,0,0,1-1.51-.76,2.66,2.66,0,0,1-.83-1,3.05,3.05,0,0,1-.26-1.34,4.21,4.21,0,0,1,.4-1.87,4.11,4.11,0,0,1,1.13-1.42,5.21,5.21,0,0,1,1.7-.9,6.88,6.88,0,0,1,2.12-.31,9.18,9.18,0,0,1,2.87.44,7,7,0,0,1,2.46,1.43l-1.4,2.11a8,8,0,0,0-2-1.14,5.33,5.33,0,0,0-1.93-.37,2.77,2.77,0,0,0-1.49.37,1.27,1.27,0,0,0-.59,1.17,1.05,1.05,0,0,0,.14.59,1.23,1.23,0,0,0,.45.42,4.68,4.68,0,0,0,.82.35c.34.11.76.23,1.26.35.94.24,1.74.49,2.41.73a6.59,6.59,0,0,1,1.64.83,3,3,0,0,1,.93,1.08,3.32,3.32,0,0,1,.3,1.47,3.79,3.79,0,0,1-1.48,3.16A6.39,6.39,0,0,1,120,188Z"/><circle class="cls-1" cx="76.17" cy="76.17" r="76.17"/><path class="cls-2" d="M50,58.87c.57-6.73,6-10.91,10.1-15.78,2.49-3,5.21-5.75,7.71-8.69.86-1,1.5-1.21,2.85-.31,2.15,1.43,4.46,2.69,6.71,4s2.13,3.41,3.41,5c1.72,2.13.13,3.36-1,4.73C74,54.59,68.21,61.31,62.56,68.13c-1.12,1.34-1.92,1.44-3.5.28-2.32-1.69-4.76-3.27-7.25-4.76C49.58,62.32,47.93,61,50,58.87Z"/><path class="cls-2" d="M89.76,47.05a5.55,5.55,0,0,0-.07-4.9,4.22,4.22,0,0,1-.26-.67c-.64-2.07.84-4.06,2.11-3.89,3.5.46,5.09-6.53,9.18-2.18a9.86,9.86,0,0,0,3.14,2.27c4.85,2.28,6.38,9.86,2.91,13.93a3,3,0,0,1-3.23,1c-2.72-.78-5.18-.08-7.68.84-2.13.78-4.31,1-6-.74S89.08,49.17,89.76,47.05Z"/><path class="cls-2" d="M54.08,41.37c-.82-2-.49-3.92-.53-5.77-.13-6.51-.19-13-.25-19.53,0-.77-.46-2,.69-2.14,1.35-.19,1,1.1,1,1.82.14,8,.23,15.91.33,23.87C55.31,40.22,55.25,40.83,54.08,41.37Z"/><path class="cls-2" d="M68.92,40.1,68.48,6.34l.81,0,.44,33.79Z"/><path class="cls-2" d="M89.67,14l.25,18.54-1.13,0c-.25-6.17-.29-12.35-.24-18.54Z"/><path class="cls-2" d="M63.11,19.62c1.33,2.13.53,4.56.67,6.84.2,3.1.13,6.22.18,9.33,0,.62,0,1.33-.73,1.44s-.95-.55-1-1.17q-.12-8.16-.22-16.32Z"/><path class="cls-2" d="M48.78,51.37q-.11-7.56-.19-15.14c0-.52.43-1,.9-.8a1.4,1.4,0,0,1,.73,1c.11,4.94.16,9.88.22,14.83Z"/><path class="cls-2" d="M98.7,33.88c-1.46-3-.46-6.32-1-9.43,0-.22.66-.76,1-.8.86-.09.8.69.81,1.25.06,3,.09,5.93.13,8.9Z"/><path class="cls-2" d="M93.85,28.82l-.13-10.1c1.93,3.29,1.21,6.72,1.06,10.11Z"/><path class="cls-2" d="M76.06,31.82l.13,10.34h-.88a47,47,0,0,1-.24-10.34Z"/><path class="cls-2" d="M76.19,137.51c-2.33-.07-4.67-.1-7-.24-2.63-.17-5.26-.38-7.88-.68a57,57,0,0,1-9.61-1.85,18.57,18.57,0,0,1-4.63-1.92,3.93,3.93,0,0,1-1.53-1.47,2.49,2.49,0,0,1-.25-1,13.43,13.43,0,0,1,0-1.55,8,8,0,0,1,1.59-4.68,7.93,7.93,0,0,1,2.53-2.08,20.22,20.22,0,0,1,5-1.8c2.52-.61,5-1.19,7.56-1.8a18.1,18.1,0,0,0,4.06-1.35A3.85,3.85,0,0,0,68,115.44a5.47,5.47,0,0,0,.35-2.3,4.14,4.14,0,0,0-1-2.43,18.55,18.55,0,0,1-2.65-5.46,19,19,0,0,1-.42-2,.65.65,0,0,0-.36-.49,3.71,3.71,0,0,1-1.18-1.28,9.94,9.94,0,0,1-1.47-5.57,3.54,3.54,0,0,1,.61-2.11.5.5,0,0,0,.06-.32,17.68,17.68,0,0,1,1.08-8A10.79,10.79,0,0,1,66,81.25a15.59,15.59,0,0,1,6.7-3.46,11.73,11.73,0,0,1,2-.29,16.68,16.68,0,0,1,5,.3,15.2,15.2,0,0,1,4.46,1.87,14.71,14.71,0,0,1,3.43,2.86,10.79,10.79,0,0,1,2.11,3.84,18,18,0,0,1,.76,7.12.46.46,0,0,0,.06.31,3.61,3.61,0,0,1,.61,2,9.56,9.56,0,0,1-.49,3.48,7.71,7.71,0,0,1-1.46,2.81c-.24.27-.55.47-.82.72a.71.71,0,0,0-.22.33c-.12.54-.21,1.08-.33,1.61a13.35,13.35,0,0,1-1.31,3.45c-.56,1-1.18,2-1.84,3a3.62,3.62,0,0,0-.63,2.41,7.18,7.18,0,0,0,.33,1.71,3,3,0,0,0,1.38,1.44,13,13,0,0,0,3.84,1.45l8,1.93a26.42,26.42,0,0,1,4.24,1.34,8.64,8.64,0,0,1,3.91,3,7.71,7.71,0,0,1,1.23,3.56c.07.78.09,1.56.11,2.35a2.09,2.09,0,0,1-.75,1.53,9.47,9.47,0,0,1-3.32,1.93,44,44,0,0,1-9,2.24c-2.68.44-5.38.73-8.08.93Q81.08,137.48,76.19,137.51Z"/></g></g></svg>