<svg xmlns="http://www.w3.org/2000/svg" viewBox="0 0 152.27 185.35"><defs><style>.cls-1{fill:#167bbd;}.cls-2{fill:#fff;}</style></defs><title>golpeandose_1</title><g id="Capa_2" data-name="Capa 2"><g id="Capa_1-2" data-name="Capa 1"><path class="cls-1" d="M71,166.63v18.46H67.44v-7.87H59.06v7.87H55.48V166.63h3.58v7.47h8.38v-7.47Z"/><path class="cls-1" d="M74.51,169.57v-3.46H78v3.46Zm0,15.52V171.47H78v13.62Z"/><path class="cls-1" d="M89.3,184.39a15.16,15.16,0,0,1-1.71.63,7.51,7.51,0,0,1-2.13.31,5,5,0,0,1-1.37-.18,3.16,3.16,0,0,1-1.12-.59,2.81,2.81,0,0,1-.76-1,3.61,3.61,0,0,1-.29-1.55v-7.82H80.13v-2.68h1.79v-4.42H85.4v4.42h2.86v2.68H85.4v6.65a1.25,1.25,0,0,0,.38,1,1.43,1.43,0,0,0,.92.3,3.25,3.25,0,0,0,1.07-.18c.35-.12.62-.23.83-.31Z"/><path class="cls-1" d="M96.27,185.35a10.63,10.63,0,0,1-3.35-.54,8.32,8.32,0,0,1-2.81-1.56l1.3-2.19a11,11,0,0,0,2.43,1.34,6.38,6.38,0,0,0,2.35.46,3,3,0,0,0,1.64-.39,1.26,1.26,0,0,0,.6-1.12,1.13,1.13,0,0,0-.7-1.07,16.5,16.5,0,0,0-2.29-.78c-.89-.24-1.64-.47-2.26-.7a5.44,5.44,0,0,1-1.51-.77,2.55,2.55,0,0,1-.83-1,3.08,3.08,0,0,1-.26-1.34,4.18,4.18,0,0,1,.4-1.87,4.11,4.11,0,0,1,1.13-1.42,5.21,5.21,0,0,1,1.7-.9,6.88,6.88,0,0,1,2.12-.31,9.18,9.18,0,0,1,2.87.44,7,7,0,0,1,2.46,1.43l-1.4,2.11a8.4,8.4,0,0,0-2-1.15,5.53,5.53,0,0,0-1.93-.36,2.86,2.86,0,0,0-1.49.36,1.29,1.29,0,0,0-.59,1.17,1.07,1.07,0,0,0,.14.6,1.23,1.23,0,0,0,.45.42,4.68,4.68,0,0,0,.82.35c.34.11.76.23,1.26.35a23.94,23.94,0,0,1,2.41.73,6.59,6.59,0,0,1,1.64.83,3,3,0,0,1,.93,1.08,3.32,3.32,0,0,1,.3,1.47,3.79,3.79,0,0,1-1.48,3.16A6.39,6.39,0,0,1,96.27,185.35Z"/><circle class="cls-1" cx="76.13" cy="76.13" r="76.13"/><path class="cls-2" d="M94.81,71c-1.29,3.28-2.57,6.56-3.88,9.84A7.5,7.5,0,0,0,90.28,85c.32,1.81,1.53,2.36,3,1.33A8.19,8.19,0,0,0,95,84.81c4.59-5.47,9.15-11,13.75-16.42q2.51-3,5.17-5.79a2.82,2.82,0,0,1,4-.44c1.66,1.14,1.88,2.62.51,4.45-2,2.67-4.14,5.27-6.18,7.93q-5.56,7.27-11.06,14.61a5.62,5.62,0,0,0-1,2c-.23,1,.41,1.52,1.34,1.11a10.33,10.33,0,0,0,2.46-1.5q6-5.11,12-10.33c2.36-2.06,4.63-4.2,7-6.26,1.36-1.2,2.5-1.29,3.57-.4,1.5,1.24,1.83,2.64.84,4.22a13.93,13.93,0,0,1-2.09,2.51C120,85.7,114.56,90.8,109.21,96a24.61,24.61,0,0,0-2.69,3.44c-.22.3-.17.79-.24,1.19a3,3,0,0,0,1.12,0c1.61-.72,3.23-1.43,4.76-2.29,4.46-2.52,8.87-5.12,13.33-7.63a9.77,9.77,0,0,1,2.79-1,2.68,2.68,0,0,1,2.85,1.4,2.52,2.52,0,0,1-.53,3,18.32,18.32,0,0,1-2.51,2c-4.19,2.83-8.37,5.66-12.6,8.42-1.92,1.25-4,2.27-5.94,3.47A20,20,0,0,0,103,114.4c-2.94,4.68-6.39,8.94-11.09,12a33.06,33.06,0,0,1-6.53,3.36c-3.35,1.23-6,.65-8.45-2.62a20.86,20.86,0,0,0-9.34-7,11.66,11.66,0,0,1-7-7.89c-.7-2.22-1.32-4.46-1.88-6.72a16.08,16.08,0,0,1,.24-7.2,29.82,29.82,0,0,0,.56-6.11,13.69,13.69,0,0,0-.94-3.74,11.5,11.5,0,0,1-.5-4.91,13.33,13.33,0,0,0-.78-5.79,17.53,17.53,0,0,1-.54-2,2.14,2.14,0,0,1,.56-2.38,2.65,2.65,0,0,1,2.84-.27,8.24,8.24,0,0,1,4.42,5.13,2.45,2.45,0,0,1,.14.58c.06,3.68,1.28,7.09,2.41,10.53a35.89,35.89,0,0,1,.82,4c.28,1.39.86,1.91,2.23,1.6a6.61,6.61,0,0,0,2.62-1.28c1.89-1.51,3.64-3.2,5.5-4.75A10.15,10.15,0,0,0,81,85.1q6.14-13.69,12.28-27.39c.86-1.91,2.16-2.51,3.8-1.87A3.1,3.1,0,0,1,98.8,60Q96.94,65.56,95,71.09Z"/><path class="cls-2" d="M107.89,48.75l-14,9.4a69.21,69.21,0,0,1-4.42-6.21,67,67,0,0,1-3-6.92c-.25.14-.72.38-1.15.67-6.48,4.39-13,8.76-19.4,13.21A7.42,7.42,0,0,0,64.43,61c-1.07,1.49-1.84,3.42-3.26,4.4-10.21,7.1-20.52,14-30.86,21A7.51,7.51,0,0,1,21.9,73.85c6.16-4.32,12.43-8.47,18.66-12.69,3.92-2.65,7.85-5.28,11.75-8a8.49,8.49,0,0,1,6.19-1.55,2.53,2.53,0,0,0,1.66-.35q10.44-7,20.8-14.06a2.08,2.08,0,0,0,.53-1.78A15.17,15.17,0,0,0,71.18,23.77c-.92-.32-2.17-.57-1.76-1.79a2.9,2.9,0,0,1,2.18-1.33c7.59-.77,13.64,2.32,18.78,7.67.82.86,2,1.41,2.71,2.32,1.61,2,3,4.16,4.56,6.22a9.5,9.5,0,0,0,1.52,1.52,12.66,12.66,0,0,1,1.87,1.4C103.36,42.72,105.59,45.72,107.89,48.75Z"/></g></g></svg>