<svg xmlns="http://www.w3.org/2000/svg" viewBox="0 0 152.73 190.49"><defs><style>.cls-1{fill:#167bbd;}.cls-2{fill:#fff;}</style></defs><title>ingestion_1</title><g id="Capa_2" data-name="Capa 2"><g id="Capa_1-2" data-name="Capa 1"><path class="cls-1" d="M20.33,184.7V166.24h3.59V184.7Z"/><path class="cls-1" d="M40.09,184.7H36.6v-7.65a4,4,0,0,0-.57-2.39,1.88,1.88,0,0,0-1.58-.75,2.93,2.93,0,0,0-1.07.2,4.09,4.09,0,0,0-1,.59,4.66,4.66,0,0,0-.87.9,3.39,3.39,0,0,0-.57,1.14v8H27.43V171.07h3.14v2.52a5.11,5.11,0,0,1,2.19-2,6.91,6.91,0,0,1,3.22-.73,4,4,0,0,1,2.08.47,3.33,3.33,0,0,1,1.25,1.22,5.11,5.11,0,0,1,.61,1.71,11.49,11.49,0,0,1,.17,1.95Z"/><path class="cls-1" d="M48.46,184.77a5.69,5.69,0,0,1-2.5-.54,6,6,0,0,1-1.93-1.5,6.55,6.55,0,0,1-1.26-2.2,7.72,7.72,0,0,1-.45-2.65,8,8,0,0,1,.47-2.75,7.2,7.2,0,0,1,1.3-2.24,5.89,5.89,0,0,1,4.58-2,5.4,5.4,0,0,1,2.78.71,6.12,6.12,0,0,1,2,1.91v-2.39h3v13a6.23,6.23,0,0,1-.57,2.71,6.06,6.06,0,0,1-1.58,2,7,7,0,0,1-2.39,1.27,9.82,9.82,0,0,1-3,.44,8.49,8.49,0,0,1-3.76-.74,7.62,7.62,0,0,1-2.61-2.09l1.9-1.85a5.35,5.35,0,0,0,2,1.51,5.85,5.85,0,0,0,2.51.55,5.69,5.69,0,0,0,1.55-.22,3.83,3.83,0,0,0,1.31-.69,3.22,3.22,0,0,0,.9-1.2A4.29,4.29,0,0,0,53,184v-1.71a4.64,4.64,0,0,1-1.89,1.81A5.67,5.67,0,0,1,48.46,184.77ZM49.63,182a3.32,3.32,0,0,0,1.09-.18,4,4,0,0,0,1-.49,3.62,3.62,0,0,0,.78-.73,3.1,3.1,0,0,0,.52-.89v-3.25a4.2,4.2,0,0,0-1.47-1.92,3.45,3.45,0,0,0-2.09-.73,3,3,0,0,0-1.45.35,3.63,3.63,0,0,0-1.12.94,4.31,4.31,0,0,0-.72,1.34,5.09,5.09,0,0,0-.24,1.56,4.27,4.27,0,0,0,.28,1.56,4.12,4.12,0,0,0,.79,1.27,3.74,3.74,0,0,0,1.19.86A3.44,3.44,0,0,0,49.63,182Z"/><path class="cls-1" d="M65.93,185a7.58,7.58,0,0,1-3-.55,6.71,6.71,0,0,1-3.71-3.76,7.14,7.14,0,0,1-.51-2.68,7.57,7.57,0,0,1,.5-2.74,6.7,6.7,0,0,1,3.7-3.81,7.65,7.65,0,0,1,3-.57,7.35,7.35,0,0,1,3,.57,6.85,6.85,0,0,1,2.24,1.53,6.58,6.58,0,0,1,1.4,2.24,7.46,7.46,0,0,1,.49,2.65c0,.23,0,.44,0,.65A3.25,3.25,0,0,1,73,179H62.45a3.91,3.91,0,0,0,.39,1.43,3.41,3.41,0,0,0,.8,1.07,3.55,3.55,0,0,0,1.12.67,3.61,3.61,0,0,0,1.3.24,4,4,0,0,0,2-.51,2.63,2.63,0,0,0,1.26-1.34l3,.83A6.1,6.1,0,0,1,69.87,184,7.42,7.42,0,0,1,65.93,185Zm3.54-8.21a3.69,3.69,0,0,0-1.13-2.46,3.49,3.49,0,0,0-2.44-.92,3.39,3.39,0,0,0-1.31.25,3.36,3.36,0,0,0-1.08.68,3.58,3.58,0,0,0-.76,1.07,3.7,3.7,0,0,0-.35,1.38Z"/><path class="cls-1" d="M80.34,185a10.65,10.65,0,0,1-3.36-.54,8.24,8.24,0,0,1-2.81-1.56l1.3-2.19A11.19,11.19,0,0,0,77.9,182a6.43,6.43,0,0,0,2.36.46,3,3,0,0,0,1.64-.39,1.27,1.27,0,0,0,.59-1.12,1.1,1.1,0,0,0-.7-1.06,14.18,14.18,0,0,0-2.29-.78c-.88-.25-1.64-.48-2.26-.71a5.89,5.89,0,0,1-1.51-.76,2.66,2.66,0,0,1-.83-1,3.2,3.2,0,0,1-.26-1.34,4.35,4.35,0,0,1,.4-1.87A4,4,0,0,1,76.18,172a5.21,5.21,0,0,1,1.7-.9,7.14,7.14,0,0,1,2.12-.31,9.23,9.23,0,0,1,2.87.44,7.14,7.14,0,0,1,2.46,1.43l-1.41,2.11a8,8,0,0,0-2-1.14,5.38,5.38,0,0,0-1.94-.37,2.73,2.73,0,0,0-1.48.37,1.26,1.26,0,0,0-.6,1.17,1.14,1.14,0,0,0,.14.59,1.26,1.26,0,0,0,.46.42,4.37,4.37,0,0,0,.82.35c.34.11.76.23,1.26.35.94.24,1.74.49,2.4.73a6.42,6.42,0,0,1,1.64.83,2.9,2.9,0,0,1,.94,1.08,3.32,3.32,0,0,1,.3,1.47,3.8,3.8,0,0,1-1.49,3.16A6.36,6.36,0,0,1,80.34,185Z"/><path class="cls-1" d="M96.27,184a15.16,15.16,0,0,1-1.71.63,7.17,7.17,0,0,1-2.13.31,5,5,0,0,1-1.37-.18,3,3,0,0,1-1.12-.59,2.81,2.81,0,0,1-.76-1,3.59,3.59,0,0,1-.29-1.54v-7.83H87.1v-2.68h1.79v-4.42h3.48v4.42h2.86v2.68H92.37v6.66a1.24,1.24,0,0,0,.38,1,1.43,1.43,0,0,0,.92.3,3.25,3.25,0,0,0,1.07-.18c.35-.12.62-.23.83-.31Z"/><path class="cls-1" d="M98.09,169.17v-3.45h3.49v3.45Zm0,15.53V171.07h3.49V184.7Z"/><path class="cls-1" d="M111,185a7.52,7.52,0,0,1-3-.57,6.63,6.63,0,0,1-2.24-1.54,6.77,6.77,0,0,1-1.42-2.25,7.33,7.33,0,0,1-.5-2.68,7.45,7.45,0,0,1,.5-2.71,6.83,6.83,0,0,1,1.42-2.24,6.65,6.65,0,0,1,2.24-1.55,7.52,7.52,0,0,1,3-.57,7.4,7.4,0,0,1,3,.57,6.7,6.7,0,0,1,3.65,3.79,7.45,7.45,0,0,1,.5,2.71,7.33,7.33,0,0,1-.5,2.68,6.72,6.72,0,0,1-1.4,2.25,6.53,6.53,0,0,1-2.24,1.54A7.49,7.49,0,0,1,111,185Zm-3.56-7a4.53,4.53,0,0,0,.28,1.65,4.13,4.13,0,0,0,.75,1.29,3.44,3.44,0,0,0,1.13.84,3.29,3.29,0,0,0,1.4.3,3.33,3.33,0,0,0,1.41-.3,3.44,3.44,0,0,0,1.13-.84,4.06,4.06,0,0,0,.75-1.3,5,5,0,0,0,.28-1.67,4.87,4.87,0,0,0-.28-1.64,3.91,3.91,0,0,0-.75-1.29A3.31,3.31,0,0,0,111,173.8a3.3,3.3,0,0,0-1.4.31,3.65,3.65,0,0,0-1.13.86,4,4,0,0,0-.75,1.3A4.59,4.59,0,0,0,107.45,177.91Z"/><path class="cls-1" d="M133.14,184.7h-3.48v-7.65a3.91,3.91,0,0,0-.58-2.39,1.88,1.88,0,0,0-1.58-.75,3,3,0,0,0-1.07.2,4.28,4.28,0,0,0-1,.59,4.66,4.66,0,0,0-.87.9,3.39,3.39,0,0,0-.57,1.14v8h-3.48V171.07h3.14v2.52a5.23,5.23,0,0,1,2.19-2,6.94,6.94,0,0,1,3.22-.73,4,4,0,0,1,2.08.47,3.26,3.26,0,0,1,1.25,1.22,5.11,5.11,0,0,1,.61,1.71,11.49,11.49,0,0,1,.17,1.95Z"/><circle class="cls-1" cx="76.37" cy="76.37" r="76.37"/><path class="cls-2" d="M68.49,54.08a6.92,6.92,0,0,1-7-8,28.1,28.1,0,0,1,16.26-20.5,27.48,27.48,0,0,1,34.71,11.55c6.56,11.23,3.23,25.84-8,34.06a27.54,27.54,0,0,1-29.72,1.64,3.29,3.29,0,0,1,0-5.69l0,0c2.58-1.54,5-3.48,4.59-6.83s-3.17-4.83-6.19-5.64A16.28,16.28,0,0,0,68.49,54.08Z"/><path class="cls-2" d="M98,134.84H69.37v-2.3q0-21.21,0-42.41a13.3,13.3,0,0,1,.51-3.55A3.22,3.22,0,0,1,73.36,84c10.51,0,21,0,31.54,0,3.87,0,5.75,1.68,5.74,5.44,0,14.78.1,29.55.16,44.32a7,7,0,0,1-.13,1H99.12V91.57l-.79,0c-.62,3.44-.22,7-.29,10.46s0,7.24,0,10.87v22Z"/><path class="cls-2" d="M68.44,87.86c0,4.38,0,8.21,0,12a2.62,2.62,0,0,1-1,1.88C61.82,105.28,56.33,109,50.5,112c-4.5,2.36-9.62,1.1-11.54-4.4a7.21,7.21,0,0,1,0-2.5c.22-5.53.79-11.08.56-16.59-.23-5.73-1.25-11.42-1.9-17.14-.26-2.32-.61-4.64-.65-7a5.47,5.47,0,0,1,3.19-5.13c3.82-2.05,7.76-3.41,12.2-3.1a24.94,24.94,0,0,0,4.87-.33c1.22-.16,2.32-.27,2.75,1.19s-.66,2-1.73,2.48c-2.57,1.21-5.16,2.37-7.71,3.62C46.78,65,46.85,64.94,47.39,69a15.94,15.94,0,0,0,1.69,4.79c1,2.07,3.35,2.21,5.05.65,2.31-2.1,5-3.47,8.34-3.13.49,2.06-.73,3.25-2.11,4.07a50.89,50.89,0,0,1-6.31,3c-3.16,1.34-4.23,2.93-4.29,6.34-.09,4.4-.31,8.8-.47,13.19,0,.7,0,1.39,0,2.19Z"/><path class="cls-2" d="M54.39,69.31l14-6.36L70,65.75,55.57,72.06Z"/><path class="cls-2" d="M63.48,57.84l2.87,2.53-13.28,6-1.22-2.6Z"/></g></g></svg>