<svg xmlns="http://www.w3.org/2000/svg" viewBox="0 0 153 186.87"><defs><style>.cls-1{fill:#167bbd;}.cls-2{fill:#fff;}</style></defs><title>inhalacion_1</title><g id="Capa_2" data-name="Capa 2"><g id="Capa_1-2" data-name="Capa 1"><path class="cls-1" d="M16.24,186.61V168.15h3.58v18.46Z"/><path class="cls-1" d="M36,186.61H32.51V179a4,4,0,0,0-.57-2.39,1.88,1.88,0,0,0-1.59-.75,3.15,3.15,0,0,0-1.06.2,3.93,3.93,0,0,0-1,.59,4.66,4.66,0,0,0-.87.9,3.39,3.39,0,0,0-.57,1.14v8H23.33V173h3.15v2.53a5.11,5.11,0,0,1,2.18-2,7,7,0,0,1,3.23-.73,4,4,0,0,1,2.08.47,3.48,3.48,0,0,1,1.25,1.22,5.34,5.34,0,0,1,.61,1.71A11.67,11.67,0,0,1,36,178.1Z"/><path class="cls-1" d="M51.7,186.61H48.22V179a3.88,3.88,0,0,0-.6-2.38,2,2,0,0,0-1.69-.76,2.86,2.86,0,0,0-1,.2,3.87,3.87,0,0,0-1,.59,4.93,4.93,0,0,0-.86.9,3.39,3.39,0,0,0-.57,1.14v8H39v-19h3.48v7.88a5.22,5.22,0,0,1,2-2,5.85,5.85,0,0,1,2.85-.71,4.56,4.56,0,0,1,2.16.45,3.53,3.53,0,0,1,1.3,1.21,5.08,5.08,0,0,1,.65,1.72,10.69,10.69,0,0,1,.18,2Z"/><path class="cls-1" d="M58.46,186.87a5.15,5.15,0,0,1-1.85-.33,4.38,4.38,0,0,1-1.48-.91,4.23,4.23,0,0,1-1-1.36,4,4,0,0,1-.35-1.72,3.86,3.86,0,0,1,.42-1.78,4.1,4.1,0,0,1,1.2-1.39,6,6,0,0,1,1.83-.9,8.22,8.22,0,0,1,2.34-.32,10.43,10.43,0,0,1,1.78.15,6.93,6.93,0,0,1,1.55.45V178a2.71,2.71,0,0,0-.77-2.08,3.19,3.19,0,0,0-2.27-.72,6,6,0,0,0-2.13.39,9.65,9.65,0,0,0-2.13,1.14l-1.07-2.21a10.07,10.07,0,0,1,5.67-1.74,6.63,6.63,0,0,1,4.56,1.44,5.31,5.31,0,0,1,1.63,4.17v4.24a1.2,1.2,0,0,0,.19.78.81.81,0,0,0,.64.26v3a7.84,7.84,0,0,1-1.54.18,2.37,2.37,0,0,1-1.52-.44,2,2,0,0,1-.66-1.17l-.08-.76a5.87,5.87,0,0,1-2.21,1.82A6.29,6.29,0,0,1,58.46,186.87Zm1-2.55a4.43,4.43,0,0,0,1.67-.31,3.11,3.11,0,0,0,1.24-.83,1.27,1.27,0,0,0,.57-1v-1.56a8.26,8.26,0,0,0-1.35-.38,6.92,6.92,0,0,0-1.4-.14,3.68,3.68,0,0,0-2.21.61,1.82,1.82,0,0,0-.86,1.55,1.85,1.85,0,0,0,.67,1.46A2.47,2.47,0,0,0,59.45,184.32Z"/><path class="cls-1" d="M69.64,167.63h3.48v14.61a1.69,1.69,0,0,0,.37,1.17,1.29,1.29,0,0,0,1,.41,2.55,2.55,0,0,0,.69-.1,5,5,0,0,0,.71-.26l.47,2.65a6.45,6.45,0,0,1-1.64.52,9,9,0,0,1-1.69.18,3.47,3.47,0,0,1-2.53-.87,3.28,3.28,0,0,1-.9-2.48Z"/><path class="cls-1" d="M81.62,186.87a5.09,5.09,0,0,1-1.84-.33,4.35,4.35,0,0,1-2.46-2.27,4.2,4.2,0,0,1-.35-1.72,3.75,3.75,0,0,1,.43-1.78,4,4,0,0,1,1.2-1.39,6,6,0,0,1,1.83-.9,8.22,8.22,0,0,1,2.34-.32,10.43,10.43,0,0,1,1.78.15,7.09,7.09,0,0,1,1.55.45V178a2.75,2.75,0,0,0-.77-2.08,3.2,3.2,0,0,0-2.27-.72,6.09,6.09,0,0,0-2.14.39,10.11,10.11,0,0,0-2.13,1.14l-1.06-2.21a10,10,0,0,1,5.66-1.74A6.68,6.68,0,0,1,88,174.19a5.3,5.3,0,0,1,1.62,4.17v4.24a1.2,1.2,0,0,0,.2.78.81.81,0,0,0,.63.26v3a7.84,7.84,0,0,1-1.53.18,2.33,2.33,0,0,1-1.52-.44,1.93,1.93,0,0,1-.67-1.17l-.07-.76a6,6,0,0,1-2.21,1.82A6.33,6.33,0,0,1,81.62,186.87Zm1-2.55a4.52,4.52,0,0,0,1.68-.31,3.18,3.18,0,0,0,1.24-.83,1.27,1.27,0,0,0,.57-1v-1.56a8.68,8.68,0,0,0-1.36-.38,6.85,6.85,0,0,0-1.4-.14,3.7,3.7,0,0,0-2.21.61,1.84,1.84,0,0,0-.86,1.55,1.86,1.86,0,0,0,.68,1.46A2.44,2.44,0,0,0,82.61,184.32Z"/><path class="cls-1" d="M100.89,185.9a15.93,15.93,0,0,1-1.71.63,7.19,7.19,0,0,1-2.14.31,5,5,0,0,1-1.36-.18,2.94,2.94,0,0,1-1.12-.59,2.75,2.75,0,0,1-.77-1,3.75,3.75,0,0,1-.28-1.54v-7.83h-1.8V173h1.8v-4.42H97V173h2.86v2.68H97v6.66a1.24,1.24,0,0,0,.38,1,1.43,1.43,0,0,0,.92.3,3.29,3.29,0,0,0,1.07-.18c.34-.12.62-.22.83-.31Z"/><path class="cls-1" d="M102.71,171.08v-3.45h3.48v3.45Zm0,15.53V173h3.48v13.63Z"/><path class="cls-1" d="M115.63,186.87a7.52,7.52,0,0,1-3-.57,6.65,6.65,0,0,1-3.66-3.8,7.49,7.49,0,0,1,0-5.38,6.91,6.91,0,0,1,1.41-2.25,6.8,6.8,0,0,1,2.25-1.55,7.52,7.52,0,0,1,3-.57,7.44,7.44,0,0,1,3,.57,6.68,6.68,0,0,1,3.65,3.8,7.49,7.49,0,0,1,0,5.38,6.88,6.88,0,0,1-1.4,2.25,6.7,6.7,0,0,1-2.24,1.55A7.49,7.49,0,0,1,115.63,186.87Zm-3.56-7.05a4.76,4.76,0,0,0,.27,1.65,4.23,4.23,0,0,0,.76,1.29,3.44,3.44,0,0,0,1.13.84,3.29,3.29,0,0,0,1.4.3,3.33,3.33,0,0,0,1.41-.3,3.44,3.44,0,0,0,1.13-.84,4.06,4.06,0,0,0,.75-1.3,4.9,4.9,0,0,0,.27-1.66,4.82,4.82,0,0,0-.27-1.64,3.86,3.86,0,0,0-.75-1.3,3.31,3.31,0,0,0-2.54-1.15,3.3,3.3,0,0,0-1.4.31,3.65,3.65,0,0,0-1.13.86,4.28,4.28,0,0,0-.76,1.3A4.86,4.86,0,0,0,112.07,179.82Z"/><path class="cls-1" d="M137.76,186.61h-3.49V179a4,4,0,0,0-.57-2.39,1.88,1.88,0,0,0-1.58-.75,3.16,3.16,0,0,0-1.07.2,4.09,4.09,0,0,0-1,.59,4.66,4.66,0,0,0-.87.9,3.39,3.39,0,0,0-.57,1.14v8H125.1V173h3.14v2.53a5.08,5.08,0,0,1,2.19-2,6.91,6.91,0,0,1,3.22-.73,4,4,0,0,1,2.08.47,3.41,3.41,0,0,1,1.25,1.22,5.11,5.11,0,0,1,.61,1.71,11.67,11.67,0,0,1,.17,1.95Z"/><circle class="cls-1" cx="76.5" cy="76.5" r="76.5"/><path class="cls-2" d="M29.2,130.59c-1.48-1.52-2.91-3.08-1.81-5.43s3.21-2.62,5.48-2.6c4,0,7.9-.11,11.84,0,2.09.08,3.18-.75,4.21-2.49,3.31-5.57,6.7-11.11,10.28-16.51C64.58,95.51,72.35,93,81.57,95a32.14,32.14,0,0,1,9.65,3.71,13.88,13.88,0,0,1,7.17,12.07c0,2,.25,3.93.31,5.91.21,7.49-1,6.4,6.71,6.5,1.89,0,3.86-.31,5.62.16a7.29,7.29,0,0,1,4.13,2.69c1.1,1.73-.16,3.37-1.73,4.51H93.08c-.9-1.37-2.14-2.63-2.64-4.14-1.23-3.74-2.08-7.61-3.17-11.4-.85-2.93-5.44-5.45-8.56-4.67,2.62,4.38,5.29,8.68,7.76,13.09,1.82,3.25,1.46,4.6-1.31,7.12H61.42c-1.63-1.29-2.93-2.76-2.1-5,.89-2.42,2.9-3,5.22-3,3,0,6.06,0,8.78,0L65.92,115l-13,15.62Z"/><path class="cls-2" d="M45.22,38.45c3.46-10.15,7.57-12.06,18.1-8.53a54.53,54.53,0,0,1,3.55-5.71c8.48-10.65,26.44-8,32.46,4.76a32.9,32.9,0,0,1,2.34,8.08c.64,3.57.55,3.69,4.27,3.41,5-.37,9.76.4,14,3.2C126.6,48,129.1,57.51,125.63,65c-3.35,7.28-12.12,9.95-19.18,8.45-.6-.13-1.33-1.61-1.3-2.44.09-2.38.62-4.76-1.79-6.82a13.1,13.1,0,0,0-.42,2.68c.39,8.92-3.9,16-11.49,18.8-7.85,2.91-15.64.43-21.24-6.76-2.49-3.18-2.43-3.07-6.11-1.41-4.08,1.84-8.34,2.94-12.89,1.85A12.84,12.84,0,0,1,40.92,66.33c0-1.15,0-2.31,0-3.46l-1.13-.26-1.44,3.65c-6.59,0-11.76-6.13-11.59-13.67C27,43,33.64,37.89,45.22,38.45ZM77.73,64.79l.91.25c-1.14-4.48,2.58-6.49,4.1-9.61A9.48,9.48,0,0,0,67.51,44.7C64.27,47.82,63.4,53,66.16,56.52c1.93,2.46,3.72,4.74,3.75,8a1.64,1.64,0,0,0,.41.08l2.07-2.66,1.76,2.78L75.76,62Zm-12-3.5c-.87-1.79-1.81-2.54-3.62-1.67-2.12,1-4.24,2.43-6.55.05-.37-.38-2.23.15-2.86.78s-.32,1.86-.11,2.76A9.77,9.77,0,0,0,54,66.58a4.6,4.6,0,0,0,2.55,2c.71.09,2.31-1.2,2.28-1.81-.14-2.7,1.8-3.19,3.56-4C63.43,62.35,64.5,61.84,65.69,61.29Zm16.93-.2c.58.38,1,.71,1.51,1,2,1.19,4.64,1.71,4.36,5,0,.48,1.77,1.68,2.49,1.51.93-.21,1.76-1.38,2.37-2.3a8.37,8.37,0,0,0,1.14-2.9c.2-1,.53-2.54,0-3-.71-.65-2.65-1.1-3.14-.64-1.8,1.67-3.23.86-4.74-.13C84.85,58.51,83.52,58.67,82.62,61.09ZM62.34,53.5c-.71-1.71-1.06-2.73-1.55-3.67a15.86,15.86,0,0,0-1.86-3c-.71-.83-1.66-2-2.5-2s-1.91,1.11-2.52,2a8.69,8.69,0,0,0-1.38,3.37,4.2,4.2,0,0,0,.3,3c.44.59,2.33,1,2.64.62C57.33,51.7,59.41,52.49,62.34,53.5Zm23.72-1.8A58.31,58.31,0,0,0,92.47,54a3,3,0,0,0,2.65-.84c.44-.76.16-2-.06-3a7.22,7.22,0,0,0-1.13-2.64c-.68-1-1.47-2.24-2.45-2.51-1.64-.46-2.49.78-2.76,2.41a5,5,0,0,1-.86,1.85C87.27,50.11,86.59,51,86.06,51.7Z"/><path class="cls-2" d="M107,107.24a7,7,0,1,1-7.06,6.92A7.06,7.06,0,0,1,107,107.24Z"/><path class="cls-2" d="M67,53.15c1.14-.8,2.18-2.06,3.43-2.3,1.78-.34,3,.91,3,2.8s-1.1,3.38-3,3.09c-1.23-.19-2.3-1.48-3.44-2.28Z"/><path class="cls-2" d="M81.26,54.52c-1.15.77-2.23,2-3.47,2.21-1.94.27-3.08-1.12-3-3.14s1.32-3.11,3.09-2.74c1.24.27,2.27,1.54,3.39,2.36Z"/></g></g></svg>