<svg xmlns="http://www.w3.org/2000/svg" viewBox="0 0 186.48 85.04"><defs><style>.cls-1,.cls-4{fill:#107abc;}.cls-2{fill:#30559a;}.cls-3{fill:#fff;}.cls-4{font-size:29px;font-family:Raleway-Bold, Raleway;font-weight:700;}.cls-5{letter-spacing:0em;}</style></defs><title>mapa</title><g id="Capa_2" data-name="Capa 2"><g id="Capa_1-2" data-name="Capa 1"><path class="cls-1" d="M54.13,83.39a16.28,16.28,0,0,1-2.25.61,39.43,39.43,0,0,1-4.94.81,42.27,42.27,0,0,1-7.63.11,37.57,37.57,0,0,1-4.6-.59,43.78,43.78,0,0,1-5.85-1.54,42,42,0,0,1-14.22-8.18,42.63,42.63,0,0,1-5.83-6.18A42.36,42.36,0,0,1,1.71,54.5,43.36,43.36,0,0,1,.32,47.74a45.28,45.28,0,0,1-.23-8.31,38,38,0,0,1,.56-4.36,43.65,43.65,0,0,1,1.13-4.78A42.55,42.55,0,0,1,5,22.45a41.94,41.94,0,0,1,4.44-6.66,43.71,43.71,0,0,1,8.5-8,42.92,42.92,0,0,1,7.14-4.11,40.57,40.57,0,0,1,7.1-2.46A45.84,45.84,0,0,1,37.27.32,41.91,41.91,0,0,1,44.35,0,40.06,40.06,0,0,1,51.9,1a43.18,43.18,0,0,1,7.4,2.4,42.67,42.67,0,0,1,7.45,4.13,41.72,41.72,0,0,1,4.86,4,42.69,42.69,0,0,1,5.75,6.63,44.41,44.41,0,0,1,3,4.87,41.44,41.44,0,0,1,2.36,5.43,45.43,45.43,0,0,1,1.55,5.77A43.09,43.09,0,0,1,85,44.34a34.33,34.33,0,0,1-.54,5.06,3.8,3.8,0,0,0-.91-1.12L80.79,45.5c-1-1-2-2-3-3s-2-2-3-3S73,37.66,72,36.73l-2.89-2.88-2.91-2.92C65,29.72,63.8,28.5,62.55,27.26a1.49,1.49,0,0,1-.55.86,5.56,5.56,0,0,0-1,1.09,1.75,1.75,0,0,1-.34-1,.45.45,0,0,1,.5-.38.73.73,0,0,0,.65-.42.54.54,0,0,0-.06-.71l-2-2a1,1,0,0,0-.44-.19c-.22-.07-.33-.22-.21-.44s.1-.18,0-.28c-.46-.41-.85-.88-1.3-1.29a.69.69,0,0,0-.32-.16,11.64,11.64,0,0,1-1.17-1.26,18.88,18.88,0,0,0-7.47-4.83,17,17,0,0,0-4.29-1,20.15,20.15,0,0,0-2.2-.15A20.66,20.66,0,0,0,35,16.75a19.6,19.6,0,0,0-5,3.1,18.89,18.89,0,0,0-3.37,3.82,19.34,19.34,0,0,0-2.73,6.2,19.93,19.93,0,0,0-.5,5.27A33.16,33.16,0,0,0,25,43.91a52.93,52.93,0,0,0,4.21,9.64,83.26,83.26,0,0,0,6,9.2c1.54,2.08,3.19,4.08,4.88,6a31.72,31.72,0,0,0,2.52,2.67C46,75,49.45,78.32,52.87,81.77c.39.4.76.81,1.17,1.18A.33.33,0,0,1,54.13,83.39Z"/><path class="cls-2" d="M61.07,29.2a.52.52,0,0,1,.21-.5c.21-.19.4-.41.61-.61a1.46,1.46,0,0,0,.6-1.07c1.52,1.52,2.95,3,4.37,4.41s2.86,2.89,4.29,4.32c1.17,1.17,2.35,2.32,3.52,3.48s2.43,2.46,3.65,3.68l2.86,2.83c.78.77,1.53,1.57,2.33,2.32.28.26.45.62.79.82s.12.34.17.52a27.3,27.3,0,0,1-.69,3.47,41.38,41.38,0,0,1-2,5.94,42.3,42.3,0,0,1-4.63,8.35,42.87,42.87,0,0,1-6.36,7.09A42.22,42.22,0,0,1,60,81.3a45,45,0,0,1-5.26,2c-.18,0-.37.08-.56.12-.06-.45-.45-.68-.72-1-2-2-4-4-6.08-6-1.4-1.37-2.73-2.81-4.18-4.13a4.72,4.72,0,0,1-.56-.75c0-.17.11-.27.21-.37,1.9-2,3.66-4,5.35-6.18a85.63,85.63,0,0,0,7.09-10.38,59.55,59.55,0,0,0,3.91-8.13,36.15,36.15,0,0,0,2.29-9,23.7,23.7,0,0,0,.17-3.95,18.93,18.93,0,0,0-.53-3.75C61,29.54,60.94,29.37,61.07,29.2Z"/><path class="cls-3" d="M61.07,29.2a20.7,20.7,0,0,1,.65,5,31.83,31.83,0,0,1-1.59,9.77A53.19,53.19,0,0,1,55.7,54a79.86,79.86,0,0,1-5,7.81,97,97,0,0,1-6.19,7.67c-.62.69-1.26,1.36-1.89,2A1.62,1.62,0,0,1,42,71c-1.57-1.66-3.08-3.37-4.51-5.14-1.62-2-3.17-4.09-4.62-6.24-1-1.45-1.93-2.92-2.81-4.43a61.44,61.44,0,0,1-3.57-7.06A46.71,46.71,0,0,1,24.62,43a30.2,30.2,0,0,1-1.29-9.4,19.25,19.25,0,0,1,9.59-15.92,17.9,17.9,0,0,1,5.67-2.16,19.13,19.13,0,0,1,3.92-.43,20.14,20.14,0,0,1,5.76.9,19.55,19.55,0,0,1,4.86,2.31,20,20,0,0,1,4.42,4,2,2,0,0,1,.67.74,18.3,18.3,0,0,1,2.48,4.71.79.79,0,0,1,.08.43Z"/><path class="cls-2" d="M61.19,29.71a15.08,15.08,0,0,0-1.59-4.22,25.5,25.5,0,0,0-2.05-3.16c.2-.16.34.07.39.14.45.53,3.11,3.16,3.78,3.81a5.24,5.24,0,0,1,1.05,1.19C62.62,27.76,61.28,29.48,61.19,29.71Z"/><path class="cls-2" d="M53,34.28A10.43,10.43,0,1,1,42.35,23.9,10.44,10.44,0,0,1,53,34.28Z"/><text class="cls-4" transform="translate(109.22 53.69)"><tspan class="cls-5">M</tspan><tspan x="24.94" y="0">aps</tspan></text></g></g></svg>