<svg xmlns="http://www.w3.org/2000/svg" viewBox="0 0 173.91 85.04"><defs><style>.cls-1,.cls-12{fill:#107abc;}.cls-2{fill:#30559a;}.cls-3{fill:#fff;}.cls-4{fill:#4791cb;}.cls-5{fill:#438cc8;}.cls-6{fill:#438cc7;}.cls-7{fill:#fefefe;}.cls-8{fill:#fefeff;}.cls-9{fill:#feffff;}.cls-10{fill:#fcfefe;}.cls-11{fill:#fdfefe;}.cls-12{font-size:29px;font-family:Raleway-Bold, Raleway;font-weight:700;}</style></defs><title>planifica</title><g id="Capa_2" data-name="Capa 2"><g id="Capa_1-2" data-name="Capa 1"><circle class="cls-1" cx="42.52" cy="42.52" r="42.52"/><path class="cls-2" d="M46.17,81.76c-8-8-13.91-13-21.86-20.93-.53-.53-1.21-.95-1.42-1.74,1.1-.38,2.21,0,3.31,0,9.44,0,18.87,0,28.31,0a6.14,6.14,0,0,0,4.81-2c5.79-6,4.77-3.47,4.86-11.71,0-4,0-8.08,0-12.13,0-.86-.17-1.78.55-2.49.79.06,1.17.72,1.66,1.2q8.43,8.4,16.85,16.83c.49.49,0,.48.7.74.94.57.34.89.17,1.67a47.44,47.44,0,0,1-6.91,16.5c-6.59,9-18.09,15.41-27.42,16.83C49.09,84.6,46.73,82.59,46.17,81.76Z"/><path class="cls-3" d="M64.75,30.71c0,6.5,0,13,0,19.51a5.48,5.48,0,0,1-1.37,3.44c-3.58,4.88-8.16,6.47-14.22,6.05-7.87-.55-15.81-.15-23.72-.13a5.16,5.16,0,0,1-2.54-.49,4.61,4.61,0,0,1-1.11-3.21c0-7.91,0-15.82,0-23.73,0-2.66.94-3.61,3.55-3.65h.35c1.23,0,2.58-.29,3.66.12,1.32.52.19,2.12.71,3.12.18.36.35.72.52,1.08,3,1.48,3,1.47,5.56-.73.35-2.77.35-2.77,3.23-2.77,3.16,0,6.32,0,9.48,0,1.09,0,1.65.2,1.48,1.42A2.59,2.59,0,0,0,51,32.83a4.17,4.17,0,0,0,4.82.31,3.35,3.35,0,0,0,.84-2.9c-.22-1.37.34-1.92,1.74-1.76a13.49,13.49,0,0,0,2.62,0A3.32,3.32,0,0,1,64.75,30.71Z"/><path class="cls-3" d="M56,31.78l-.47,1c-1.54,1.66-2.94,1.55-4.21-.31-.7-2-.22-4.06-.32-6.09,0-.73.59-.58,1-.58,1.29,0,2.58,0,3.86,0A28.48,28.48,0,0,1,56,31.78Z"/><path class="cls-3" d="M31,32.48c-.67-1.94-.22-3.95-.35-5.92-.05-.82.51-.76,1-.76h3.86A34.13,34.13,0,0,1,35.68,32c0,1.12-1,1.57-1.87,1.78A2.22,2.22,0,0,1,31,32.48Z"/><path class="cls-4" d="M31,32.48a2.8,2.8,0,0,0,3.32.86c1.31-.58,1.37-1.76,1.33-3-.05-1.52-.06-3-.09-4.56.8,1.05.22,2.25.39,3.37.14,1-.25,2,.26,2.92-1.34,2.66-3.67,3-5.56.73Z"/><path class="cls-4" d="M51.35,32.48a2.83,2.83,0,0,0,4.21.31c.08.12.17.23.26.35-1.68,1.69-3.2,1.59-4.82-.31Z"/><path class="cls-4" d="M56,31.78l-.12-6A11,11,0,0,1,56,31.78Z"/><path class="cls-2" d="M43.36,35.79c6,0,12,0,17.93,0,1.31,0,1.7.35,1.66,1.68-.09,3.68-.08,7.38,0,11.07,0,1.26-.38,1.63-1.59,1.54s-2.59.06-3.87,0c-1.73-.12-2.3.68-2.21,2.3.07,1.4,0,2.81,0,4.21,0,1-.22,1.32-1.25,1.31q-14.33,0-28.65,0c-1.24,0-1.82-.47-1.81-1.77,0-6.33,0-12.66,0-19,0-1.22.57-1.3,1.5-1.29C31.17,35.8,37.27,35.79,43.36,35.79Z"/><path class="cls-2" d="M62,51.93l-4.81,4.72a.89.89,0,0,1-.07-.3C57.05,51.49,57.05,51.49,62,51.93Z"/><path class="cls-5" d="M54.53,30.34c0,.59-.31,1-.92,1a1,1,0,1,1-.1-2C54.12,29.35,54.43,29.76,54.53,30.34Z"/><path class="cls-6" d="M33.35,31.4a1,1,0,0,1-1.15-1,1,1,0,0,1,.93-1,.89.89,0,0,1,1,1A1,1,0,0,1,33.35,31.4Z"/><path class="cls-7" d="M48.19,46.62c.35,1.7-.44,2.07-2,2.1-1.74,0-2.2-.6-2.19-2.24s.59-2.07,2.17-2.09C47.89,44.37,48.55,45,48.19,46.62Z"/><path class="cls-7" d="M35.88,46.62c.35,1.69-.43,2.07-2,2.1s-2.2-.59-2.19-2.23.58-2.08,2.16-2.1S36.24,44.94,35.88,46.62Z"/><path class="cls-8" d="M52.28,48.63c-1.75.38-2-.53-2.07-2.05s.49-2.21,2.19-2.19,2.1.56,2.1,2.14S54,49,52.28,48.63Z"/><path class="cls-8" d="M40,44.49c1.72-.36,2.25.4,2.24,2.08s-.46,2.17-2.1,2.15c-1.48,0-2.29-.26-2.19-2C38,45.27,38,44.05,40,44.49Z"/><path class="cls-8" d="M25.67,46.51c-.39-1.8.56-2.09,2.15-2.12s2,.67,2.06,2.19c.05,1.76-.66,2.13-2.28,2.14S25.38,48.08,25.67,46.51Z"/><path class="cls-9" d="M27.66,43c-1.67.35-2-.43-2.09-2-.06-1.85.76-2,2.29-2.06,1.72,0,2,.67,2,2.18C29.91,42.89,29.18,43.33,27.66,43Z"/><path class="cls-9" d="M35.87,41c.43,1.76-.42,2.16-2.06,2.17s-2.14-.45-2.14-2.08.55-2.13,2.14-2.07C35.21,39.05,36.33,39.09,35.87,41Z"/><path class="cls-9" d="M40,43c-1.72.37-2-.5-2.06-2-.09-1.9.83-2,2.31-2,1.76-.07,1.95.74,2,2.2C42.24,43,41.43,43.31,40,43Z"/><path class="cls-9" d="M48.18,41c.43,1.75-.39,2.17-2,2.18S44,42.72,44,41.07s.53-2.15,2.13-2.08C47.5,39.06,48.65,39.06,48.18,41Z"/><path class="cls-9" d="M52.36,39.07c1.61-.32,2.15.33,2.15,2s-.47,2.11-2.1,2.1S50.19,42.7,50.2,41,50.82,38.77,52.36,39.07Z"/><path class="cls-9" d="M27.56,54c-1.85.44-1.87-.67-2-2.07-.15-2,1-1.89,2.38-2,1.66-.1,1.85.69,1.92,2.08C30,53.92,29.14,54.34,27.56,54Z"/><path class="cls-9" d="M33.73,54.08c-1.4.29-2.11-.27-2.06-2,0-1.46.4-2.09,2-2.05s2.45.12,2.3,2S35.93,54.07,33.73,54.08Z"/><path class="cls-9" d="M40.13,50.07c1.7-.37,2,.49,2.06,2,.05,1.69-.63,2-2.16,2-1.72,0-2.13-.55-2.15-2.19S38.65,49.81,40.13,50.07Z"/><path class="cls-9" d="M46.07,54c-1.72.36-2-.51-2.08-2-.05-1.71.68-2,2.19-2,1.77-.06,2.07.65,2.11,2.24C48.34,54,47.51,54.29,46.07,54Z"/><path class="cls-9" d="M54.42,52.06c.36,1.72-.5,2-2,2.07s-2.17-.47-2.19-2.16.75-2,2.2-2S54.76,50.38,54.42,52.06Z"/><path class="cls-10" d="M60.49,46.55c.36,1.75-.4,2.14-2,2.17s-2.21-.58-2.2-2.23.57-2.1,2.16-2.1S60.93,44.87,60.49,46.55Z"/><path class="cls-11" d="M58.43,43c-1.75.37-2.09-.49-2.13-2,0-1.7.65-2,2.18-2s2.18.29,2.13,2S60.13,43.44,58.43,43Z"/><path class="cls-2" d="M59.45,46.59c.11.74-.19,1-1,1s-1.05-.2-1.06-1,.27-1.12,1.11-1.12S59.54,45.89,59.45,46.59Z"/><path class="cls-2" d="M58.36,42c-.81.12-.93-.36-.94-1,0-.92.54-1,1.25-1,.92,0,.75.63.8,1.19C59.55,42,59,42,58.36,42Z"/><text class="cls-12" transform="translate(106.34 50.96)">Plan</text></g></g></svg>